<?xml version="1.0" encoding="UTF-8"?>
<svg xmlns="http://www.w3.org/2000/svg" version="1.1" width="375px" height="264px" style="shape-rendering:geometricPrecision; text-rendering:geometricPrecision; image-rendering:optimizeQuality; fill-rule:evenodd; clip-rule:evenodd" xmlns:xlink="http://www.w3.org/1999/xlink">
<g><path style="opacity:0.82" fill="#060504" d="M 128.5,76.5 C 127.89,75.609 127.557,74.609 127.5,73.5C 130.022,69.9271 130.022,66.4271 127.5,63C 122.845,62.5008 118.179,62.3342 113.5,62.5C 113.352,66.8141 111.185,69.4807 107,70.5C 106.227,72.3524 106.727,73.6857 108.5,74.5C 108.672,75.4916 108.338,76.1583 107.5,76.5C 106.167,76.5 104.833,76.5 103.5,76.5C 101.029,58.8001 108.363,52.3001 125.5,57C 131.115,61.9683 132.948,68.135 131,75.5C 130.329,76.2524 129.496,76.5858 128.5,76.5 Z"/></g>
<g><path style="opacity:0.95" fill="#f2b08f" d="M 265.5,70.5 C 263.738,70.3573 262.071,70.6906 260.5,71.5C 259.322,68.6092 258.655,65.6092 258.5,62.5C 252.862,63.2197 247.196,63.553 241.5,63.5C 237.683,62.4665 236.683,60.1332 238.5,56.5C 244.32,54.4778 250.32,53.9778 256.5,55C 262.984,57.1281 265.317,61.4614 263.5,68C 264.056,69.0111 264.722,69.8444 265.5,70.5 Z"/></g>
<g><path style="opacity:0.381" fill="#f3705a" d="M 276.5,61.5 C 276.167,61.5 275.833,61.5 275.5,61.5C 274.766,60.2921 274.433,58.9587 274.5,57.5C 275.791,56.2216 277.791,55.5549 280.5,55.5C 280.5,54.5 280.5,53.5 280.5,52.5C 283.05,52.5608 284.55,53.8941 285,56.5C 286.264,54.393 288.097,53.393 290.5,53.5C 290.819,55.7505 290.319,57.7505 289,59.5C 288.889,54.6213 287.722,54.288 285.5,58.5C 284.522,58.0233 283.689,57.3567 283,56.5C 282.047,58.5922 280.714,58.9255 279,57.5C 278.383,58.4491 278.549,59.2825 279.5,60C 278.551,60.6172 277.718,60.4506 277,59.5C 276.536,60.0944 276.369,60.7611 276.5,61.5 Z"/></g>
<g><path style="opacity:0.869" fill="#040403" d="M 275.5,61.5 C 275.833,61.5 276.167,61.5 276.5,61.5C 281.167,61.5 285.833,61.5 290.5,61.5C 290.5,62.8333 290.5,64.1667 290.5,65.5C 289.07,65.5792 287.736,65.2458 286.5,64.5C 285.066,65.5884 284.066,66.9217 283.5,68.5C 282.503,68.4701 281.836,68.9701 281.5,70C 280.392,71.6773 280.392,73.1773 281.5,74.5C 284.231,77.6343 285.564,81.301 285.5,85.5C 284.5,85.5 283.5,85.5 282.5,85.5C 279.167,85.5 275.833,85.5 272.5,85.5C 272.337,77.2974 273.337,69.2974 275.5,61.5 Z"/></g>
<g><path style="opacity:0.979" fill="#e8c5af" d="M 127.5,73.5 C 125.174,74.1447 123.507,75.478 122.5,77.5C 122.5,78.5 122.5,79.5 122.5,80.5C 123.833,80.5 125.167,80.5 126.5,80.5C 126.5,80.8333 126.5,81.1667 126.5,81.5C 124.831,83.5089 123.164,85.5089 121.5,87.5C 118.757,85.7607 116.757,83.4274 115.5,80.5C 116.434,79.4324 116.768,78.099 116.5,76.5C 115.035,75.2632 113.368,74.2632 111.5,73.5C 110.883,73.3893 110.383,73.056 110,72.5C 109.722,73.4158 109.222,74.0825 108.5,74.5C 106.727,73.6857 106.227,72.3524 107,70.5C 111.185,69.4807 113.352,66.8141 113.5,62.5C 118.179,62.3342 122.845,62.5008 127.5,63C 130.022,66.4271 130.022,69.9271 127.5,73.5 Z"/></g>
<g><path style="opacity:0.988" fill="#f4d1b9" d="M 208.5,84.5 C 208.697,88.6224 209.53,92.6224 211,96.5C 213.955,92.8997 217.455,91.233 221.5,91.5C 221.833,92.1667 222.167,92.8333 222.5,93.5C 223.997,97.1649 225.997,100.498 228.5,103.5C 221.68,112.407 212.68,116.074 201.5,114.5C 200.667,113.5 199.833,112.5 199,111.5C 196.966,102.392 195.133,93.3919 193.5,84.5C 192.99,78.8118 191.324,73.4785 188.5,68.5C 189.51,63.8327 192.177,60.8327 196.5,59.5C 196.196,55.7846 196.863,52.2846 198.5,49C 199.449,48.3828 200.282,48.5494 201,49.5C 201.333,51.1667 201.667,52.8333 202,54.5C 202.404,51.0573 204.071,49.7239 207,50.5C 207.622,54.0286 207.455,57.5286 206.5,61C 207.271,63.2711 208.271,65.4378 209.5,67.5C 208.883,70.3554 207.883,73.0221 206.5,75.5C 207.328,78.4788 207.995,81.4788 208.5,84.5 Z"/></g>
<g><path style="opacity:0.938" fill="#eecbb4" d="M 265.5,70.5 C 265.67,71.8221 265.337,72.9887 264.5,74C 261.308,74.1971 258.308,75.0304 255.5,76.5C 254.571,77.6888 254.238,79.0222 254.5,80.5C 255.5,80.5 256.5,80.5 257.5,80.5C 255.538,82.0173 253.205,82.6839 250.5,82.5C 248.833,82.3333 247.167,82.1667 245.5,82C 244.944,81.6174 244.611,81.1174 244.5,80.5C 245.833,80.5 247.167,80.5 248.5,80.5C 248.657,79.1266 248.49,77.7932 248,76.5C 242.652,73.8048 240.486,69.4714 241.5,63.5C 247.196,63.553 252.862,63.2197 258.5,62.5C 258.655,65.6092 259.322,68.6092 260.5,71.5C 262.071,70.6906 263.738,70.3573 265.5,70.5 Z"/></g>
<g><path style="opacity:0.973" fill="#f4d1b9" d="M 290.5,65.5 C 292.735,66.2279 294.568,67.5612 296,69.5C 295.613,86.3087 293.613,102.975 290,119.5C 289.275,121.949 288.275,124.283 287,126.5C 286.184,127.823 285.017,128.489 283.5,128.5C 277.289,126.625 272.955,122.625 270.5,116.5C 271.097,116.265 271.43,115.765 271.5,115C 270.303,112.106 268.97,109.273 267.5,106.5C 271.373,104.069 275.04,101.402 278.5,98.5C 280.796,95.1449 282.13,90.8115 282.5,85.5C 283.5,85.5 284.5,85.5 285.5,85.5C 285.564,81.301 284.231,77.6343 281.5,74.5C 281.577,73.2502 282.244,72.4169 283.5,72C 282.185,70.6054 282.519,69.6054 284.5,69C 284.272,68.6012 283.938,68.4346 283.5,68.5C 284.066,66.9217 285.066,65.5884 286.5,64.5C 287.736,65.2458 289.07,65.5792 290.5,65.5 Z"/></g>
<g><path style="opacity:1" fill="#eb5d44" d="M 117.5,70.5 C 119.857,70.3367 122.19,70.5034 124.5,71C 123.259,74.3491 121.092,75.1824 118,73.5C 117.517,72.552 117.351,71.552 117.5,70.5 Z"/></g>
<g><path style="opacity:0.902" fill="#867265" d="M 283.5,68.5 C 283.938,68.4346 284.272,68.6012 284.5,69C 282.519,69.6054 282.185,70.6054 283.5,72C 282.244,72.4169 281.577,73.2502 281.5,74.5C 280.392,73.1773 280.392,71.6773 281.5,70C 281.836,68.9701 282.503,68.4701 283.5,68.5 Z"/></g>
<g><path style="opacity:0.975" fill="#ec7458" d="M 111.5,73.5 C 111.427,75.0269 112.094,76.0269 113.5,76.5C 112.866,77.9468 111.699,78.6134 110,78.5C 108.624,78.3158 107.791,77.6491 107.5,76.5C 108.338,76.1583 108.672,75.4916 108.5,74.5C 109.222,74.0825 109.722,73.4158 110,72.5C 110.383,73.056 110.883,73.3893 111.5,73.5 Z"/></g>
<g><path style="opacity:1" fill="#50352d" d="M 111.5,73.5 C 113.368,74.2632 115.035,75.2632 116.5,76.5C 115.5,76.5 114.5,76.5 113.5,76.5C 112.094,76.0269 111.427,75.0269 111.5,73.5 Z"/></g>
<g><path style="opacity:1" fill="#dd6c55" d="M 127.5,73.5 C 127.557,74.609 127.89,75.609 128.5,76.5C 127.012,78.8454 125.012,79.1788 122.5,77.5C 123.507,75.478 125.174,74.1447 127.5,73.5 Z"/></g>
<g><path style="opacity:0.979" fill="#92bde4" d="M 111.5,80.5 C 111.5,85.1667 111.5,89.8333 111.5,94.5C 110.109,96.9596 108.942,99.6262 108,102.5C 107.581,101.328 106.915,100.328 106,99.5C 105.86,101.256 106.36,102.922 107.5,104.5C 106.626,106.747 106.292,109.08 106.5,111.5C 105.833,111.167 105.167,110.833 104.5,110.5C 104.5,107.833 104.5,105.167 104.5,102.5C 104.463,99.2984 102.797,97.6317 99.5,97.5C 97.0846,98.3052 94.7513,99.3052 92.5,100.5C 91.2488,97.5943 90.7488,94.5943 91,91.5C 92.0195,90.3128 93.1861,89.3128 94.5,88.5C 95.8149,90.3159 97.3149,91.9825 99,93.5C 98.7616,89.8913 98.5949,86.2246 98.5,82.5C 102.873,82.0183 107.206,81.3516 111.5,80.5 Z"/></g>
<g><path style="opacity:0.992" fill="#5a9c8f" d="M 244.5,80.5 C 244.611,81.1174 244.944,81.6174 245.5,82C 247.167,82.1667 248.833,82.3333 250.5,82.5C 253.205,82.6839 255.538,82.0173 257.5,80.5C 267.958,82.5496 274.958,88.5496 278.5,98.5C 275.04,101.402 271.373,104.069 267.5,106.5C 268.97,109.273 270.303,112.106 271.5,115C 271.43,115.765 271.097,116.265 270.5,116.5C 269.167,117.167 268.167,118.167 267.5,119.5C 267.167,119.5 266.833,119.5 266.5,119.5C 256.032,120.467 245.366,120.467 234.5,119.5C 232.782,118.776 230.948,118.109 229,117.5C 228.809,115.292 228.309,113.292 227.5,111.5C 229.189,108.825 229.523,106.158 228.5,103.5C 225.997,100.498 223.997,97.1649 222.5,93.5C 225.243,93.9228 226.576,92.7561 226.5,90C 226.316,88.6244 225.649,87.7911 224.5,87.5C 225.833,86.5 227.167,85.5 228.5,84.5C 233.514,82.0288 238.848,80.6955 244.5,80.5 Z"/></g>
<g><path style="opacity:0.979" fill="#8eb8e0" d="M 126.5,81.5 C 126.5,81.1667 126.5,80.8333 126.5,80.5C 132.814,80.9602 138.814,82.2935 144.5,84.5C 144.817,87.5719 144.484,90.5719 143.5,93.5C 141.812,94.5213 140.479,95.8546 139.5,97.5C 138.508,97.3284 137.842,97.6618 137.5,98.5C 135.5,98.5 133.5,98.5 131.5,98.5C 130.386,97.1147 129.386,95.6147 128.5,94C 130.332,93.2515 131.999,92.2515 133.5,91C 131.837,90.7351 130.337,91.2351 129,92.5C 128.505,90.5273 128.338,88.5273 128.5,86.5C 129.478,86.189 130.145,85.5223 130.5,84.5C 129.923,82.4501 128.59,81.4501 126.5,81.5 Z"/></g>
<g><path style="opacity:1" fill="#0e1715" d="M 234.5,84.5 C 238.986,82.8231 240.319,84.3231 238.5,89C 236.934,89.765 235.601,89.5983 234.5,88.5C 236.346,88.7778 237.68,88.1112 238.5,86.5C 237.68,84.8888 236.346,84.2222 234.5,84.5 Z"/></g>
<g><path style="opacity:0.996" fill="#77bcaf" d="M 147.5,84.5 C 152.511,84.3341 157.511,84.5007 162.5,85C 165.162,87.6031 167.495,87.6031 169.5,85C 177.493,84.5003 185.493,84.3336 193.5,84.5C 195.133,93.3919 196.966,102.392 199,111.5C 199.833,112.5 200.667,113.5 201.5,114.5C 212.68,116.074 221.68,112.407 228.5,103.5C 229.523,106.158 229.189,108.825 227.5,111.5C 224.839,115.351 223.839,119.684 224.5,124.5C 220.229,126.973 215.896,129.473 211.5,132C 207.254,134.607 205.421,138.44 206,143.5C 201.803,151.894 197.636,160.227 193.5,168.5C 183.833,168.5 174.167,168.5 164.5,168.5C 169.096,156.713 173.096,144.713 176.5,132.5C 175.02,128.375 173.687,124.209 172.5,120C 173.719,113.867 174.219,107.7 174,101.5C 171.805,98.0375 168.639,96.7042 164.5,97.5C 164.047,95.4348 163.047,93.7682 161.5,92.5C 160.738,90.7376 159.404,89.7376 157.5,89.5C 156.486,88.3263 155.153,87.6596 153.5,87.5C 153.167,87.5 152.833,87.5 152.5,87.5C 150.739,86.6873 149.072,85.6873 147.5,84.5 Z"/></g>
<g><path style="opacity:0.954" fill="#76baac" d="M 208.5,84.5 C 215.167,84.5 221.833,84.5 228.5,84.5C 227.167,85.5 225.833,86.5 224.5,87.5C 225.234,88.7079 225.567,90.0413 225.5,91.5C 224.167,91.5 222.833,91.5 221.5,91.5C 217.455,91.233 213.955,92.8997 211,96.5C 209.53,92.6224 208.697,88.6224 208.5,84.5 Z"/></g>
<g><path style="opacity:1" fill="#90bce3" d="M 145.5,84.5 C 146.167,84.5 146.833,84.5 147.5,84.5C 149.072,85.6873 150.739,86.6873 152.5,87.5C 150.893,89.7396 148.727,91.4063 146,92.5C 145.503,89.854 145.336,87.1873 145.5,84.5 Z"/></g>
<g><path style="opacity:1" fill="#14211e" d="M 234.5,84.5 C 234.5,85.8333 234.5,87.1667 234.5,88.5C 231.833,87.1667 231.833,85.8333 234.5,84.5 Z"/></g>
<g><path style="opacity:1" fill="#529185" d="M 234.5,84.5 C 236.346,84.2222 237.68,84.8888 238.5,86.5C 237.68,88.1112 236.346,88.7778 234.5,88.5C 234.5,87.1667 234.5,85.8333 234.5,84.5 Z"/></g>
<g><path style="opacity:1" fill="#91bde7" d="M 119.5,95.5 C 117.513,98.5982 116.513,102.098 116.5,106C 117.006,110.536 117.673,115.036 118.5,119.5C 115.941,119.802 113.607,119.468 111.5,118.5C 111.611,113.554 110.944,108.721 109.5,104C 110.859,101.042 111.526,97.8757 111.5,94.5C 112.247,91.8503 113.247,89.1836 114.5,86.5C 116.925,87.3076 119.258,88.3076 121.5,89.5C 120.628,91.4496 119.961,93.4496 119.5,95.5 Z"/></g>
<g><path style="opacity:1" fill="#8ebae4" d="M 127.5,87.5 C 127.5,89.1667 127.5,90.8333 127.5,92.5C 125.784,92.3713 124.117,92.038 122.5,91.5C 122.787,88.5159 124.454,87.1826 127.5,87.5 Z"/></g>
<g><path style="opacity:1" fill="#5e7a94" d="M 98.5,82.5 C 98.5949,86.2246 98.7616,89.8913 99,93.5C 97.3149,91.9825 95.8149,90.3159 94.5,88.5C 93.1861,89.3128 92.0195,90.3128 91,91.5C 90.7488,94.5943 91.2488,97.5943 92.5,100.5C 92.5,101.167 92.8333,101.5 93.5,101.5C 93.9728,104.697 94.6394,107.863 95.5,111C 94.7511,113.497 94.0845,115.997 93.5,118.5C 92.8333,118.5 92.5,118.167 92.5,117.5C 93.5269,113.554 93.6936,109.554 93,105.5C 91.5226,101.57 90.3559,97.5701 89.5,93.5C 88.448,93.6495 87.448,93.4828 86.5,93C 88.0993,91.2137 88.9326,89.047 89,86.5C 89.3333,87.8333 89.6667,89.1667 90,90.5C 92.3333,88.4688 94.1666,86.1354 95.5,83.5C 96.609,83.4431 97.609,83.1098 98.5,82.5 Z"/></g>
<g><path style="opacity:1" fill="#455b70" d="M 128.5,86.5 C 128.338,88.5273 128.505,90.5273 129,92.5C 130.337,91.2351 131.837,90.7351 133.5,91C 131.999,92.2515 130.332,93.2515 128.5,94C 129.386,95.6147 130.386,97.1147 131.5,98.5C 129.436,98.2381 128.103,97.0714 127.5,95C 126.167,94.6667 124.833,94.3333 123.5,94C 122.748,93.3292 122.414,92.4959 122.5,91.5C 124.117,92.038 125.784,92.3713 127.5,92.5C 127.5,90.8333 127.5,89.1667 127.5,87.5C 127.5,86.8333 127.833,86.5 128.5,86.5 Z"/></g>
<g><path style="opacity:1" fill="#8db8e0" d="M 153.5,87.5 C 155.153,87.6596 156.486,88.3263 157.5,89.5C 152.532,89.8659 152.866,90.3659 158.5,91C 159.022,91.5613 159.355,92.228 159.5,93C 158.434,96.0937 157.768,99.2604 157.5,102.5C 154.461,101.99 151.461,101.323 148.5,100.5C 147.645,99.4693 146.978,98.3026 146.5,97C 149.097,93.9211 151.43,90.7545 153.5,87.5 Z"/></g>
<g><path style="opacity:1" fill="#1d2f2b" d="M 224.5,87.5 C 225.649,87.7911 226.316,88.6244 226.5,90C 226.576,92.7561 225.243,93.9228 222.5,93.5C 222.167,92.8333 221.833,92.1667 221.5,91.5C 222.833,91.5 224.167,91.5 225.5,91.5C 225.567,90.0413 225.234,88.7079 224.5,87.5 Z"/></g>
<g><path style="opacity:1" fill="#90bbe3" d="M 95.5,83.5 C 94.1666,86.1354 92.3333,88.4688 90,90.5C 89.6667,89.1667 89.3333,87.8333 89,86.5C 88.9326,89.047 88.0993,91.2137 86.5,93C 87.448,93.4828 88.448,93.6495 89.5,93.5C 90.3559,97.5701 91.5226,101.57 93,105.5C 93.6936,109.554 93.5269,113.554 92.5,117.5C 92.1667,117.5 91.8333,117.5 91.5,117.5C 90.1007,116.11 88.4341,115.11 86.5,114.5C 86.1667,113.5 85.5,112.833 84.5,112.5C 83.8333,111.5 83.1667,110.5 82.5,109.5C 82.7935,105.563 82.4601,101.73 81.5,98C 83.3963,96.9354 83.563,96.1021 82,95.5C 79.3318,96.7965 78.9985,98.4631 81,100.5C 81.4974,103.146 81.6641,105.813 81.5,108.5C 80.2905,108.068 79.2905,107.401 78.5,106.5C 78.9382,106.565 79.2716,106.399 79.5,106C 78.2668,104.333 76.9335,102.833 75.5,101.5C 74.5021,96.4645 75.8354,92.2978 79.5,89C 84.6062,86.4647 89.9396,84.6314 95.5,83.5 Z"/></g>
<g><path style="opacity:1" fill="#5078a2" d="M 111.5,80.5 C 112.833,80.5 114.167,80.5 115.5,80.5C 116.757,83.4274 118.757,85.7607 121.5,87.5C 123.164,85.5089 124.831,83.5089 126.5,81.5C 128.59,81.4501 129.923,82.4501 130.5,84.5C 130.145,85.5223 129.478,86.189 128.5,86.5C 127.833,86.5 127.5,86.8333 127.5,87.5C 124.454,87.1826 122.787,88.5159 122.5,91.5C 121.532,93.6074 121.198,95.9407 121.5,98.5C 123.199,98.3398 124.866,98.5065 126.5,99C 125.5,99.3333 124.5,99.6667 123.5,100C 124.34,101.666 123.84,101.833 122,100.5C 121.163,104.295 121.496,107.961 123,111.5C 124.707,113.037 126.207,114.704 127.5,116.5C 123.847,115.011 121.347,112.344 120,108.5C 120.313,103.999 120.146,99.6658 119.5,95.5C 119.961,93.4496 120.628,91.4496 121.5,89.5C 119.258,88.3076 116.925,87.3076 114.5,86.5C 113.247,89.1836 112.247,91.8503 111.5,94.5C 111.5,89.8333 111.5,85.1667 111.5,80.5 Z"/></g>
<g><path style="opacity:1" fill="#485d71" d="M 144.5,84.5 C 144.833,84.5 145.167,84.5 145.5,84.5C 145.336,87.1873 145.503,89.854 146,92.5C 148.727,91.4063 150.893,89.7396 152.5,87.5C 152.833,87.5 153.167,87.5 153.5,87.5C 151.43,90.7545 149.097,93.9211 146.5,97C 146.978,98.3026 147.645,99.4693 148.5,100.5C 146.551,99.8161 144.885,98.6494 143.5,97C 144.451,96.2825 144.617,95.4491 144,94.5C 142.871,96.1412 141.371,97.1412 139.5,97.5C 140.479,95.8546 141.812,94.5213 143.5,93.5C 144.484,90.5719 144.817,87.5719 144.5,84.5 Z"/></g>
<g><path style="opacity:1" fill="#79b9b5" d="M 148.5,100.5 C 148.5,100.833 148.5,101.167 148.5,101.5C 145.349,103.583 142.349,105.916 139.5,108.5C 138.619,105.87 137.952,103.203 137.5,100.5C 137.5,99.8333 137.5,99.1667 137.5,98.5C 137.842,97.6618 138.508,97.3284 139.5,97.5C 141.371,97.1412 142.871,96.1412 144,94.5C 144.617,95.4491 144.451,96.2825 143.5,97C 144.885,98.6494 146.551,99.8161 148.5,100.5 Z"/></g>
<g><path style="opacity:1" fill="#eaebeb" d="M 99.5,97.5 C 102.797,97.6317 104.463,99.2984 104.5,102.5C 102.806,103.527 101.473,104.861 100.5,106.5C 98.246,105.876 96.5794,104.543 95.5,102.5C 97.5869,101.415 98.9202,99.7488 99.5,97.5 Z"/></g>
<g><path style="opacity:1" fill="#141f1d" d="M 233.5,96.5 C 238.328,96.3852 239.661,98.5519 237.5,103C 236.101,103.595 234.768,103.428 233.5,102.5C 232.306,100.484 232.306,98.4844 233.5,96.5 Z"/></g>
<g><path style="opacity:1" fill="#518e82" d="M 234.5,97.5 C 236.912,97.6941 237.912,99.0274 237.5,101.5C 236.167,101.5 234.833,101.5 233.5,101.5C 233.433,100.041 233.766,98.7079 234.5,97.5 Z"/></g>
<g><path style="opacity:1" fill="#69a69d" d="M 99.5,97.5 C 98.9202,99.7488 97.5869,101.415 95.5,102.5C 94.8333,102.167 94.1667,101.833 93.5,101.5C 92.8333,101.5 92.5,101.167 92.5,100.5C 94.7513,99.3052 97.0846,98.3052 99.5,97.5 Z"/></g>
<g><path style="opacity:1" fill="#495f72" d="M 131.5,98.5 C 133.5,98.5 135.5,98.5 137.5,98.5C 137.5,99.1667 137.5,99.8333 137.5,100.5C 136.728,101.694 135.728,102.694 134.5,103.5C 134.414,102.504 134.748,101.671 135.5,101C 133.934,100.392 132.6,99.5585 131.5,98.5 Z"/></g>
<g><path style="opacity:1" fill="#8fbae3" d="M 122.5,91.5 C 122.414,92.4959 122.748,93.3292 123.5,94C 124.833,94.3333 126.167,94.6667 127.5,95C 128.103,97.0714 129.436,98.2381 131.5,98.5C 132.6,99.5585 133.934,100.392 135.5,101C 134.748,101.671 134.414,102.504 134.5,103.5C 132.171,104.749 130.338,104.082 129,101.5C 129.463,103.526 130.296,105.526 131.5,107.5C 130.899,111.041 129.566,114.041 127.5,116.5C 126.207,114.704 124.707,113.037 123,111.5C 121.496,107.961 121.163,104.295 122,100.5C 123.84,101.833 124.34,101.666 123.5,100C 124.5,99.6667 125.5,99.3333 126.5,99C 124.866,98.5065 123.199,98.3398 121.5,98.5C 121.198,95.9407 121.532,93.6074 122.5,91.5 Z"/></g>
<g><path style="opacity:0.978" fill="#ececeb" d="M 71.5,101.5 C 71.4142,102.496 71.7476,103.329 72.5,104C 74.4885,104.938 76.4885,105.772 78.5,106.5C 79.2905,107.401 80.2905,108.068 81.5,108.5C 81.5,109.167 81.8333,109.5 82.5,109.5C 83.1667,110.5 83.8333,111.5 84.5,112.5C 82.9317,113.473 81.265,113.64 79.5,113C 73.5684,109.866 67.5684,107.032 61.5,104.5C 64.6418,103.21 67.9752,102.21 71.5,101.5 Z"/></g>
<g><path style="opacity:1" fill="#6ca89d" d="M 71.5,101.5 C 72.8333,101.5 74.1667,101.5 75.5,101.5C 76.9335,102.833 78.2668,104.333 79.5,106C 79.2716,106.399 78.9382,106.565 78.5,106.5C 76.4885,105.772 74.4885,104.938 72.5,104C 71.7476,103.329 71.4142,102.496 71.5,101.5 Z"/></g>
<g><path style="opacity:1" fill="#617e99" d="M 119.5,95.5 C 118.205,103.493 118.205,111.493 119.5,119.5C 119.167,119.5 118.833,119.5 118.5,119.5C 117.673,115.036 117.006,110.536 116.5,106C 116.513,102.098 117.513,98.5982 119.5,95.5 Z"/></g>
<g><path style="opacity:1" fill="#4a6075" d="M 134.5,103.5 C 132.06,108.364 131.06,113.364 131.5,118.5C 130.833,118.5 130.167,118.5 129.5,118.5C 128.5,118.167 127.833,117.5 127.5,116.5C 129.566,114.041 130.899,111.041 131.5,107.5C 130.296,105.526 129.463,103.526 129,101.5C 130.338,104.082 132.171,104.749 134.5,103.5 Z"/></g>
<g><path style="opacity:1" fill="#91bbe1" d="M 137.5,100.5 C 137.952,103.203 138.619,105.87 139.5,108.5C 142.349,105.916 145.349,103.583 148.5,101.5C 150.993,102.774 153.659,103.44 156.5,103.5C 154.793,111.208 150.126,115.874 142.5,117.5C 140.161,115.827 138.161,113.827 136.5,111.5C 132.848,114.176 131.514,117.842 132.5,122.5C 131.566,121.432 131.232,120.099 131.5,118.5C 131.06,113.364 132.06,108.364 134.5,103.5C 135.728,102.694 136.728,101.694 137.5,100.5 Z"/></g>
<g><path style="opacity:1" fill="#44596b" d="M 157.5,89.5 C 159.404,89.7376 160.738,90.7376 161.5,92.5C 160.133,95.268 159.133,98.268 158.5,101.5C 159.376,102.251 160.376,102.751 161.5,103C 159.866,103.494 158.199,103.66 156.5,103.5C 153.659,103.44 150.993,102.774 148.5,101.5C 148.5,101.167 148.5,100.833 148.5,100.5C 151.461,101.323 154.461,101.99 157.5,102.5C 157.768,99.2604 158.434,96.0937 159.5,93C 159.355,92.228 159.022,91.5613 158.5,91C 152.866,90.3659 152.532,89.8659 157.5,89.5 Z"/></g>
<g><path style="opacity:1" fill="#94bee5" d="M 93.5,101.5 C 94.1667,101.833 94.8333,102.167 95.5,102.5C 96.5794,104.543 98.246,105.876 100.5,106.5C 102.279,107.67 103.279,109.336 103.5,111.5C 102.079,114.009 100.412,116.343 98.5,118.5C 97.2921,119.234 95.9587,119.567 94.5,119.5C 94.5,118.833 94.1667,118.5 93.5,118.5C 94.0845,115.997 94.7511,113.497 95.5,111C 94.6394,107.863 93.9728,104.697 93.5,101.5 Z"/></g>
<g><path style="opacity:1" fill="#649993" d="M 104.5,102.5 C 104.5,105.167 104.5,107.833 104.5,110.5C 104.5,111.167 104.167,111.5 103.5,111.5C 103.279,109.336 102.279,107.67 100.5,106.5C 101.473,104.861 102.806,103.527 104.5,102.5 Z"/></g>
<g><path style="opacity:1" fill="#7da3c8" d="M 161.5,92.5 C 163.047,93.7682 164.047,95.4348 164.5,97.5C 163.31,106.035 158.976,112.535 151.5,117C 148.809,118.605 146.142,120.105 143.5,121.5C 142.566,120.432 142.232,119.099 142.5,117.5C 150.126,115.874 154.793,111.208 156.5,103.5C 158.199,103.66 159.866,103.494 161.5,103C 160.376,102.751 159.376,102.251 158.5,101.5C 159.133,98.268 160.133,95.268 161.5,92.5 Z"/></g>
<g><path style="opacity:1" fill="#51697f" d="M 82.5,109.5 C 81.8333,109.5 81.5,109.167 81.5,108.5C 81.6641,105.813 81.4974,103.146 81,100.5C 78.9985,98.4631 79.3318,96.7965 82,95.5C 83.563,96.1021 83.3963,96.9354 81.5,98C 82.4601,101.73 82.7935,105.563 82.5,109.5 Z"/></g>
<g><path style="opacity:1" fill="#67a699" d="M 61.5,104.5 C 67.5684,107.032 73.5684,109.866 79.5,113C 81.265,113.64 82.9317,113.473 84.5,112.5C 85.5,112.833 86.1667,113.5 86.5,114.5C 85.5244,115.815 84.5244,117.148 83.5,118.5C 74.8072,114.486 66.1405,110.486 57.5,106.5C 58.5137,105.326 59.847,104.66 61.5,104.5 Z"/></g>
<g><path style="opacity:1" fill="#5d7891" d="M 111.5,94.5 C 111.526,97.8757 110.859,101.042 109.5,104C 110.944,108.721 111.611,113.554 111.5,118.5C 111.167,118.5 110.833,118.5 110.5,118.5C 110.369,114.346 109.536,110.346 108,106.5C 107.505,108.473 107.338,110.473 107.5,112.5C 106.833,112.5 106.5,112.167 106.5,111.5C 106.292,109.08 106.626,106.747 107.5,104.5C 106.36,102.922 105.86,101.256 106,99.5C 106.915,100.328 107.581,101.328 108,102.5C 108.942,99.6262 110.109,96.9596 111.5,94.5 Z"/></g>
<g><path style="opacity:0.995" fill="#edecec" d="M 57.5,106.5 C 66.1405,110.486 74.8072,114.486 83.5,118.5C 84.5244,117.148 85.5244,115.815 86.5,114.5C 88.4341,115.11 90.1007,116.11 91.5,117.5C 89.5727,120.767 87.2394,123.767 84.5,126.5C 74.9301,121.88 65.2634,117.547 55.5,113.5C 55.3939,110.921 56.0605,108.588 57.5,106.5 Z"/></g>
<g><path style="opacity:1" fill="#93b6d7" d="M 110.5,118.5 C 110.737,119.791 110.404,120.791 109.5,121.5C 109.793,118.246 109.126,115.246 107.5,112.5C 107.338,110.473 107.505,108.473 108,106.5C 109.536,110.346 110.369,114.346 110.5,118.5 Z"/></g>
<g><path style="opacity:1" fill="#f2d1bb" d="M 104.5,110.5 C 105.167,110.833 105.833,111.167 106.5,111.5C 106.5,112.167 106.833,112.5 107.5,112.5C 109.126,115.246 109.793,118.246 109.5,121.5C 108.895,124.127 108.395,126.793 108,129.5C 107.329,130.252 106.496,130.586 105.5,130.5C 105.649,129.448 105.483,128.448 105,127.5C 103.954,129.09 102.787,130.59 101.5,132C 99.6577,131.932 97.991,132.099 96.5,132.5C 95.7777,131.449 94.7777,130.782 93.5,130.5C 93.3773,128.792 93.0439,126.959 92.5,125C 94.8987,123.02 96.8987,120.853 98.5,118.5C 100.412,116.343 102.079,114.009 103.5,111.5C 104.167,111.5 104.5,111.167 104.5,110.5 Z"/></g>
<g><path style="opacity:1" fill="#eccbb7" d="M 142.5,117.5 C 142.232,119.099 142.566,120.432 143.5,121.5C 144.458,122.962 145.624,124.295 147,125.5C 147.617,126.449 147.451,127.282 146.5,128C 147.357,128.689 148.023,129.522 148.5,130.5C 144.99,133.98 141.657,133.98 138.5,130.5C 136.694,131.859 135.194,131.525 134,129.5C 133.338,127.187 132.838,124.854 132.5,122.5C 131.514,117.842 132.848,114.176 136.5,111.5C 138.161,113.827 140.161,115.827 142.5,117.5 Z"/></g>
<g><path style="opacity:1" fill="#131f1d" d="M 237.5,111.5 C 241.945,110.873 243.612,112.54 242.5,116.5C 237.134,118.468 235.468,116.801 237.5,111.5 Z"/></g>
<g><path style="opacity:1" fill="#e56b55" d="M 227.5,111.5 C 228.309,113.292 228.809,115.292 229,117.5C 230.948,118.109 232.782,118.776 234.5,119.5C 233.167,120.5 231.833,121.5 230.5,122.5C 228.5,123.167 226.5,123.833 224.5,124.5C 223.839,119.684 224.839,115.351 227.5,111.5 Z"/></g>
<g><path style="opacity:1" fill="#518e82" d="M 238.5,112.5 C 239.5,112.5 240.5,112.5 241.5,112.5C 241.5,113.833 241.5,115.167 241.5,116.5C 238.046,116.733 237.046,115.4 238.5,112.5 Z"/></g>
<g><path style="opacity:1" fill="#65a597" d="M 55.5,113.5 C 65.2634,117.547 74.9301,121.88 84.5,126.5C 87.2394,123.767 89.5727,120.767 91.5,117.5C 91.8333,117.5 92.1667,117.5 92.5,117.5C 92.5,118.167 92.8333,118.5 93.5,118.5C 94.1667,118.5 94.5,118.833 94.5,119.5C 91.8449,123.652 88.6782,127.318 85,130.5C 76.1843,126.398 67.351,122.398 58.5,118.5C 57.8333,117.833 57.1667,117.167 56.5,116.5C 56.4431,115.391 56.1098,114.391 55.5,113.5 Z"/></g>
<g><path style="opacity:0.992" fill="#77bdaf" d="M 56.5,116.5 C 57.1667,117.167 57.8333,117.833 58.5,118.5C 57.2584,120.389 57.2584,122.389 58.5,124.5C 58.5,125.833 58.5,127.167 58.5,128.5C 58.22,131.272 58.8866,133.772 60.5,136C 69.188,140.263 78.0213,144.096 87,147.5C 89.2527,147.369 91.4194,146.869 93.5,146C 96.8265,141.154 100.493,136.654 104.5,132.5C 104.5,134.5 104.5,136.5 104.5,138.5C 102.4,140.498 100.4,142.665 98.5,145C 100.179,145.395 101.845,145.228 103.5,144.5C 104.713,144.253 105.38,143.586 105.5,142.5C 106.316,144.144 107.65,145.31 109.5,146C 121.5,146.667 133.5,146.667 145.5,146C 149.535,144.933 153.535,143.766 157.5,142.5C 157.833,142.833 158.167,143.167 158.5,143.5C 153.568,151.699 148.901,160.032 144.5,168.5C 132.833,168.5 121.167,168.5 109.5,168.5C 106.167,168.167 102.833,167.833 99.5,167.5C 90.0508,165.958 80.3841,165.292 70.5,165.5C 62.4673,165.548 54.4673,165.881 46.5,166.5C 46.3334,152.496 46.5001,138.496 47,124.5C 47.2734,122.899 47.7734,121.399 48.5,120C 51.0711,118.546 53.7378,117.38 56.5,116.5 Z"/></g>
<g><path style="opacity:0.998" fill="#77bdaf" d="M 270.5,116.5 C 272.955,122.625 277.289,126.625 283.5,128.5C 283.5,129.833 283.5,131.167 283.5,132.5C 280.233,134.811 276.9,137.144 273.5,139.5C 277.854,143.188 281.854,147.188 285.5,151.5C 284.673,156.651 284.173,161.984 284,167.5C 279.263,168.469 274.43,168.803 269.5,168.5C 266.833,168.5 264.167,168.5 261.5,168.5C 254.833,168.5 248.167,168.5 241.5,168.5C 238.121,161.544 234.454,154.711 230.5,148C 240.167,147.667 249.833,147.333 259.5,147C 266.569,144.541 270.235,139.541 270.5,132C 270.01,127.7 269.01,123.534 267.5,119.5C 268.167,118.167 269.167,117.167 270.5,116.5 Z"/></g>
<g><path style="opacity:1" fill="#7dabd9" d="M 119.5,95.5 C 120.146,99.6658 120.313,103.999 120,108.5C 121.347,112.344 123.847,115.011 127.5,116.5C 127.833,117.5 128.5,118.167 129.5,118.5C 126.375,119.479 123.042,119.813 119.5,119.5C 118.205,111.493 118.205,103.493 119.5,95.5 Z"/></g>
<g><path style="opacity:1" fill="#3b74b0" d="M 164.5,97.5 C 168.639,96.7042 171.805,98.0375 174,101.5C 174.219,107.7 173.719,113.867 172.5,120C 173.687,124.209 175.02,128.375 176.5,132.5C 173.096,144.713 169.096,156.713 164.5,168.5C 162.071,174.367 159.905,180.367 158,186.5C 156.989,187.337 155.822,187.67 154.5,187.5C 150.72,186.718 147.387,185.052 144.5,182.5C 143.376,180.208 142.043,178.042 140.5,176C 141.457,173.251 142.79,170.751 144.5,168.5C 148.901,160.032 153.568,151.699 158.5,143.5C 158.167,143.167 157.833,142.833 157.5,142.5C 153.535,143.766 149.535,144.933 145.5,146C 133.5,146.667 121.5,146.667 109.5,146C 107.65,145.31 106.316,144.144 105.5,142.5C 105.167,141.167 104.833,139.833 104.5,138.5C 104.5,136.5 104.5,134.5 104.5,132.5C 104.833,131.833 105.167,131.167 105.5,130.5C 106.496,130.586 107.329,130.252 108,129.5C 108.395,126.793 108.895,124.127 109.5,121.5C 110.404,120.791 110.737,119.791 110.5,118.5C 110.833,118.5 111.167,118.5 111.5,118.5C 113.607,119.468 115.941,119.802 118.5,119.5C 118.833,119.5 119.167,119.5 119.5,119.5C 123.042,119.813 126.375,119.479 129.5,118.5C 130.167,118.5 130.833,118.5 131.5,118.5C 131.232,120.099 131.566,121.432 132.5,122.5C 132.838,124.854 133.338,127.187 134,129.5C 135.194,131.525 136.694,131.859 138.5,130.5C 141.657,133.98 144.99,133.98 148.5,130.5C 148.023,129.522 147.357,128.689 146.5,128C 147.451,127.282 147.617,126.449 147,125.5C 145.624,124.295 144.458,122.962 143.5,121.5C 146.142,120.105 148.809,118.605 151.5,117C 158.976,112.535 163.31,106.035 164.5,97.5 Z"/></g>
<g><path style="opacity:1" fill="#ecebeb" d="M 58.5,118.5 C 67.351,122.398 76.1843,126.398 85,130.5C 88.6782,127.318 91.8449,123.652 94.5,119.5C 95.9587,119.567 97.2921,119.234 98.5,118.5C 96.8987,120.853 94.8987,123.02 92.5,125C 93.0439,126.959 93.3773,128.792 93.5,130.5C 91.4698,133.028 89.3032,135.361 87,137.5C 77.6315,132.877 68.1315,128.544 58.5,124.5C 57.2584,122.389 57.2584,120.389 58.5,118.5 Z"/></g>
<g><path style="opacity:1" fill="#121212" d="M 266.5,119.5 C 266.833,119.5 267.167,119.5 267.5,119.5C 269.01,123.534 270.01,127.7 270.5,132C 270.235,139.541 266.569,144.541 259.5,147C 249.833,147.333 240.167,147.667 230.5,148C 234.454,154.711 238.121,161.544 241.5,168.5C 244.344,173.184 246.344,178.184 247.5,183.5C 245.938,183.733 244.605,184.4 243.5,185.5C 238.391,172.614 232.224,160.281 225,148.5C 223.605,148.78 222.438,149.447 221.5,150.5C 219.799,155.276 218.133,159.943 216.5,164.5C 213.573,172.449 210.907,180.615 208.5,189C 208.164,190.03 207.497,190.53 206.5,190.5C 205.167,189.833 203.833,189.167 202.5,188.5C 206.06,177.649 209.56,166.649 213,155.5C 214.787,151.423 216.954,147.59 219.5,144C 221.717,142.725 224.051,141.725 226.5,141C 237.674,140.047 248.674,138.214 259.5,135.5C 261.411,135.426 262.578,134.426 263,132.5C 263.629,128.129 263.463,123.796 262.5,119.5C 263.833,119.5 265.167,119.5 266.5,119.5 Z"/></g>
<g><path style="opacity:1" fill="#050505" d="M 259.5,135.5 C 248.674,138.214 237.674,140.047 226.5,141C 224.051,141.725 221.717,142.725 219.5,144C 216.954,147.59 214.787,151.423 213,155.5C 209.56,166.649 206.06,177.649 202.5,188.5C 197.5,187.833 192.5,187.167 187.5,186.5C 186.903,186.265 186.57,185.765 186.5,185C 189.265,179.641 191.599,174.141 193.5,168.5C 197.636,160.227 201.803,151.894 206,143.5C 205.421,138.44 207.254,134.607 211.5,132C 215.896,129.473 220.229,126.973 224.5,124.5C 226.5,123.833 228.5,123.167 230.5,122.5C 233.666,122.234 236.833,121.901 240,121.5C 241.981,121.629 243.647,122.296 245,123.5C 246.18,122.316 247.68,121.649 249.5,121.5C 251.32,121.649 252.82,122.316 254,123.5C 254.483,122.552 254.649,121.552 254.5,120.5C 256.833,120.5 259.167,120.5 261.5,120.5C 263.364,125.929 262.697,130.929 259.5,135.5 Z"/></g>
<g><path style="opacity:1" fill="#65a598" d="M 58.5,124.5 C 68.1315,128.544 77.6315,132.877 87,137.5C 89.3032,135.361 91.4698,133.028 93.5,130.5C 94.7777,130.782 95.7777,131.449 96.5,132.5C 94.832,134.34 93.332,136.34 92,138.5C 90.8829,140.124 89.3829,141.124 87.5,141.5C 77.8984,136.968 68.2317,132.635 58.5,128.5C 58.5,127.167 58.5,125.833 58.5,124.5 Z"/></g>
<g><path style="opacity:1" fill="#3b3c3c" d="M 266.5,119.5 C 265.167,119.5 263.833,119.5 262.5,119.5C 263.463,123.796 263.629,128.129 263,132.5C 262.578,134.426 261.411,135.426 259.5,135.5C 262.697,130.929 263.364,125.929 261.5,120.5C 259.167,120.5 256.833,120.5 254.5,120.5C 254.649,121.552 254.483,122.552 254,123.5C 252.82,122.316 251.32,121.649 249.5,121.5C 247.68,121.649 246.18,122.316 245,123.5C 243.647,122.296 241.981,121.629 240,121.5C 236.833,121.901 233.666,122.234 230.5,122.5C 231.833,121.5 233.167,120.5 234.5,119.5C 245.366,120.467 256.032,120.467 266.5,119.5 Z"/></g>
<g><path style="opacity:1" fill="#edeceb" d="M 105.5,130.5 C 105.167,131.167 104.833,131.833 104.5,132.5C 100.493,136.654 96.8265,141.154 93.5,146C 91.4194,146.869 89.2527,147.369 87,147.5C 78.0213,144.096 69.188,140.263 60.5,136C 58.8866,133.772 58.22,131.272 58.5,128.5C 68.2317,132.635 77.8984,136.968 87.5,141.5C 89.3829,141.124 90.8829,140.124 92,138.5C 93.332,136.34 94.832,134.34 96.5,132.5C 97.991,132.099 99.6577,131.932 101.5,132C 102.787,130.59 103.954,129.09 105,127.5C 105.483,128.448 105.649,129.448 105.5,130.5 Z"/></g>
<g><path style="opacity:0.952" fill="#599c8e" d="M 315.5,164.5 C 315.5,164.833 315.5,165.167 315.5,165.5C 314.508,165.672 313.842,165.338 313.5,164.5C 313.5,163.833 313.167,163.5 312.5,163.5C 312.5,162.5 312.5,161.5 312.5,160.5C 308.731,160.756 305.064,160.423 301.5,159.5C 300.5,159.5 299.5,159.5 298.5,159.5C 298.5,158.833 298.167,158.5 297.5,158.5C 293.929,157.071 291.262,154.737 289.5,151.5C 289.214,149.067 288.548,149.067 287.5,151.5C 286.833,151.5 286.167,151.5 285.5,151.5C 281.854,147.188 277.854,143.188 273.5,139.5C 276.9,137.144 280.233,134.811 283.5,132.5C 296.061,129.537 305.561,133.537 312,144.5C 312.836,151.29 314.002,157.957 315.5,164.5 Z M 289.5,151.5 C 288.833,151.5 288.167,151.5 287.5,151.5C 288.548,149.067 289.214,149.067 289.5,151.5 Z"/></g>
<g><path style="opacity:0.927" fill="#589c8e" d="M 321.5,166.5 C 320.833,166.5 320.167,166.5 319.5,166.5C 319.5,166.167 319.5,165.833 319.5,165.5C 321.27,164.236 322.937,162.736 324.5,161C 323.406,151.36 327.24,144.194 336,139.5C 336.333,140.5 336.667,141.5 337,142.5C 337.9,140.602 339.066,138.936 340.5,137.5C 341.086,137.709 341.586,138.043 342,138.5C 354.481,132.828 358.481,136.494 354,149.5C 348.101,161.578 338.601,166.245 325.5,163.5C 324.148,164.524 322.815,165.524 321.5,166.5 Z"/></g>
<g><path style="opacity:1" fill="#e6e8e8" d="M 104.5,138.5 C 104.833,139.833 105.167,141.167 105.5,142.5C 105.38,143.586 104.713,144.253 103.5,144.5C 101.845,145.228 100.179,145.395 98.5,145C 100.4,142.665 102.4,140.498 104.5,138.5 Z"/></g>
<g><path style="opacity:1" fill="#edecec" d="M 60.5,140.5 C 67.0481,142.772 73.3814,145.606 79.5,149C 74.6021,150.625 69.6021,151.291 64.5,151C 61.1295,148.303 59.7962,144.803 60.5,140.5 Z"/></g>
<g><path style="opacity:1" fill="#040303" d="M 243.5,185.5 C 239.628,187.597 235.961,189.931 232.5,192.5C 231.504,192.414 230.671,192.748 230,193.5C 225.397,183.846 220.897,174.18 216.5,164.5C 218.133,159.943 219.799,155.276 221.5,150.5C 222.438,149.447 223.605,148.78 225,148.5C 232.224,160.281 238.391,172.614 243.5,185.5 Z"/></g>
<g><path style="opacity:0.996" fill="#fdf3ec" d="M 285.5,151.5 C 286.167,151.5 286.833,151.5 287.5,151.5C 288.167,151.5 288.833,151.5 289.5,151.5C 291.262,154.737 293.929,157.071 297.5,158.5C 298.167,158.5 298.5,158.833 298.5,159.5C 299.5,160.833 300.5,160.833 301.5,159.5C 305.064,160.423 308.731,160.756 312.5,160.5C 312.5,161.5 312.5,162.5 312.5,163.5C 309.813,163.336 307.146,163.503 304.5,164C 305.381,164.708 306.047,165.542 306.5,166.5C 303.293,168.547 300.959,171.381 299.5,175C 300.27,176.775 301.437,178.275 303,179.5C 303.979,184.69 301.813,187.356 296.5,187.5C 296.5,190.833 296.5,194.167 296.5,197.5C 299.167,197.5 301.833,197.5 304.5,197.5C 304.644,192.187 307.31,190.021 312.5,191C 314.439,192.432 315.772,194.265 316.5,196.5C 320.97,197.486 325.637,197.819 330.5,197.5C 330.808,195.076 330.474,192.743 329.5,190.5C 328.893,190.624 328.56,190.957 328.5,191.5C 323.67,191.926 321.003,189.759 320.5,185C 321.502,180.169 324.502,177.669 329.5,177.5C 331.665,177.116 333.332,177.783 334.5,179.5C 333.68,181.111 332.346,181.778 330.5,181.5C 330.286,183.144 330.62,184.644 331.5,186C 335.5,186.333 339.5,186.667 343.5,187C 344.973,187.71 345.64,188.876 345.5,190.5C 342.813,190.336 340.146,190.503 337.5,191C 340.833,193.667 344.167,196.333 347.5,199C 352.5,199.333 357.5,199.667 362.5,200C 363.337,201.011 363.67,202.178 363.5,203.5C 360.15,203.335 356.817,203.502 353.5,204C 356.5,206.333 359.5,208.667 362.5,211C 366.585,211.233 370.585,211.733 374.5,212.5C 374.5,212.833 374.5,213.167 374.5,213.5C 287.904,214.497 201.237,214.83 114.5,214.5C 114.804,213.85 115.137,213.183 115.5,212.5C 112.153,205.807 108.82,199.14 105.5,192.5C 110.083,191.108 114.749,189.608 119.5,188C 122.586,186.907 125.086,185.074 127,182.5C 127.758,180.231 127.591,178.064 126.5,176C 121.128,172.607 115.462,170.107 109.5,168.5C 121.167,168.5 132.833,168.5 144.5,168.5C 142.79,170.751 141.457,173.251 140.5,176C 142.043,178.042 143.376,180.208 144.5,182.5C 144.189,183.478 143.522,184.145 142.5,184.5C 141.504,190.463 141.171,196.463 141.5,202.5C 144.505,202.747 147.005,201.747 149,199.5C 151.656,195.856 153.489,191.856 154.5,187.5C 155.822,187.67 156.989,187.337 158,186.5C 159.905,180.367 162.071,174.367 164.5,168.5C 174.167,168.5 183.833,168.5 193.5,168.5C 191.599,174.141 189.265,179.641 186.5,185C 186.57,185.765 186.903,186.265 187.5,186.5C 187.703,188.39 187.037,189.89 185.5,191C 182.638,191.27 179.972,192.104 177.5,193.5C 185.836,196.801 194.502,198.634 203.5,199C 204.424,196.135 205.424,193.302 206.5,190.5C 207.497,190.53 208.164,190.03 208.5,189C 210.907,180.615 213.573,172.449 216.5,164.5C 220.897,174.18 225.397,183.846 230,193.5C 230.671,192.748 231.504,192.414 232.5,192.5C 232.662,194.527 232.495,196.527 232,198.5C 229.591,200.309 228.591,202.642 229,205.5C 235.261,201.618 241.761,198.118 248.5,195C 249.728,194.221 250.728,193.221 251.5,192C 250.289,189.08 248.956,186.247 247.5,183.5C 246.344,178.184 244.344,173.184 241.5,168.5C 248.167,168.5 254.833,168.5 261.5,168.5C 263.637,174.373 265.47,180.373 267,186.5C 269.8,188.118 271.3,187.285 271.5,184C 270.8,178.826 270.133,173.659 269.5,168.5C 274.43,168.803 279.263,168.469 284,167.5C 284.173,161.984 284.673,156.651 285.5,151.5 Z"/></g>
<g><path style="opacity:0.992" fill="#cdb2aa" d="M 99.5,167.5 C 102.833,167.833 106.167,168.167 109.5,168.5C 115.462,170.107 121.128,172.607 126.5,176C 127.591,178.064 127.758,180.231 127,182.5C 125.086,185.074 122.586,186.907 119.5,188C 114.749,189.608 110.083,191.108 105.5,192.5C 102.615,192.194 99.9479,192.527 97.5,193.5C 80.8024,194.715 64.1358,194.715 47.5,193.5C 44.0032,192.598 40.3366,191.931 36.5,191.5C 35.8333,191.5 35.5,191.833 35.5,192.5C 35.1583,193.338 34.4916,193.672 33.5,193.5C 33.5858,192.504 33.2524,191.671 32.5,191C 26.8015,189.932 21.8015,187.432 17.5,183.5C 16.4557,181.232 16.289,178.899 17,176.5C 20.0808,173.707 23.5808,171.54 27.5,170C 33.7606,168.351 40.0939,167.184 46.5,166.5C 54.4673,165.881 62.4673,165.548 70.5,165.5C 80.3841,165.292 90.0508,165.958 99.5,167.5 Z"/></g>
<g><path style="opacity:0.989" fill="#f0705a" d="M 313.5,164.5 C 313.842,165.338 314.508,165.672 315.5,165.5C 316.062,169.068 317.395,169.402 319.5,166.5C 320.167,166.5 320.833,166.5 321.5,166.5C 325.292,169.3 327.959,172.967 329.5,177.5C 324.502,177.669 321.502,180.169 320.5,185C 321.003,189.759 323.67,191.926 328.5,191.5C 329.451,192.919 329.784,194.585 329.5,196.5C 325.167,196.5 320.833,196.5 316.5,196.5C 315.772,194.265 314.439,192.432 312.5,191C 307.31,190.021 304.644,192.187 304.5,197.5C 301.833,197.5 299.167,197.5 296.5,197.5C 296.5,194.167 296.5,190.833 296.5,187.5C 301.813,187.356 303.979,184.69 303,179.5C 301.437,178.275 300.27,176.775 299.5,175C 300.959,171.381 303.293,168.547 306.5,166.5C 308.701,165.434 311.035,164.767 313.5,164.5 Z"/></g>
<g><path style="opacity:1" fill="#ea7059" d="M 315.5,164.5 C 316.708,165.234 318.041,165.567 319.5,165.5C 319.5,165.833 319.5,166.167 319.5,166.5C 317.395,169.402 316.062,169.068 315.5,165.5C 315.5,165.167 315.5,164.833 315.5,164.5 Z"/></g>
<g><path style="opacity:1" fill="#cfb4ad" d="M 261.5,168.5 C 264.167,168.5 266.833,168.5 269.5,168.5C 270.133,173.659 270.8,178.826 271.5,184C 271.3,187.285 269.8,188.118 267,186.5C 265.47,180.373 263.637,174.373 261.5,168.5 Z"/></g>
<g><path style="opacity:1" fill="#e54c34" d="M 307.5,168.5 C 310.247,168.187 312.914,168.52 315.5,169.5C 313.291,172.566 310.457,173.232 307,171.5C 306.53,170.423 306.697,169.423 307.5,168.5 Z"/></g>
<g><path style="opacity:1" fill="#e2d3c4" d="M 73.5,171.5 C 67.7358,174.748 62.0691,178.248 56.5,182C 49.5079,182.5 42.5079,182.666 35.5,182.5C 41.2659,178.441 47.2659,174.608 53.5,171C 60.3464,170.179 67.013,170.346 73.5,171.5 Z"/></g>
<g><path style="opacity:1" fill="#ee725d" d="M 99.5,167.5 C 101.109,168.771 102.942,169.771 105,170.5C 105.667,172.167 105.667,173.833 105,175.5C 95.0824,182.718 90.7491,180.384 92,168.5C 94.3806,167.565 96.8806,167.232 99.5,167.5 Z"/></g>
<g><path style="opacity:1" fill="#cfada5" d="M 101.5,171.5 C 102.5,171.5 103.5,171.5 104.5,171.5C 104.778,173.346 104.111,174.68 102.5,175.5C 101.571,174.311 101.238,172.978 101.5,171.5 Z"/></g>
<g><path style="opacity:1" fill="#f0eae8" d="M 73.5,171.5 C 73.762,172.978 73.4287,174.311 72.5,175.5C 67.8756,177.966 63.8756,181.133 60.5,185C 52.4236,187.326 44.0903,188.159 35.5,187.5C 35.5,185.833 35.5,184.167 35.5,182.5C 42.5079,182.666 49.5079,182.5 56.5,182C 62.0691,178.248 67.7358,174.748 73.5,171.5 Z"/></g>
<g><path style="opacity:1" fill="#f2735d" d="M 144.5,182.5 C 147.387,185.052 150.72,186.718 154.5,187.5C 153.489,191.856 151.656,195.856 149,199.5C 147.005,201.747 144.505,202.747 141.5,202.5C 141.171,196.463 141.504,190.463 142.5,184.5C 143.522,184.145 144.189,183.478 144.5,182.5 Z"/></g>
<g><path style="opacity:1" fill="#f1725d" d="M 247.5,183.5 C 248.956,186.247 250.289,189.08 251.5,192C 250.728,193.221 249.728,194.221 248.5,195C 241.761,198.118 235.261,201.618 229,205.5C 228.591,202.642 229.591,200.309 232,198.5C 232.495,196.527 232.662,194.527 232.5,192.5C 235.961,189.931 239.628,187.597 243.5,185.5C 244.605,184.4 245.938,183.733 247.5,183.5 Z"/></g>
<g><path style="opacity:1" fill="#f0715c" d="M 187.5,186.5 C 192.5,187.167 197.5,187.833 202.5,188.5C 203.833,189.167 205.167,189.833 206.5,190.5C 205.424,193.302 204.424,196.135 203.5,199C 194.502,198.634 185.836,196.801 177.5,193.5C 179.972,192.104 182.638,191.27 185.5,191C 187.037,189.89 187.703,188.39 187.5,186.5 Z"/></g>
<g><path style="opacity:1" fill="#e4d5c7" d="M 36.5,192.5 C 36.5,192.167 36.5,191.833 36.5,191.5C 40.3366,191.931 44.0032,192.598 47.5,193.5C 46.5041,193.414 45.6708,193.748 45,194.5C 40.5721,201.027 36.4055,207.693 32.5,214.5C 31.8333,214.5 31.1667,214.5 30.5,214.5C 29.5876,213.262 29.4209,211.928 30,210.5C 32.8333,204.833 35.6667,199.167 38.5,193.5C 38.0431,192.702 37.3764,192.369 36.5,192.5 Z"/></g>
<g><path style="opacity:1" fill="#e4d5c6" d="M 97.5,193.5 C 99.9479,192.527 102.615,192.194 105.5,192.5C 108.82,199.14 112.153,205.807 115.5,212.5C 115.137,213.183 114.804,213.85 114.5,214.5C 113.833,214.5 113.167,214.5 112.5,214.5C 108.428,208.698 104.594,202.698 101,196.5C 100.241,194.937 99.0744,193.937 97.5,193.5 Z"/></g>
<g><path style="opacity:0.923" fill="#fef4ed" d="M 35.5,192.5 C 35.8333,192.5 36.1667,192.5 36.5,192.5C 37.3764,192.369 38.0431,192.702 38.5,193.5C 35.6667,199.167 32.8333,204.833 30,210.5C 29.4209,211.928 29.5876,213.262 30.5,214.5C 20.1667,214.5 9.83333,214.5 -0.5,214.5C -0.5,213.5 -0.5,212.5 -0.5,211.5C 5.17645,211.666 10.8431,211.499 16.5,211C 18.8604,208.64 21.1937,206.306 23.5,204C 19.1667,203.667 14.8333,203.333 10.5,203C 9.54943,202.282 9.38277,201.449 10,200.5C 16.4191,199.687 22.9191,199.187 29.5,199C 31.4641,197.549 32.7974,195.716 33.5,193.5C 34.4916,193.672 35.1583,193.338 35.5,192.5 Z"/></g>
<g><path style="opacity:1" fill="#fef4ed" d="M 47.5,193.5 C 64.1358,194.715 80.8024,194.715 97.5,193.5C 99.0744,193.937 100.241,194.937 101,196.5C 104.594,202.698 108.428,208.698 112.5,214.5C 85.8333,214.5 59.1667,214.5 32.5,214.5C 36.4055,207.693 40.5721,201.027 45,194.5C 45.6708,193.748 46.5041,193.414 47.5,193.5 Z"/></g>
<g><path style="opacity:1" fill="#f9afa0" d="M 328.5,191.5 C 328.56,190.957 328.893,190.624 329.5,190.5C 330.474,192.743 330.808,195.076 330.5,197.5C 325.637,197.819 320.97,197.486 316.5,196.5C 320.833,196.5 325.167,196.5 329.5,196.5C 329.784,194.585 329.451,192.919 328.5,191.5 Z"/></g>
</svg>
