<?xml version="1.0" encoding="UTF-8"?>
<svg xmlns="http://www.w3.org/2000/svg" version="1.1" width="1029px" height="570px" style="shape-rendering:geometricPrecision; text-rendering:geometricPrecision; image-rendering:optimizeQuality; fill-rule:evenodd; clip-rule:evenodd" xmlns:xlink="http://www.w3.org/1999/xlink">
<g><path style="opacity:0.982" fill="#f1af8e" d="M 488.5,35.5 C 487.844,34.7222 487.011,34.0556 486,33.5C 484.189,34.0779 482.355,34.5779 480.5,35C 471.167,35.6667 461.833,35.6667 452.5,35C 444.746,33.4695 437.079,31.6362 429.5,29.5C 428.913,36.9374 427.246,44.1041 424.5,51C 425.581,54.4682 426.081,57.9682 426,61.5C 424.274,62.5762 422.441,62.7429 420.5,62C 418.242,59.5341 415.909,57.3674 413.5,55.5C 405.171,36.3039 409.504,20.8039 426.5,9C 432.424,5.67539 438.757,3.34205 445.5,2C 461.03,0.600535 476.363,1.60054 491.5,5C 502.98,9.11449 505.48,16.2812 499,26.5C 495.845,30.1741 492.345,33.1741 488.5,35.5 Z"/></g>
<g><path style="opacity:0.982" fill="#8c564c" d="M 488.5,35.5 C 488.666,41.8421 488.5,48.1754 488,54.5C 485.37,60.2625 481.87,65.4291 477.5,70C 472.881,73.2252 468.048,76.0586 463,78.5C 461.596,84.0438 461.096,89.7104 461.5,95.5C 469.164,95.8886 476.83,96.222 484.5,96.5C 481.508,104.982 475.508,110.148 466.5,112C 464.19,112.497 461.857,112.663 459.5,112.5C 459.5,116.167 459.5,119.833 459.5,123.5C 459.5,123.833 459.5,124.167 459.5,124.5C 458.833,120.5 458.167,116.5 457.5,112.5C 457.167,112.5 456.833,112.5 456.5,112.5C 446.515,111.673 438.848,107.006 433.5,98.5C 431.955,97.5481 430.288,97.2148 428.5,97.5C 428.5,106.167 428.5,114.833 428.5,123.5C 428.5,123.833 428.5,124.167 428.5,124.5C 427.506,115.348 427.173,106.015 427.5,96.5C 432.854,96.4312 438.187,96.0978 443.5,95.5C 443.76,89.828 444.093,84.1613 444.5,78.5C 436.778,77.5561 429.944,74.5561 424,69.5C 418.288,73.2911 412.455,73.4578 406.5,70C 402.031,61.6874 404.365,56.854 413.5,55.5C 415.909,57.3674 418.242,59.5341 420.5,62C 422.441,62.7429 424.274,62.5762 426,61.5C 426.081,57.9682 425.581,54.4682 424.5,51C 427.246,44.1041 428.913,36.9374 429.5,29.5C 437.079,31.6362 444.746,33.4695 452.5,35C 461.833,35.6667 471.167,35.6667 480.5,35C 482.355,34.5779 484.189,34.0779 486,33.5C 487.011,34.0556 487.844,34.7222 488.5,35.5 Z"/></g>
<g><path style="opacity:1" fill="#120c0b" d="M 460.5,48.5 C 465.844,48.334 471.177,48.5006 476.5,49C 481.085,54.0568 480.085,57.7235 473.5,60C 468.833,60.6667 464.167,60.6667 459.5,60C 456.681,55.8987 457.014,52.0654 460.5,48.5 Z"/></g>
<g><path style="opacity:1" fill="#130f0e" d="M 436.5,48.5 C 441.179,48.3342 445.845,48.5008 450.5,49C 456.408,51.5436 457.075,55.2102 452.5,60C 447.5,60.6667 442.5,60.6667 437.5,60C 432.624,56.4792 432.29,52.6458 436.5,48.5 Z"/></g>
<g><path style="opacity:1" fill="#e9e4e4" d="M 436.5,50.5 C 439.167,50.5 441.833,50.5 444.5,50.5C 444.5,52.8333 444.5,55.1667 444.5,57.5C 441.813,57.6641 439.146,57.4974 436.5,57C 435.232,54.8368 435.232,52.6702 436.5,50.5 Z"/></g>
<g><path style="opacity:1" fill="#e0dbdb" d="M 462.5,50.5 C 464.833,50.5 467.167,50.5 469.5,50.5C 470.595,58.2962 467.428,60.6296 460,57.5C 458.916,54.3411 459.75,52.0078 462.5,50.5 Z"/></g>
<g><path style="opacity:0.991" fill="#f36f59" d="M 425.5,96.5 C 425.5,105.5 425.5,114.5 425.5,123.5C 416.167,123.5 406.833,123.5 397.5,123.5C 397.5,115.833 397.5,108.167 397.5,100.5C 406.79,98.9519 416.124,97.6186 425.5,96.5 Z"/></g>
<g><path style="opacity:0.999" fill="#f16f59" d="M 484.5,96.5 C 485.5,96.5 486.5,96.5 487.5,96.5C 487.5,105.5 487.5,114.5 487.5,123.5C 478.167,123.5 468.833,123.5 459.5,123.5C 459.5,119.833 459.5,116.167 459.5,112.5C 461.857,112.663 464.19,112.497 466.5,112C 475.508,110.148 481.508,104.982 484.5,96.5 Z"/></g>
<g><path style="opacity:1" fill="#1e100c" d="M 426.5,96.5 C 426.833,96.5 427.167,96.5 427.5,96.5C 427.173,106.015 427.506,115.348 428.5,124.5C 438.167,124.5 447.833,124.5 457.5,124.5C 457.5,120.5 457.5,116.5 457.5,112.5C 458.167,116.5 458.833,120.5 459.5,124.5C 469.167,124.5 478.833,124.5 488.5,124.5C 488.5,115.5 488.5,106.5 488.5,97.5C 488.833,97.5 489.167,97.5 489.5,97.5C 489.5,106.5 489.5,115.5 489.5,124.5C 499.5,124.5 509.5,124.5 519.5,124.5C 519.833,103.167 520.167,103.167 520.5,124.5C 523.833,124.5 527.167,124.5 530.5,124.5C 530.672,125.492 530.338,126.158 529.5,126.5C 526.833,126.5 524.167,126.5 521.5,126.5C 520.671,133.655 520.171,140.989 520,148.5C 519.829,140.989 519.329,133.655 518.5,126.5C 509.167,126.5 499.833,126.5 490.5,126.5C 489.507,134.984 489.174,143.651 489.5,152.5C 498.833,152.5 508.167,152.5 517.5,152.5C 517.672,153.492 517.338,154.158 516.5,154.5C 507.5,154.5 498.5,154.5 489.5,154.5C 489.5,163.5 489.5,172.5 489.5,181.5C 499.167,181.5 508.833,181.5 518.5,181.5C 518.5,182.167 518.5,182.833 518.5,183.5C 509.167,183.5 499.833,183.5 490.5,183.5C 489.507,192.318 489.173,201.318 489.5,210.5C 499.348,210.827 509.014,210.494 518.5,209.5C 519.167,203.167 519.833,196.833 520.5,190.5C 521.301,192.042 521.634,193.708 521.5,195.5C 520.513,200.305 520.179,205.305 520.5,210.5C 524.5,210.833 524.5,211.167 520.5,211.5C 520.5,216.833 520.5,222.167 520.5,227.5C 520.167,227.5 519.833,227.5 519.5,227.5C 519.5,222.167 519.5,216.833 519.5,211.5C 509.5,211.5 499.5,211.5 489.5,211.5C 489.5,218.833 489.5,226.167 489.5,233.5C 489.167,233.5 488.833,233.5 488.5,233.5C 488.5,226.167 488.5,218.833 488.5,211.5C 478.5,211.5 468.5,211.5 458.5,211.5C 458.5,219.5 458.5,227.5 458.5,235.5C 458.167,235.5 457.833,235.5 457.5,235.5C 457.5,227.5 457.5,219.5 457.5,211.5C 447.5,211.5 437.5,211.5 427.5,211.5C 427.824,218.354 427.491,225.021 426.5,231.5C 426.5,224.833 426.5,218.167 426.5,211.5C 395.833,211.167 395.833,210.833 426.5,210.5C 426.827,201.318 426.493,192.318 425.5,183.5C 417.5,183.5 409.5,183.5 401.5,183.5C 400.662,183.158 400.328,182.492 400.5,181.5C 408.833,181.5 417.167,181.5 425.5,181.5C 426.493,172.682 426.827,163.682 426.5,154.5C 417.167,154.5 407.833,154.5 398.5,154.5C 398.5,153.833 398.5,153.167 398.5,152.5C 407.833,152.5 417.167,152.5 426.5,152.5C 426.826,143.651 426.493,134.984 425.5,126.5C 416.167,126.5 406.833,126.5 397.5,126.5C 396.674,131.316 396.174,136.316 396,141.5C 395.826,136.316 395.326,131.316 394.5,126.5C 392.5,126.5 390.5,126.5 388.5,126.5C 387.957,126.44 387.624,126.107 387.5,125.5C 390.086,124.52 392.753,124.187 395.5,124.5C 395.5,116.833 395.5,109.167 395.5,101.5C 396.492,108.982 396.825,116.648 396.5,124.5C 406.5,124.5 416.5,124.5 426.5,124.5C 426.5,115.167 426.5,105.833 426.5,96.5 Z"/></g>
<g><path style="opacity:1" fill="#f16f59" d="M 456.5,112.5 C 456.5,116.167 456.5,119.833 456.5,123.5C 447.167,123.5 437.833,123.5 428.5,123.5C 428.5,114.833 428.5,106.167 428.5,97.5C 430.288,97.2148 431.955,97.5481 433.5,98.5C 438.848,107.006 446.515,111.673 456.5,112.5 Z"/></g>
<g><path style="opacity:0.989" fill="#f26f59" d="M 490.5,97.5 C 496.868,98.7846 503.201,100.285 509.5,102C 513.204,103.381 516.537,105.214 519.5,107.5C 518.512,112.64 518.179,117.974 518.5,123.5C 509.167,123.5 499.833,123.5 490.5,123.5C 490.5,114.833 490.5,106.167 490.5,97.5 Z"/></g>
<g><path style="opacity:0.984" fill="#f16f59" d="M 394.5,101.5 C 394.5,108.833 394.5,116.167 394.5,123.5C 391.552,123.777 388.719,123.444 386,122.5C 383.14,116.78 380.307,111.114 377.5,105.5C 382.878,103.384 388.545,102.05 394.5,101.5 Z"/></g>
<g><path style="opacity:0.976" fill="#8d564c" d="M 394.5,101.5 C 394.833,101.5 395.167,101.5 395.5,101.5C 395.5,109.167 395.5,116.833 395.5,124.5C 392.753,124.187 390.086,124.52 387.5,125.5C 387.624,126.107 387.957,126.44 388.5,126.5C 389.795,130.423 391.628,134.09 394,137.5C 394.499,133.848 394.665,130.182 394.5,126.5C 395.326,131.316 395.826,136.316 396,141.5C 396.174,136.316 396.674,131.316 397.5,126.5C 397.334,132.842 397.5,139.175 398,145.5C 399.612,147.456 399.778,149.456 398.5,151.5C 387.456,154.845 376.456,158.345 365.5,162C 360.308,163.715 355.308,165.882 350.5,168.5C 367.058,182.256 384.058,195.256 401.5,207.5C 401.611,208.117 401.944,208.617 402.5,209C 410.159,209.5 417.826,209.666 425.5,209.5C 425.5,200.833 425.5,192.167 425.5,183.5C 426.493,192.318 426.827,201.318 426.5,210.5C 395.833,210.833 395.833,211.167 426.5,211.5C 426.5,218.167 426.5,224.833 426.5,231.5C 426.167,231.5 425.833,231.5 425.5,231.5C 425.5,225.167 425.5,218.833 425.5,212.5C 418.492,212.334 411.492,212.5 404.5,213C 407.7,217.762 410.033,222.928 411.5,228.5C 412.442,233.805 412.609,239.139 412,244.5C 409.597,253.34 407.597,262.34 406,271.5C 404.055,275.39 400.888,277.057 396.5,276.5C 396.666,272.154 396.499,267.821 396,263.5C 391.676,270.638 386.509,277.138 380.5,283C 377.607,284.149 374.607,284.649 371.5,284.5C 371.662,282.473 371.495,280.473 371,278.5C 369.287,283.038 366.12,284.538 361.5,283C 359.459,280.358 358.959,277.525 360,274.5C 350.076,278.903 347.076,276.236 351,266.5C 352.332,264.34 353.832,262.34 355.5,260.5C 356.552,260.649 357.552,260.483 358.5,260C 362.015,256.318 365.682,252.818 369.5,249.5C 368.998,248.479 368.332,248.312 367.5,249C 363.851,253.496 359.518,256.996 354.5,259.5C 350.775,259.22 349.608,257.22 351,253.5C 357.781,248.187 364.281,242.52 370.5,236.5C 341.722,224.924 317.889,206.591 299,181.5C 294.147,173.797 290.981,165.464 289.5,156.5C 289.913,143.255 295.913,133.421 307.5,127C 329.854,116.716 353.187,109.549 377.5,105.5C 380.307,111.114 383.14,116.78 386,122.5C 388.719,123.444 391.552,123.777 394.5,123.5C 394.5,116.167 394.5,108.833 394.5,101.5 Z M 375.5,272.5 C 375.461,271.244 375.961,270.244 377,269.5C 377.585,270.998 377.085,271.998 375.5,272.5 Z"/></g>
<g><path style="opacity:0.963" fill="#f16f59" d="M 521.5,108.5 C 522.922,108.709 524.255,109.209 525.5,110C 528.957,112.387 531.957,115.22 534.5,118.5C 533.263,119.965 532.263,121.632 531.5,123.5C 528.167,123.5 524.833,123.5 521.5,123.5C 521.5,118.5 521.5,113.5 521.5,108.5 Z"/></g>
<g><path style="opacity:0.986" fill="#8d574d" d="M 534.5,118.5 C 539.426,121.921 543.926,125.921 548,130.5C 560.211,143.932 571.211,158.266 581,173.5C 584.158,176.219 587.658,178.386 591.5,180C 611.579,187.798 631.413,195.965 651,204.5C 664.278,200.863 677.778,198.197 691.5,196.5C 701.172,195.065 702.839,197.898 696.5,205C 701.295,204.907 705.962,203.907 710.5,202C 713.5,201.333 716.5,201.333 719.5,202C 720.78,204.132 720.78,206.298 719.5,208.5C 723.783,210.378 724.617,213.378 722,217.5C 721.097,218.701 719.931,219.535 718.5,220C 722.317,223.078 722.317,226.412 718.5,230C 721.178,233.353 720.845,236.519 717.5,239.5C 701.317,245.006 684.65,247.006 667.5,245.5C 666.711,245.217 666.044,244.717 665.5,244C 650.15,243.733 634.816,243.233 619.5,242.5C 598.664,240.721 579.331,234.221 561.5,223C 557.572,218.564 553.239,214.731 548.5,211.5C 542.809,205.644 537.309,199.644 532,193.5C 527.303,186.652 522.47,179.985 517.5,173.5C 517.768,171.901 517.434,170.568 516.5,169.5C 516.5,168.833 516.167,168.5 515.5,168.5C 515.41,166.304 515.077,164.137 514.5,162C 515.033,159.774 515.7,157.607 516.5,155.5C 516.5,155.167 516.5,154.833 516.5,154.5C 517.338,154.158 517.672,153.492 517.5,152.5C 518.167,152.5 518.5,152.167 518.5,151.5C 518.5,143.167 518.5,134.833 518.5,126.5C 519.329,133.655 519.829,140.989 520,148.5C 520.171,140.989 520.671,133.655 521.5,126.5C 521.334,132.176 521.501,137.843 522,143.5C 525.051,138.066 527.551,132.4 529.5,126.5C 530.338,126.158 530.672,125.492 530.5,124.5C 531.167,124.5 531.5,124.167 531.5,123.5C 532.263,121.632 533.263,119.965 534.5,118.5 Z"/></g>
<g><path style="opacity:1" fill="#984638" d="M 425.5,96.5 C 425.833,96.5 426.167,96.5 426.5,96.5C 426.5,105.833 426.5,115.167 426.5,124.5C 416.5,124.5 406.5,124.5 396.5,124.5C 396.825,116.648 396.492,108.982 395.5,101.5C 395.842,100.662 396.508,100.328 397.5,100.5C 397.5,108.167 397.5,115.833 397.5,123.5C 406.833,123.5 416.167,123.5 425.5,123.5C 425.5,114.5 425.5,105.5 425.5,96.5 Z"/></g>
<g><path style="opacity:1" fill="#ae5040" d="M 456.5,112.5 C 456.833,112.5 457.167,112.5 457.5,112.5C 457.5,116.5 457.5,120.5 457.5,124.5C 447.833,124.5 438.167,124.5 428.5,124.5C 428.5,124.167 428.5,123.833 428.5,123.5C 437.833,123.5 447.167,123.5 456.5,123.5C 456.5,119.833 456.5,116.167 456.5,112.5 Z"/></g>
<g><path style="opacity:1" fill="#9c4839" d="M 487.5,96.5 C 488.167,96.5 488.5,96.8333 488.5,97.5C 488.5,106.5 488.5,115.5 488.5,124.5C 478.833,124.5 469.167,124.5 459.5,124.5C 459.5,124.167 459.5,123.833 459.5,123.5C 468.833,123.5 478.167,123.5 487.5,123.5C 487.5,114.5 487.5,105.5 487.5,96.5 Z"/></g>
<g><path style="opacity:1" fill="#a04a3b" d="M 489.5,97.5 C 489.833,97.5 490.167,97.5 490.5,97.5C 490.5,106.167 490.5,114.833 490.5,123.5C 499.833,123.5 509.167,123.5 518.5,123.5C 518.179,117.974 518.512,112.64 519.5,107.5C 520.492,107.328 521.158,107.662 521.5,108.5C 521.5,113.5 521.5,118.5 521.5,123.5C 524.833,123.5 528.167,123.5 531.5,123.5C 531.5,124.167 531.167,124.5 530.5,124.5C 527.167,124.5 523.833,124.5 520.5,124.5C 520.167,103.167 519.833,103.167 519.5,124.5C 509.5,124.5 499.5,124.5 489.5,124.5C 489.5,115.5 489.5,106.5 489.5,97.5 Z"/></g>
<g><path style="opacity:0.999" fill="#ee6e59" d="M 388.5,126.5 C 390.5,126.5 392.5,126.5 394.5,126.5C 394.665,130.182 394.499,133.848 394,137.5C 391.628,134.09 389.795,130.423 388.5,126.5 Z"/></g>
<g><path style="opacity:1" fill="#f26f59" d="M 397.5,126.5 C 406.833,126.5 416.167,126.5 425.5,126.5C 425.5,134.833 425.5,143.167 425.5,151.5C 416.5,151.5 407.5,151.5 398.5,151.5C 399.778,149.456 399.612,147.456 398,145.5C 397.5,139.175 397.334,132.842 397.5,126.5 Z"/></g>
<g><path style="opacity:1" fill="#f16f59" d="M 459.5,126.5 C 468.833,126.5 478.167,126.5 487.5,126.5C 487.5,135.167 487.5,143.833 487.5,152.5C 478.167,152.5 468.833,152.5 459.5,152.5C 459.5,143.833 459.5,135.167 459.5,126.5 Z"/></g>
<g><path style="opacity:1" fill="#f26f59" d="M 490.5,126.5 C 499.833,126.5 509.167,126.5 518.5,126.5C 518.5,134.833 518.5,143.167 518.5,151.5C 509.167,151.5 499.833,151.5 490.5,151.5C 490.5,143.167 490.5,134.833 490.5,126.5 Z"/></g>
<g><path style="opacity:1" fill="#ef6f59" d="M 521.5,126.5 C 524.167,126.5 526.833,126.5 529.5,126.5C 527.551,132.4 525.051,138.066 522,143.5C 521.501,137.843 521.334,132.176 521.5,126.5 Z"/></g>
<g><path style="opacity:0.988" fill="#bb5645" d="M 425.5,126.5 C 426.493,134.984 426.826,143.651 426.5,152.5C 417.167,152.5 407.833,152.5 398.5,152.5C 398.5,152.167 398.5,151.833 398.5,151.5C 407.5,151.5 416.5,151.5 425.5,151.5C 425.5,143.167 425.5,134.833 425.5,126.5 Z"/></g>
<g><path style="opacity:1" fill="#ac4f3f" d="M 428.5,126.5 C 428.5,134.833 428.5,143.167 428.5,151.5C 437.833,151.5 447.167,151.5 456.5,151.5C 456.5,143.167 456.5,134.833 456.5,126.5C 457.493,134.984 457.826,143.651 457.5,152.5C 447.5,152.5 437.5,152.5 427.5,152.5C 427.174,143.651 427.507,134.984 428.5,126.5 Z"/></g>
<g><path style="opacity:1" fill="#f26f59" d="M 428.5,126.5 C 437.833,126.5 447.167,126.5 456.5,126.5C 456.5,134.833 456.5,143.167 456.5,151.5C 447.167,151.5 437.833,151.5 428.5,151.5C 428.5,143.167 428.5,134.833 428.5,126.5 Z"/></g>
<g><path style="opacity:1" fill="#c05847" d="M 490.5,126.5 C 490.5,134.833 490.5,143.167 490.5,151.5C 499.833,151.5 509.167,151.5 518.5,151.5C 518.5,152.167 518.167,152.5 517.5,152.5C 508.167,152.5 498.833,152.5 489.5,152.5C 489.174,143.651 489.507,134.984 490.5,126.5 Z"/></g>
<g><path style="opacity:0.991" fill="#f16f59" d="M 425.5,181.5 C 417.167,181.5 408.833,181.5 400.5,181.5C 400.328,173.105 399.661,164.771 398.5,156.5C 407.416,155.529 416.416,155.196 425.5,155.5C 425.5,164.167 425.5,172.833 425.5,181.5 Z"/></g>
<g><path style="opacity:1" fill="#964538" d="M 398.5,154.5 C 407.833,154.5 417.167,154.5 426.5,154.5C 426.827,163.682 426.493,172.682 425.5,181.5C 425.5,172.833 425.5,164.167 425.5,155.5C 416.416,155.196 407.416,155.529 398.5,156.5C 398.5,155.833 398.5,155.167 398.5,154.5 Z"/></g>
<g><path style="opacity:1" fill="#944436" d="M 456.5,181.5 C 456.5,172.833 456.5,164.167 456.5,155.5C 447.167,155.5 437.833,155.5 428.5,155.5C 428.5,164.167 428.5,172.833 428.5,181.5C 427.507,172.682 427.173,163.682 427.5,154.5C 437.5,154.5 447.5,154.5 457.5,154.5C 457.827,163.682 457.493,172.682 456.5,181.5 Z"/></g>
<g><path style="opacity:1" fill="#f16f59" d="M 456.5,181.5 C 447.167,181.5 437.833,181.5 428.5,181.5C 428.5,172.833 428.5,164.167 428.5,155.5C 437.833,155.5 447.167,155.5 456.5,155.5C 456.5,164.167 456.5,172.833 456.5,181.5 Z"/></g>
<g><path style="opacity:1" fill="#ef6e58" d="M 459.5,154.5 C 468.833,154.5 478.167,154.5 487.5,154.5C 487.5,163.5 487.5,172.5 487.5,181.5C 478.167,181.5 468.833,181.5 459.5,181.5C 459.5,172.5 459.5,163.5 459.5,154.5 Z"/></g>
<g><path style="opacity:1" fill="#a94d3e" d="M 516.5,154.5 C 516.5,154.833 516.5,155.167 516.5,155.5C 507.833,155.5 499.167,155.5 490.5,155.5C 490.5,163.833 490.5,172.167 490.5,180.5C 499.833,180.5 509.167,180.5 518.5,180.5C 518.5,180.833 518.5,181.167 518.5,181.5C 508.833,181.5 499.167,181.5 489.5,181.5C 489.5,172.5 489.5,163.5 489.5,154.5C 498.5,154.5 507.5,154.5 516.5,154.5 Z"/></g>
<g><path style="opacity:0.994" fill="#f26f59" d="M 516.5,155.5 C 515.7,157.607 515.033,159.774 514.5,162C 515.077,164.137 515.41,166.304 515.5,168.5C 516.167,168.5 516.5,168.833 516.5,169.5C 516.232,171.099 516.566,172.432 517.5,173.5C 517.674,175.861 518.007,178.194 518.5,180.5C 509.167,180.5 499.833,180.5 490.5,180.5C 490.5,172.167 490.5,163.833 490.5,155.5C 499.167,155.5 507.833,155.5 516.5,155.5 Z"/></g>
<g><path style="opacity:0.991" fill="#f36f59" d="M 401.5,183.5 C 409.5,183.5 417.5,183.5 425.5,183.5C 425.5,192.167 425.5,200.833 425.5,209.5C 417.826,209.666 410.159,209.5 402.5,209C 401.944,208.617 401.611,208.117 401.5,207.5C 401.5,199.5 401.5,191.5 401.5,183.5 Z"/></g>
<g><path style="opacity:1" fill="#f27059" d="M 459.5,183.5 C 468.833,183.5 478.167,183.5 487.5,183.5C 487.5,192.167 487.5,200.833 487.5,209.5C 478.167,209.5 468.833,209.5 459.5,209.5C 459.5,200.833 459.5,192.167 459.5,183.5 Z"/></g>
<g><path style="opacity:0.999" fill="#f26f59" d="M 490.5,183.5 C 499.833,183.5 509.167,183.5 518.5,183.5C 519.301,185.042 519.634,186.708 519.5,188.5C 518.538,195.412 518.205,202.412 518.5,209.5C 509.167,209.5 499.833,209.5 490.5,209.5C 490.5,200.833 490.5,192.167 490.5,183.5 Z"/></g>
<g><path style="opacity:1" fill="#72342a" d="M 519.5,188.5 C 520.338,188.842 520.672,189.508 520.5,190.5C 519.833,196.833 519.167,203.167 518.5,209.5C 518.205,202.412 518.538,195.412 519.5,188.5 Z"/></g>
<g><path style="opacity:0.841" fill="#f36e59" d="M 521.5,198.5 C 523.082,201.876 523.749,205.542 523.5,209.5C 521.586,206.316 520.92,202.649 521.5,198.5 Z"/></g>
<g><path style="opacity:1" fill="#72342a" d="M 428.5,183.5 C 428.5,192.167 428.5,200.833 428.5,209.5C 437.833,209.5 447.167,209.5 456.5,209.5C 456.5,200.833 456.5,192.167 456.5,183.5C 457.493,192.318 457.827,201.318 457.5,210.5C 447.5,210.5 437.5,210.5 427.5,210.5C 427.173,201.318 427.507,192.318 428.5,183.5 Z"/></g>
<g><path style="opacity:1" fill="#f26f59" d="M 428.5,183.5 C 437.833,183.5 447.167,183.5 456.5,183.5C 456.5,192.167 456.5,200.833 456.5,209.5C 447.167,209.5 437.833,209.5 428.5,209.5C 428.5,200.833 428.5,192.167 428.5,183.5 Z"/></g>
<g><path style="opacity:1" fill="#73352b" d="M 490.5,183.5 C 490.5,192.167 490.5,200.833 490.5,209.5C 499.833,209.5 509.167,209.5 518.5,209.5C 509.014,210.494 499.348,210.827 489.5,210.5C 489.173,201.318 489.507,192.318 490.5,183.5 Z"/></g>
<g><path style="opacity:1" fill="#813c30" d="M 488.5,233.5 C 488.167,233.5 487.833,233.5 487.5,233.5C 487.5,226.5 487.5,219.5 487.5,212.5C 478.167,212.5 468.833,212.5 459.5,212.5C 459.5,220.167 459.5,227.833 459.5,235.5C 459.167,235.5 458.833,235.5 458.5,235.5C 458.5,227.5 458.5,219.5 458.5,211.5C 468.5,211.5 478.5,211.5 488.5,211.5C 488.5,218.833 488.5,226.167 488.5,233.5 Z"/></g>
<g><path style="opacity:1" fill="#8e4134" d="M 519.5,227.5 C 519.167,227.5 518.833,227.5 518.5,227.5C 518.5,222.5 518.5,217.5 518.5,212.5C 509.167,212.5 499.833,212.5 490.5,212.5C 490.5,219.5 490.5,226.5 490.5,233.5C 490.167,233.5 489.833,233.5 489.5,233.5C 489.5,226.167 489.5,218.833 489.5,211.5C 499.5,211.5 509.5,211.5 519.5,211.5C 519.5,216.833 519.5,222.167 519.5,227.5 Z"/></g>
<g><path style="opacity:0.996" fill="#93bfe8" d="M 548.5,211.5 C 553.239,214.731 557.572,218.564 561.5,223C 579.331,234.221 598.664,240.721 619.5,242.5C 615.631,243.101 612.298,244.768 609.5,247.5C 613.293,250.278 617.293,250.778 621.5,249C 628.167,248.333 634.833,248.333 641.5,249C 650.336,251.034 659.003,253.201 667.5,255.5C 667.5,258.833 667.5,262.167 667.5,265.5C 662.083,265.304 656.749,264.804 651.5,264C 656.691,267.759 662.024,271.259 667.5,274.5C 674.477,284.299 676.977,295.299 675,307.5C 674.295,311.908 673.295,316.241 672,320.5C 668.231,325.719 664.731,331.053 661.5,336.5C 657.412,338.752 654.079,341.918 651.5,346C 653.81,346.497 656.143,346.663 658.5,346.5C 658.5,347.833 658.5,349.167 658.5,350.5C 657.833,350.5 657.5,350.833 657.5,351.5C 656.516,353.48 655.183,355.147 653.5,356.5C 644.759,362.048 636.092,367.882 627.5,374C 621.596,380.481 615.929,387.148 610.5,394C 624.828,385.309 638.828,375.809 652.5,365.5C 653.429,366.689 653.762,368.022 653.5,369.5C 650.019,386.388 645.685,403.055 640.5,419.5C 626.896,415.954 613.396,411.954 600,407.5C 594.61,412.058 590.11,417.392 586.5,423.5C 574.845,437.82 562.845,451.82 550.5,465.5C 536.167,456.167 521.833,446.833 507.5,437.5C 506.12,437.038 505.453,436.038 505.5,434.5C 509.904,411.386 517.904,389.719 529.5,369.5C 531.017,369.489 532.184,368.823 533,367.5C 535.157,365.183 536.657,362.516 537.5,359.5C 547.682,347.82 559.016,337.32 571.5,328C 545.829,329.759 520.162,331.926 494.5,334.5C 479.22,334.965 463.886,334.465 448.5,333C 442.32,331.602 436.32,329.769 430.5,327.5C 416.96,322.461 407.46,313.128 402,299.5C 399.438,291.971 397.604,284.305 396.5,276.5C 400.888,277.057 404.055,275.39 406,271.5C 407.597,262.34 409.597,253.34 412,244.5C 412.609,239.139 412.442,233.805 411.5,228.5C 415.996,230.14 420.663,231.14 425.5,231.5C 425.833,231.5 426.167,231.5 426.5,231.5C 426.842,232.338 427.508,232.672 428.5,232.5C 434.782,233.577 441.116,234.243 447.5,234.5C 450.625,235.479 453.958,235.813 457.5,235.5C 457.833,235.5 458.167,235.5 458.5,235.5C 458.833,235.5 459.167,235.5 459.5,235.5C 469.035,235.576 478.369,234.909 487.5,233.5C 487.833,233.5 488.167,233.5 488.5,233.5C 488.833,233.5 489.167,233.5 489.5,233.5C 489.833,233.5 490.167,233.5 490.5,233.5C 499.955,232.137 509.288,230.137 518.5,227.5C 518.833,227.5 519.167,227.5 519.5,227.5C 519.833,227.5 520.167,227.5 520.5,227.5C 521.167,227.5 521.5,227.167 521.5,226.5C 523.971,226.767 525.638,225.767 526.5,223.5C 525.777,221.218 525.443,218.884 525.5,216.5C 533.116,214.629 540.782,212.962 548.5,211.5 Z"/></g>
<g><path style="opacity:1" fill="#f1705b" d="M 425.5,231.5 C 420.663,231.14 415.996,230.14 411.5,228.5C 410.033,222.928 407.7,217.762 404.5,213C 411.492,212.5 418.492,212.334 425.5,212.5C 425.5,218.833 425.5,225.167 425.5,231.5 Z"/></g>
<g><path style="opacity:1" fill="#f2705a" d="M 447.5,234.5 C 441.116,234.243 434.782,233.577 428.5,232.5C 428.5,225.833 428.5,219.167 428.5,212.5C 437.833,212.5 447.167,212.5 456.5,212.5C 456.5,219.833 456.5,227.167 456.5,234.5C 453.5,234.5 450.5,234.5 447.5,234.5 Z"/></g>
<g><path style="opacity:1" fill="#9a4e42" d="M 457.5,235.5 C 453.958,235.813 450.625,235.479 447.5,234.5C 450.5,234.5 453.5,234.5 456.5,234.5C 456.5,227.167 456.5,219.833 456.5,212.5C 447.167,212.5 437.833,212.5 428.5,212.5C 428.5,219.167 428.5,225.833 428.5,232.5C 427.508,232.672 426.842,232.338 426.5,231.5C 427.491,225.021 427.824,218.354 427.5,211.5C 437.5,211.5 447.5,211.5 457.5,211.5C 457.5,219.5 457.5,227.5 457.5,235.5 Z"/></g>
<g><path style="opacity:1" fill="#f2705a" d="M 487.5,233.5 C 478.369,234.909 469.035,235.576 459.5,235.5C 459.5,227.833 459.5,220.167 459.5,212.5C 468.833,212.5 478.167,212.5 487.5,212.5C 487.5,219.5 487.5,226.5 487.5,233.5 Z"/></g>
<g><path style="opacity:1" fill="#f2705a" d="M 518.5,227.5 C 509.288,230.137 499.955,232.137 490.5,233.5C 490.5,226.5 490.5,219.5 490.5,212.5C 499.833,212.5 509.167,212.5 518.5,212.5C 518.5,217.5 518.5,222.5 518.5,227.5 Z"/></g>
<g><path style="opacity:1" fill="#833d32" d="M 521.5,195.5 C 521.5,196.5 521.5,197.5 521.5,198.5C 520.92,202.649 521.586,206.316 523.5,209.5C 524.404,210.209 524.737,211.209 524.5,212.5C 523.5,212.5 522.5,212.5 521.5,212.5C 521.5,217.167 521.5,221.833 521.5,226.5C 521.5,227.167 521.167,227.5 520.5,227.5C 520.5,222.167 520.5,216.833 520.5,211.5C 524.5,211.167 524.5,210.833 520.5,210.5C 520.179,205.305 520.513,200.305 521.5,195.5 Z"/></g>
<g><path style="opacity:0.969" fill="#f1715d" d="M 524.5,212.5 C 525.434,213.568 525.768,214.901 525.5,216.5C 525.443,218.884 525.777,221.218 526.5,223.5C 525.638,225.767 523.971,226.767 521.5,226.5C 521.5,221.833 521.5,217.167 521.5,212.5C 522.5,212.5 523.5,212.5 524.5,212.5 Z"/></g>
<g><path style="opacity:1" fill="#bc866b" d="M 715.5,209.5 C 716.552,209.351 717.552,209.517 718.5,210C 709.362,214.867 699.695,217.367 689.5,217.5C 698.487,215.449 707.153,212.782 715.5,209.5 Z"/></g>
<g><path style="opacity:1" fill="#ba8469" d="M 685.5,207.5 C 686.873,207.343 688.207,207.51 689.5,208C 686.279,209.278 682.946,210.111 679.5,210.5C 679.666,215.179 679.499,219.845 679,224.5C 678.64,226.421 677.806,228.088 676.5,229.5C 676.167,229.167 675.833,228.833 675.5,228.5C 676.985,222.279 677.985,215.946 678.5,209.5C 680.982,208.933 683.316,208.266 685.5,207.5 Z"/></g>
<g><path style="opacity:1" fill="#c18b6e" d="M 711.5,220.5 C 712.873,220.343 714.207,220.51 715.5,221C 707.772,224.082 699.772,225.082 691.5,224C 698.391,223.288 705.058,222.121 711.5,220.5 Z"/></g>
<g><path style="opacity:0.924" fill="#b8b2b8" d="M 619.5,242.5 C 634.816,243.233 650.15,243.733 665.5,244C 666.044,244.717 666.711,245.217 667.5,245.5C 679.496,248.14 691.163,251.973 702.5,257C 711.145,263.192 711.812,270.192 704.5,278C 700.179,278.499 695.846,278.666 691.5,278.5C 691.547,301.84 691.214,325.174 690.5,348.5C 687.396,349.775 684.396,349.775 681.5,348.5C 681.631,347.761 681.464,347.094 681,346.5C 679.855,347.636 678.688,348.636 677.5,349.5C 669.434,351.581 661.434,353.914 653.5,356.5C 655.183,355.147 656.516,353.48 657.5,351.5C 658.167,351.5 658.5,351.167 658.5,350.5C 660.932,349.25 663.266,347.75 665.5,346C 663.249,346.207 660.915,346.373 658.5,346.5C 656.143,346.663 653.81,346.497 651.5,346C 654.079,341.918 657.412,338.752 661.5,336.5C 667.861,335.66 674.194,334.66 680.5,333.5C 681.324,330.215 681.824,326.882 682,323.5C 682.5,307.837 682.667,292.17 682.5,276.5C 677.453,276.078 672.453,275.411 667.5,274.5C 662.024,271.259 656.691,267.759 651.5,264C 656.749,264.804 662.083,265.304 667.5,265.5C 676.686,266.637 685.853,267.97 695,269.5C 697.051,269.577 698.884,269.077 700.5,268C 698.645,265.613 696.312,263.946 693.5,263C 684.917,260.184 676.251,257.684 667.5,255.5C 659.003,253.201 650.336,251.034 641.5,249C 634.833,248.333 628.167,248.333 621.5,249C 617.293,250.778 613.293,250.278 609.5,247.5C 612.298,244.768 615.631,243.101 619.5,242.5 Z M 681.5,348.5 C 680.292,349.234 678.959,349.567 677.5,349.5C 678.688,348.636 679.855,347.636 681,346.5C 681.464,347.094 681.631,347.761 681.5,348.5 Z"/></g>
<g><path style="opacity:1" fill="#be886c" d="M 355.5,260.5 C 354.833,260.5 354.5,260.167 354.5,259.5C 359.518,256.996 363.851,253.496 367.5,249C 368.332,248.312 368.998,248.479 369.5,249.5C 365.682,252.818 362.015,256.318 358.5,260C 357.552,260.483 356.552,260.649 355.5,260.5 Z"/></g>
<g><path style="opacity:1" fill="#c28c6e" d="M 375.5,253.5 C 376.376,253.369 377.043,253.702 377.5,254.5C 370.007,257.992 365.007,263.659 362.5,271.5C 362.167,271.167 361.833,270.833 361.5,270.5C 364.045,262.966 368.712,257.3 375.5,253.5 Z"/></g>
<g><path style="opacity:0.917" fill="#020303" d="M 430.5,327.5 C 436.32,329.769 442.32,331.602 448.5,333C 463.886,334.465 479.22,334.965 494.5,334.5C 495.204,338.803 493.87,342.303 490.5,345C 484.517,347.985 478.184,349.151 471.5,348.5C 468.5,348.5 465.5,348.5 462.5,348.5C 449.715,349.124 439.548,344.458 432,334.5C 431.338,332.187 430.838,329.854 430.5,327.5 Z"/></g>
<g><path style="opacity:0.86" fill="#010101" d="M 426.5,395.5 C 426.861,399.222 428.528,402.222 431.5,404.5C 440.808,421.124 445.474,439.124 445.5,458.5C 444.218,461.936 444.218,465.269 445.5,468.5C 436.658,524.339 404.658,558.005 349.5,569.5C 339.833,569.5 330.167,569.5 320.5,569.5C 275.68,561.522 245.18,536.189 229,493.5C 215.191,437.041 232.357,393.207 280.5,362C 322.421,341.16 362.754,343.826 401.5,370C 410.733,377.732 419.066,386.232 426.5,395.5 Z M 415.5,403.5 C 386.796,420.271 358.629,437.938 331,456.5C 330.033,462.201 332.533,464.701 338.5,464C 369.838,465.108 401.172,466.275 432.5,467.5C 426.628,509.867 403.628,538.367 363.5,553C 313.998,564.612 275.832,549.112 249,506.5C 228.873,463.831 234.206,424.831 265,389.5C 293.341,364.014 326.174,355.847 363.5,365C 385.011,372.365 402.344,385.198 415.5,403.5 Z M 420.5,411.5 C 427.79,426.269 431.79,441.936 432.5,458.5C 405.154,457.462 377.821,456.129 350.5,454.5C 373.604,439.716 396.937,425.383 420.5,411.5 Z"/></g>
<g><path style="opacity:0.869" fill="#010101" d="M 709.5,569.5 C 699.5,569.5 689.5,569.5 679.5,569.5C 630.402,559.712 599.235,530.712 586,482.5C 585.266,474.655 584.432,466.822 583.5,459C 584.438,451.52 585.104,444.02 585.5,436.5C 590.191,435.69 594.857,436.023 599.5,437.5C 591.694,481.61 606.027,516.443 642.5,542C 670.882,558.199 700.549,560.866 731.5,550C 766.024,534.12 786.19,507.287 792,469.5C 793.934,418.154 771.101,383.321 723.5,365C 712.71,362.001 701.71,360.835 690.5,361.5C 687.167,360.167 683.833,360.167 680.5,361.5C 671.269,363.412 662.269,366.079 653.5,369.5C 653.762,368.022 653.429,366.689 652.5,365.5C 638.828,375.809 624.828,385.309 610.5,394C 615.929,387.148 621.596,380.481 627.5,374C 636.092,367.882 644.759,362.048 653.5,356.5C 661.434,353.914 669.434,351.581 677.5,349.5C 678.959,349.567 680.292,349.234 681.5,348.5C 684.396,349.775 687.396,349.775 690.5,348.5C 741.35,348.931 777.183,372.264 798,418.5C 812.056,459.253 806.056,496.587 780,530.5C 761.113,552.055 737.613,565.055 709.5,569.5 Z"/></g>
<g><path style="opacity:0.9" fill="#b8b2b7" d="M 462.5,348.5 C 465.5,348.5 468.5,348.5 471.5,348.5C 471.349,356.268 471.349,363.935 471.5,371.5C 493.441,367.182 515.441,363.182 537.5,359.5C 536.657,362.516 535.157,365.183 533,367.5C 532.184,368.823 531.017,369.489 529.5,369.5C 510.591,373.575 491.591,377.408 472.5,381C 483.243,405.038 493.91,429.205 504.5,453.5C 503.484,459.273 502.151,464.939 500.5,470.5C 482.182,469.643 463.849,468.977 445.5,468.5C 444.218,465.269 444.218,461.936 445.5,458.5C 462.476,459.758 479.476,460.758 496.5,461.5C 486.018,435.513 475.185,409.513 464,383.5C 453.012,390.332 442.179,397.332 431.5,404.5C 428.528,402.222 426.861,399.222 426.5,395.5C 438.112,389.023 449.446,382.023 460.5,374.5C 462.007,365.901 462.673,357.234 462.5,348.5 Z"/></g>
<g><path style="opacity:0.89" fill="#b8b2b7" d="M 690.5,361.5 C 689.35,383.763 688.85,406.096 689,428.5C 690.454,435.228 692.121,441.895 694,448.5C 697.492,454.811 701.492,460.811 706,466.5C 706.445,472.198 703.945,473.865 698.5,471.5C 684.024,455.237 677.691,436.071 679.5,414C 680.245,396.507 680.579,379.007 680.5,361.5C 683.833,360.167 687.167,360.167 690.5,361.5 Z"/></g>
<g><path style="opacity:0.898" fill="#b8b2b7" d="M 415.5,403.5 C 418.182,405.53 419.849,408.197 420.5,411.5C 396.937,425.383 373.604,439.716 350.5,454.5C 377.821,456.129 405.154,457.462 432.5,458.5C 433.833,461.5 433.833,464.5 432.5,467.5C 401.172,466.275 369.838,465.108 338.5,464C 332.533,464.701 330.033,462.201 331,456.5C 358.629,437.938 386.796,420.271 415.5,403.5 Z"/></g>
<g><path style="opacity:0.987" fill="#2f6758" d="M 640.5,419.5 C 642.089,424.258 645.256,427.591 650,429.5C 655.105,440.947 651.605,444.947 639.5,441.5C 627.073,439.244 614.406,437.911 601.5,437.5C 600.833,437.5 600.167,437.5 599.5,437.5C 594.857,436.023 590.191,435.69 585.5,436.5C 585.467,432.131 585.8,427.798 586.5,423.5C 590.11,417.392 594.61,412.058 600,407.5C 613.396,411.954 626.896,415.954 640.5,419.5 Z"/></g>
<g><path style="opacity:0.871" fill="#010202" d="M 601.5,437.5 C 614.406,437.911 627.073,439.244 639.5,441.5C 639.731,444.785 638.397,447.285 635.5,449C 631.625,450.52 627.625,450.854 623.5,450C 618.201,449.07 612.867,448.403 607.5,448C 603.568,445.576 601.568,442.076 601.5,437.5 Z"/></g>
<g><path style="opacity:0.988" fill="#2f6758" d="M 507.5,437.5 C 521.833,446.833 536.167,456.167 550.5,465.5C 550.372,467.655 550.872,469.655 552,471.5C 555,474.5 558,477.5 561,480.5C 564.061,484.826 564.894,489.493 563.5,494.5C 558.693,492.406 553.693,491.073 548.5,490.5C 547.653,489.034 546.32,488.2 544.5,488C 533.235,485.189 521.901,482.689 510.5,480.5C 506.444,479.37 502.444,478.037 498.5,476.5C 499.172,474.47 499.838,472.47 500.5,470.5C 502.151,464.939 503.484,459.273 504.5,453.5C 505.501,448.161 506.501,442.828 507.5,437.5 Z"/></g>
<g><path style="opacity:0.878" fill="#010202" d="M 510.5,480.5 C 521.901,482.689 533.235,485.189 544.5,488C 546.32,488.2 547.653,489.034 548.5,490.5C 547.607,494.564 545.107,497.23 541,498.5C 531.552,496.15 522.219,493.484 513,490.5C 509.976,487.615 509.143,484.281 510.5,480.5 Z"/></g>
</svg>
