<?xml version="1.0" encoding="UTF-8"?>
<svg xmlns="http://www.w3.org/2000/svg" version="1.1" width="343px" height="253px" style="shape-rendering:geometricPrecision; text-rendering:geometricPrecision; image-rendering:optimizeQuality; fill-rule:evenodd; clip-rule:evenodd" xmlns:xlink="http://www.w3.org/1999/xlink">
<g><path style="opacity:0.94" fill="#b8b2b7" d="M 173.5,26.5 C 168.86,24.1799 164.193,21.8466 159.5,19.5C 155.13,25.2098 149.463,28.8765 142.5,30.5C 140.96,28.1617 140.294,25.4951 140.5,22.5C 132.061,20.7489 130.395,16.4156 135.5,9.5C 138.103,8.43828 140.77,8.27161 143.5,9C 145.054,10.892 146.888,12.392 149,13.5C 152.776,12.6058 156.61,12.2725 160.5,12.5C 160.953,5.59132 164.62,3.09132 171.5,5C 176.757,9.15602 176.757,13.4894 171.5,18C 173.179,20.5645 173.846,23.3979 173.5,26.5 Z"/></g>
<g><path style="opacity:0.467" fill="#f26f59" d="M 111.5,5.5 C 113.036,7.02507 114.036,9.02507 114.5,11.5C 117.976,8.21604 119.643,8.8827 119.5,13.5C 120.5,13.5 121.5,13.5 122.5,13.5C 122.785,15.288 122.452,16.9547 121.5,18.5C 120.803,16.6155 119.803,16.2822 118.5,17.5C 117.833,15.8333 117.167,14.1667 116.5,12.5C 115.086,13.624 113.586,14.624 112,15.5C 111.667,13.8333 111.333,12.1667 111,10.5C 110.363,12.3031 109.197,13.6364 107.5,14.5C 106.01,12.8744 104.51,11.2077 103,9.5C 102.808,11.5767 102.308,13.5767 101.5,15.5C 99.1386,5.82203 101.139,4.48869 107.5,11.5C 109.252,9.75405 110.585,7.75405 111.5,5.5 Z"/></g>
<g><path style="opacity:0.921" fill="#030202" d="M 110.5,55.5 C 108.155,54.4877 106.822,52.6544 106.5,50C 107.624,47.589 109.124,45.4223 111,43.5C 112.741,40.6907 113.908,37.6907 114.5,34.5C 113.448,34.6495 112.448,34.4828 111.5,34C 112.337,32.9887 112.67,31.8221 112.5,30.5C 110.058,30.8808 109.391,30.2141 110.5,28.5C 109.965,26.7295 109.131,26.3961 108,27.5C 107.51,26.2068 107.343,24.8734 107.5,23.5C 105.079,23.8782 102.746,24.5448 100.5,25.5C 100.261,23.5328 100.594,21.6995 101.5,20C 108.747,19.1877 115.914,19.3544 123,20.5C 124.79,31.774 125.956,43.1073 126.5,54.5C 121.195,55.1942 115.862,55.5276 110.5,55.5 Z"/></g>
<g><path style="opacity:0.961" fill="#c58c7f" d="M 173.5,26.5 C 173.816,29.9783 173.316,33.3117 172,36.5C 169.31,39.0082 166.31,41.0082 163,42.5C 162.506,44.1341 162.34,45.8008 162.5,47.5C 164.806,47.9926 167.139,48.3259 169.5,48.5C 169.5,49.1667 169.167,49.5 168.5,49.5C 165.039,51.0911 161.372,51.7578 157.5,51.5C 157.167,51.5 156.833,51.5 156.5,51.5C 153.673,51.4162 151.006,50.7496 148.5,49.5C 150.265,48.5386 152.265,48.2053 154.5,48.5C 154.808,46.076 154.474,43.7427 153.5,41.5C 148.411,39.4437 143.244,37.7771 138,36.5C 137.753,33.2406 139.253,31.2406 142.5,30.5C 149.463,28.8765 155.13,25.2098 159.5,19.5C 164.193,21.8466 168.86,24.1799 173.5,26.5 Z"/></g>
<g><path style="opacity:0.973" fill="#c58d7f" d="M 220.5,101.5 C 220.167,101.5 219.833,101.5 219.5,101.5C 209.519,97.8592 200.519,92.5259 192.5,85.5C 192.196,84.8501 191.863,84.1835 191.5,83.5C 197.37,77.0958 201.704,69.7624 204.5,61.5C 209.864,63.6011 214.698,66.6011 219,70.5C 222.191,60.5683 224.691,50.4016 226.5,40C 224.472,36.4358 223.138,32.6025 222.5,28.5C 222.667,27.1667 222.833,25.8333 223,24.5C 225.125,23.5162 226.292,21.8496 226.5,19.5C 225.278,13.6088 225.278,7.77549 226.5,2C 227.996,1.49256 229.163,1.99256 230,3.5C 231.275,5.71728 232.275,8.05062 233,10.5C 233.333,7.5 233.667,4.5 234,1.5C 235.494,0.252779 236.994,0.252779 238.5,1.5C 239.923,6.72493 240.757,12.0583 241,17.5C 242.388,16.4464 243.888,16.2797 245.5,17C 249.258,20.3464 251.591,24.5131 252.5,29.5C 251.474,33.8839 249.641,37.8839 247,41.5C 245.187,59.3796 242.187,77.0462 238,94.5C 234.082,101.082 228.248,103.415 220.5,101.5 Z"/></g>
<g><path style="opacity:0.973" fill="#c48d7f" d="M 110.5,55.5 C 111.874,62.9969 113.874,70.3303 116.5,77.5C 117.182,76.7573 117.849,76.0906 118.5,75.5C 121.625,78.9653 125.292,81.6319 129.5,83.5C 129.842,84.3382 130.508,84.6716 131.5,84.5C 132.398,85.1577 133.398,85.8243 134.5,86.5C 132.924,88.9793 131.924,91.646 131.5,94.5C 130.067,96.5191 128.733,98.6857 127.5,101C 128.571,101.852 129.571,102.685 130.5,103.5C 126.361,111.476 120.194,117.143 112,120.5C 109.077,120.205 106.743,118.871 105,116.5C 100.445,105.616 97.4453,94.2831 96,82.5C 94.4432,68.6041 92.6098,54.7708 90.5,41C 90.6667,37.8333 90.8333,34.6667 91,31.5C 93.8016,28.8539 96.9683,26.8539 100.5,25.5C 102.746,24.5448 105.079,23.8782 107.5,23.5C 107.343,24.8734 107.51,26.2068 108,27.5C 109.131,26.3961 109.965,26.7295 110.5,28.5C 109.391,30.2141 110.058,30.8808 112.5,30.5C 112.67,31.8221 112.337,32.9887 111.5,34C 112.448,34.4828 113.448,34.6495 114.5,34.5C 113.908,37.6907 112.741,40.6907 111,43.5C 109.124,45.4223 107.624,47.589 106.5,50C 106.822,52.6544 108.155,54.4877 110.5,55.5 Z"/></g>
<g><path style="opacity:1" fill="#e3523b" d="M 154.5,27.5 C 155.75,27.5774 156.583,28.244 157,29.5C 158.342,28.0977 159.176,28.4311 159.5,30.5C 159.019,33.3143 157.352,34.6476 154.5,34.5C 153.562,32.0897 153.562,29.7564 154.5,27.5 Z"/></g>
<g><path style="opacity:1" fill="#e54e36" d="M 162.5,29.5 C 163.94,30.3629 165.274,30.3629 166.5,29.5C 167.645,30.7757 167.645,32.109 166.5,33.5C 163.08,34.7527 161.746,33.4193 162.5,29.5 Z"/></g>
<g><path style="opacity:0.991" fill="#57988b" d="M 148.5,49.5 C 151.006,50.7496 153.673,51.4162 156.5,51.5C 156.747,54.9387 156.414,58.272 155.5,61.5C 151.833,61.5 148.167,61.5 144.5,61.5C 144.5,57.8333 144.5,54.1667 144.5,50.5C 145.568,49.5655 146.901,49.2322 148.5,49.5 Z"/></g>
<g><path style="opacity:1" fill="#58988b" d="M 168.5,49.5 C 172.579,60.4236 168.913,64.4236 157.5,61.5C 157.5,58.1667 157.5,54.8333 157.5,51.5C 161.372,51.7578 165.039,51.0911 168.5,49.5 Z"/></g>
<g><path style="opacity:0.938" fill="#5ba090" d="M 142.5,50.5 C 142.5,53.8333 142.5,57.1667 142.5,60.5C 138.833,60.5 135.167,60.5 131.5,60.5C 131.737,59.209 131.404,58.209 130.5,57.5C 134.136,54.677 138.136,52.3437 142.5,50.5 Z"/></g>
<g><path style="opacity:1" fill="#2c4d47" d="M 174.5,49.5 C 175.167,49.5 175.833,49.5 176.5,49.5C 176.337,51.8568 176.503,54.1902 177,56.5C 179.13,61.0867 180.963,65.7533 182.5,70.5C 177.905,64.297 175.238,57.297 174.5,49.5 Z"/></g>
<g><path style="opacity:0.928" fill="#5b9f91" d="M 126.5,61.5 C 127.209,62.404 128.209,62.7373 129.5,62.5C 129.5,65.8333 129.5,69.1667 129.5,72.5C 126.167,72.5 122.833,72.5 119.5,72.5C 121.087,68.3171 123.421,64.6505 126.5,61.5 Z"/></g>
<g><path style="opacity:1" fill="#325850" d="M 142.5,50.5 C 143.167,50.5 143.833,50.5 144.5,50.5C 144.5,54.1667 144.5,57.8333 144.5,61.5C 148.167,61.5 151.833,61.5 155.5,61.5C 155.5,61.8333 155.5,62.1667 155.5,62.5C 156.492,69.9818 156.825,77.6484 156.5,85.5C 151.833,85.5 147.167,85.5 142.5,85.5C 142.5,81.8333 142.5,78.1667 142.5,74.5C 138.833,74.5 135.167,74.5 131.5,74.5C 131.5,77.8333 131.5,81.1667 131.5,84.5C 130.508,84.6716 129.842,84.3382 129.5,83.5C 129.5,80.5 129.5,77.5 129.5,74.5C 125.958,74.8128 122.625,74.4794 119.5,73.5C 119.5,73.1667 119.5,72.8333 119.5,72.5C 122.833,72.5 126.167,72.5 129.5,72.5C 129.5,69.1667 129.5,65.8333 129.5,62.5C 128.209,62.7373 127.209,62.404 126.5,61.5C 127.5,59.8333 128.833,58.5 130.5,57.5C 131.404,58.209 131.737,59.209 131.5,60.5C 135.167,60.5 138.833,60.5 142.5,60.5C 142.5,57.1667 142.5,53.8333 142.5,50.5 Z"/></g>
<g><path style="opacity:1" fill="#5ba091" d="M 131.5,62.5 C 135.167,62.5 138.833,62.5 142.5,62.5C 142.5,65.8333 142.5,69.1667 142.5,72.5C 138.833,72.5 135.167,72.5 131.5,72.5C 131.5,69.1667 131.5,65.8333 131.5,62.5 Z"/></g>
<g><path style="opacity:1" fill="#5ba091" d="M 155.5,62.5 C 155.5,65.8333 155.5,69.1667 155.5,72.5C 151.833,72.5 148.167,72.5 144.5,72.5C 144.5,69.1667 144.5,65.8333 144.5,62.5C 148.167,62.5 151.833,62.5 155.5,62.5 Z"/></g>
<g><path style="opacity:0.986" fill="#599c8e" d="M 176.5,49.5 C 187.119,50.8171 196.452,54.8171 204.5,61.5C 201.704,69.7624 197.37,77.0958 191.5,83.5C 191.863,84.1835 192.196,84.8501 192.5,85.5C 192.467,89.8689 192.8,94.2022 193.5,98.5C 193.5,100.167 193.5,101.833 193.5,103.5C 190.167,104.167 186.833,104.833 183.5,105.5C 185.17,94.6094 185.836,83.776 185.5,73C 184.309,72.3021 183.309,71.4687 182.5,70.5C 180.963,65.7533 179.13,61.0867 177,56.5C 176.503,54.1902 176.337,51.8568 176.5,49.5 Z"/></g>
<g><path style="opacity:1" fill="#5f9f91" d="M 119.5,73.5 C 122.625,74.4794 125.958,74.8128 129.5,74.5C 129.5,77.5 129.5,80.5 129.5,83.5C 125.292,81.6319 121.625,78.9653 118.5,75.5C 118.328,74.5084 118.662,73.8417 119.5,73.5 Z"/></g>
<g><path style="opacity:1" fill="#5ba091" d="M 144.5,74.5 C 148.167,74.5 151.833,74.5 155.5,74.5C 155.5,77.8333 155.5,81.1667 155.5,84.5C 151.833,84.5 148.167,84.5 144.5,84.5C 144.5,81.1667 144.5,77.8333 144.5,74.5 Z"/></g>
<g><path style="opacity:1" fill="#599d8f" d="M 170.5,48.5 C 171.959,48.4326 173.292,48.7659 174.5,49.5C 175.238,57.297 177.905,64.297 182.5,70.5C 182.822,72.7224 182.155,74.5557 180.5,76C 181.449,76.6172 182.282,76.4506 183,75.5C 184.912,85.2862 184.412,94.9528 181.5,104.5C 181.957,105.298 182.624,105.631 183.5,105.5C 179.327,106.358 174.993,107.024 170.5,107.5C 170.846,87.9166 170.846,68.2499 170.5,48.5 Z"/></g>
<g><path style="opacity:1" fill="#599c8e" d="M 142.5,85.5 C 133.167,85.8333 133.167,86.1667 142.5,86.5C 142.5,90.1667 142.5,93.8333 142.5,97.5C 138.833,97.5 135.167,97.5 131.5,97.5C 131.5,96.5 131.5,95.5 131.5,94.5C 131.924,91.646 132.924,88.9793 134.5,86.5C 133.398,85.8243 132.398,85.1577 131.5,84.5C 131.5,81.1667 131.5,77.8333 131.5,74.5C 135.167,74.5 138.833,74.5 142.5,74.5C 142.5,78.1667 142.5,81.8333 142.5,85.5 Z"/></g>
<g><path style="opacity:1" fill="#2a4a44" d="M 182.5,70.5 C 183.309,71.4687 184.309,72.3021 185.5,73C 185.836,83.776 185.17,94.6094 183.5,105.5C 182.624,105.631 181.957,105.298 181.5,104.5C 184.412,94.9528 184.912,85.2862 183,75.5C 182.282,76.4506 181.449,76.6172 180.5,76C 182.155,74.5557 182.822,72.7224 182.5,70.5 Z"/></g>
<g><path style="opacity:1" fill="#26423c" d="M 169.5,48.5 C 169.833,48.5 170.167,48.5 170.5,48.5C 170.846,68.2499 170.846,87.9166 170.5,107.5C 169.5,107.5 168.5,107.5 167.5,107.5C 167.5,104.5 167.5,101.5 167.5,98.5C 164.167,98.5 160.833,98.5 157.5,98.5C 157.5,101.5 157.5,104.5 157.5,107.5C 157.167,107.5 156.833,107.5 156.5,107.5C 156.5,104.5 156.5,101.5 156.5,98.5C 152.5,98.5 148.5,98.5 144.5,98.5C 144.5,101.167 144.5,103.833 144.5,106.5C 143.508,106.672 142.842,106.338 142.5,105.5C 142.5,103.167 142.5,100.833 142.5,98.5C 138.833,98.5 135.167,98.5 131.5,98.5C 131.5,100.167 131.5,101.833 131.5,103.5C 131.167,103.5 130.833,103.5 130.5,103.5C 129.571,102.685 128.571,101.852 127.5,101C 128.733,98.6857 130.067,96.5191 131.5,94.5C 131.5,95.5 131.5,96.5 131.5,97.5C 135.167,97.5 138.833,97.5 142.5,97.5C 142.5,93.8333 142.5,90.1667 142.5,86.5C 133.167,86.1667 133.167,85.8333 142.5,85.5C 147.167,85.5 151.833,85.5 156.5,85.5C 156.825,77.6484 156.492,69.9818 155.5,62.5C 155.5,62.1667 155.5,61.8333 155.5,61.5C 156.414,58.272 156.747,54.9387 156.5,51.5C 156.833,51.5 157.167,51.5 157.5,51.5C 157.5,54.8333 157.5,58.1667 157.5,61.5C 168.913,64.4236 172.579,60.4236 168.5,49.5C 169.167,49.5 169.5,49.1667 169.5,48.5 Z"/></g>
<g><path style="opacity:1" fill="#589b8e" d="M 157.5,86.5 C 161.5,86.5 165.5,86.5 169.5,86.5C 169.693,90.007 169.027,93.3404 167.5,96.5C 164.232,97.487 160.898,97.8204 157.5,97.5C 157.5,93.8333 157.5,90.1667 157.5,86.5 Z"/></g>
<g><path style="opacity:1" fill="#589a8d" d="M 144.5,86.5 C 148.5,86.5 152.5,86.5 156.5,86.5C 156.5,90.1667 156.5,93.8333 156.5,97.5C 152.5,97.5 148.5,97.5 144.5,97.5C 144.5,93.8333 144.5,90.1667 144.5,86.5 Z"/></g>
<g><path style="opacity:1" fill="#589b8d" d="M 157.5,74.5 C 161.5,74.5 165.5,74.5 169.5,74.5C 169.5,78.1667 169.5,81.8333 169.5,85.5C 165.5,85.5 161.5,85.5 157.5,85.5C 157.5,81.8333 157.5,78.1667 157.5,74.5 Z"/></g>
<g><path style="opacity:1" fill="#599c8f" d="M 157.5,62.5 C 161.5,62.5 165.5,62.5 169.5,62.5C 169.5,65.8333 169.5,69.1667 169.5,72.5C 165.5,72.5 161.5,72.5 157.5,72.5C 157.5,69.1667 157.5,65.8333 157.5,62.5 Z"/></g>
<g><path style="opacity:0.959" fill="#5ba092" d="M 142.5,105.5 C 141.391,105.557 140.391,105.89 139.5,106.5C 136.919,105.512 134.252,104.512 131.5,103.5C 131.5,101.833 131.5,100.167 131.5,98.5C 135.167,98.5 138.833,98.5 142.5,98.5C 142.5,100.833 142.5,103.167 142.5,105.5 Z"/></g>
<g><path style="opacity:1" fill="#599c8f" d="M 156.5,107.5 C 152.466,107.495 148.466,107.162 144.5,106.5C 144.5,103.833 144.5,101.167 144.5,98.5C 148.5,98.5 152.5,98.5 156.5,98.5C 156.5,101.5 156.5,104.5 156.5,107.5 Z"/></g>
<g><path style="opacity:1" fill="#5a9f91" d="M 167.5,107.5 C 164.167,107.5 160.833,107.5 157.5,107.5C 157.5,104.5 157.5,101.5 157.5,98.5C 160.833,98.5 164.167,98.5 167.5,98.5C 167.5,101.5 167.5,104.5 167.5,107.5 Z"/></g>
<g><path style="opacity:0.989" fill="#93bfe8" d="M 193.5,98.5 C 202.234,98.9383 210.901,99.9383 219.5,101.5C 219.833,101.5 220.167,101.5 220.5,101.5C 226.976,103.276 233.143,105.943 239,109.5C 241.436,113.483 242.102,117.816 241,122.5C 237.865,135.905 233.532,148.905 228,161.5C 220.346,178.142 212.179,194.475 203.5,210.5C 204.535,205.274 202.868,201.274 198.5,198.5C 196.266,196.554 193.599,195.387 190.5,195C 186.848,194.501 183.182,194.335 179.5,194.5C 172.6,194.786 166.933,197.452 162.5,202.5C 176.545,178.287 191.212,154.454 206.5,131C 194.91,128.402 183.243,126.235 171.5,124.5C 164.608,162.853 157.608,201.186 150.5,239.5C 149.5,239.5 148.5,239.5 147.5,239.5C 135.616,240.456 124.282,238.456 113.5,233.5C 112.861,232.903 112.528,232.07 112.5,231C 120.671,189.309 129.671,147.809 139.5,106.5C 140.391,105.89 141.391,105.557 142.5,105.5C 142.842,106.338 143.508,106.672 144.5,106.5C 148.466,107.162 152.466,107.495 156.5,107.5C 156.833,107.5 157.167,107.5 157.5,107.5C 160.833,107.5 164.167,107.5 167.5,107.5C 168.5,107.5 169.5,107.5 170.5,107.5C 174.993,107.024 179.327,106.358 183.5,105.5C 186.833,104.833 190.167,104.167 193.5,103.5C 193.5,101.833 193.5,100.167 193.5,98.5 Z"/></g>
<g><path style="opacity:1" fill="#c28c7f" d="M 179.5,194.5 C 183.182,194.335 186.848,194.501 190.5,195C 193.599,195.387 196.266,196.554 198.5,198.5C 196.2,202.762 194.2,207.095 192.5,211.5C 183.954,209.803 179.621,204.469 179.5,195.5C 179.5,195.167 179.5,194.833 179.5,194.5 Z"/></g>
<g><path style="opacity:0.961" fill="#3a71ac" d="M 179.5,194.5 C 179.5,194.833 179.5,195.167 179.5,195.5C 174.339,198.496 170.339,202.662 167.5,208C 167.645,208.772 167.978,209.439 168.5,210C 170.81,210.497 173.143,210.663 175.5,210.5C 175.405,212.786 174.738,214.786 173.5,216.5C 166.801,214.143 163.135,209.476 162.5,202.5C 166.933,197.452 172.6,194.786 179.5,194.5 Z"/></g>
<g><path style="opacity:0.94" fill="#030303" d="M 179.5,195.5 C 179.621,204.469 183.954,209.803 192.5,211.5C 192.167,213.5 191.833,215.5 191.5,217.5C 191.562,225.644 189.229,232.978 184.5,239.5C 178.607,241.146 175.107,238.812 174,232.5C 173.501,227.177 173.334,221.844 173.5,216.5C 174.738,214.786 175.405,212.786 175.5,210.5C 173.143,210.663 170.81,210.497 168.5,210C 167.978,209.439 167.645,208.772 167.5,208C 170.339,202.662 174.339,198.496 179.5,195.5 Z"/></g>
<g><path style="opacity:0.982" fill="#3c72ae" d="M 198.5,198.5 C 202.868,201.274 204.535,205.274 203.5,210.5C 200.785,214.863 196.785,217.196 191.5,217.5C 191.833,215.5 192.167,213.5 192.5,211.5C 194.2,207.095 196.2,202.762 198.5,198.5 Z"/></g>
<g><path style="opacity:0.892" fill="#010101" d="M 113.5,233.5 C 124.282,238.456 135.616,240.456 147.5,239.5C 149.771,241.266 151.937,243.266 154,245.5C 154.833,248.171 154.333,250.504 152.5,252.5C 148.5,252.5 144.5,252.5 140.5,252.5C 132.95,251.303 126.783,247.636 122,241.5C 120.591,244.95 118.091,246.45 114.5,246C 113.282,244.562 112.615,242.895 112.5,241C 113.159,238.538 113.493,236.038 113.5,233.5 Z"/></g>
</svg>
