<?xml version="1.0" encoding="UTF-8"?>
<svg xmlns="http://www.w3.org/2000/svg" version="1.1" width="343px" height="253px" style="shape-rendering:geometricPrecision; text-rendering:geometricPrecision; image-rendering:optimizeQuality; fill-rule:evenodd; clip-rule:evenodd" xmlns:xlink="http://www.w3.org/1999/xlink">
<g><path style="opacity:0.969" fill="#e48756" d="M 138.5,-0.5 C 142.167,-0.5 145.833,-0.5 149.5,-0.5C 152.494,3.94543 153.161,8.77876 151.5,14C 155.527,16.1035 159.36,18.6035 163,21.5C 164.759,24.6076 165.592,27.941 165.5,31.5C 155.679,32.2316 148.013,28.5649 142.5,20.5C 139.021,27.4593 133.354,31.626 125.5,33C 124.619,33.7083 123.953,34.5416 123.5,35.5C 115.563,38.3673 112.563,44.0339 114.5,52.5C 112.897,43.6206 111.397,34.6206 110,25.5C 105.934,24.5363 101.767,24.203 97.5,24.5C 99.2193,21.7805 101.553,19.7805 104.5,18.5C 104.656,22.1351 105.822,22.4685 108,19.5C 108.333,20.5 108.667,21.5 109,22.5C 109.494,20.8659 109.66,19.1992 109.5,17.5C 120.72,18.4348 128.553,13.7682 133,3.5C 134.5,1.5313 136.333,0.197963 138.5,-0.5 Z"/></g>
<g><path style="opacity:1" fill="#130b07" d="M 143.5,13.5 C 145.288,13.2148 146.955,13.5481 148.5,14.5C 147.667,14.8333 146.833,15.1667 146,15.5C 144.624,15.3158 143.791,14.6491 143.5,13.5 Z"/></g>
<g><path style="opacity:0.467" fill="#f2725a" d="M 109.5,17.5 C 109.66,19.1992 109.494,20.8659 109,22.5C 108.667,21.5 108.333,20.5 108,19.5C 105.822,22.4685 104.656,22.1351 104.5,18.5C 104.631,17.7611 104.464,17.0944 104,16.5C 102.414,17.376 100.914,18.376 99.5,19.5C 98.7022,17.9223 98.2022,16.2556 98,14.5C 97.3632,16.3031 96.1965,17.6364 94.5,18.5C 92.5171,17.018 90.6837,15.3513 89,13.5C 89.3513,15.8859 89.1847,18.2192 88.5,20.5C 84.5623,10.0831 86.5623,8.41646 94.5,15.5C 96.177,13.4602 97.8437,11.4602 99.5,9.5C 100.314,11.7662 100.814,14.0995 101,16.5C 102.242,15.1279 103.742,14.1279 105.5,13.5C 106.667,15.0792 108,16.4125 109.5,17.5 Z"/></g>
<g><path style="opacity:0.971" fill="#c18a7c" d="M 165.5,31.5 C 169.533,31.6914 171.033,33.6914 170,37.5C 167.834,39.1213 165.334,39.9546 162.5,40C 161.295,41.3756 159.962,42.5423 158.5,43.5C 158.99,41.0516 158.157,39.385 156,38.5C 153.5,39.3333 153,40.8333 154.5,43C 155.448,43.4828 156.448,43.6495 157.5,43.5C 156.264,45.0428 154.598,46.0428 152.5,46.5C 151.526,48.7427 151.192,51.076 151.5,53.5C 154.167,53.8333 156.833,54.1667 159.5,54.5C 158.71,55.4013 157.71,56.0679 156.5,56.5C 154.236,57.2186 151.903,57.552 149.5,57.5C 146.813,57.6641 144.146,57.4974 141.5,57C 140.058,56.6232 139.058,55.7899 138.5,54.5C 139.833,54.5 141.167,54.5 142.5,54.5C 142.292,52.0799 142.626,49.7466 143.5,47.5C 138.862,46.0296 134.862,43.5296 131.5,40C 129.5,39.6667 127.5,39.3333 125.5,39C 124.177,38.1841 123.511,37.0174 123.5,35.5C 123.953,34.5416 124.619,33.7083 125.5,33C 133.354,31.626 139.021,27.4593 142.5,20.5C 148.013,28.5649 155.679,32.2316 165.5,31.5 Z"/></g>
<g><path style="opacity:0.961" fill="#0c0705" d="M 97.5,24.5 C 101.767,24.203 105.934,24.5363 110,25.5C 111.397,34.6206 112.897,43.6206 114.5,52.5C 114.664,55.1873 114.497,57.854 114,60.5C 111.619,61.435 109.119,61.7683 106.5,61.5C 103.167,61.5 99.8333,61.5 96.5,61.5C 94.1104,61.3152 93.1104,59.9818 93.5,57.5C 95.7061,52.759 98.2061,48.0923 101,43.5C 100.842,40.8206 100.342,38.154 99.5,35.5C 97.0582,35.8808 96.3915,35.2141 97.5,33.5C 97.1924,32.6919 96.6924,32.0253 96,31.5C 95.2825,32.4506 94.4491,32.6172 93.5,32C 94.3366,30.9887 94.67,29.8221 94.5,28.5C 92.139,28.6741 89.8056,29.0074 87.5,29.5C 85.8362,27.3209 86.1695,25.4875 88.5,24C 91.592,23.2642 94.592,23.4309 97.5,24.5 Z"/></g>
<g><path style="opacity:0.972" fill="#c58d7f" d="M 183.5,93.5 C 183.343,92.1266 183.51,90.7932 184,89.5C 189.978,83.2128 194.144,75.8795 196.5,67.5C 201.657,69.9143 206.324,73.0809 210.5,77C 211.483,77.5908 212.15,77.2575 212.5,76C 214.769,65.8213 217.102,55.6547 219.5,45.5C 217.155,41.6381 215.489,37.4715 214.5,33C 216.167,30 217.833,27 219.5,24C 218.161,17.8179 217.828,11.6512 218.5,5.5C 223.272,6.44949 225.772,9.44949 226,14.5C 226.18,11.0445 226.847,7.71114 228,4.5C 229.183,3.26899 230.349,3.26899 231.5,4.5C 232.848,10.1259 234.014,15.7926 235,21.5C 236.494,20.2528 237.994,20.2528 239.5,21.5C 240.423,23.9242 241.923,25.9242 244,27.5C 245.131,29.7249 245.964,32.0583 246.5,34.5C 244.57,40.2614 242.403,45.9281 240,51.5C 238.674,69.1308 235.674,86.4641 231,103.5C 229.413,106.756 226.913,108.923 223.5,110C 218.777,110.624 214.11,110.29 209.5,109C 200.011,105.094 191.344,99.9272 183.5,93.5 Z"/></g>
<g><path style="opacity:0.977" fill="#c48d7f" d="M 96.5,61.5 C 96.427,63.0269 97.0937,64.0269 98.5,64.5C 99.6427,71.7267 101.476,78.7267 104,85.5C 104.513,84.4734 105.013,83.4734 105.5,82.5C 110.27,87.7229 115.937,91.7229 122.5,94.5C 120.488,99.1881 118.488,103.855 116.5,108.5C 115.957,108.56 115.624,108.893 115.5,109.5C 116.77,110.288 117.77,111.288 118.5,112.5C 114.716,119.451 109.383,124.951 102.5,129C 99.366,129.79 96.366,129.457 93.5,128C 91.2941,124.732 89.4607,121.232 88,117.5C 81.8699,91.1207 78.2032,64.454 77,37.5C 79.8552,33.7893 83.3552,31.1226 87.5,29.5C 89.8056,29.0074 92.139,28.6741 94.5,28.5C 94.67,29.8221 94.3366,30.9887 93.5,32C 94.4491,32.6172 95.2825,32.4506 96,31.5C 96.6924,32.0253 97.1924,32.6919 97.5,33.5C 96.3915,35.2141 97.0582,35.8808 99.5,35.5C 100.342,38.154 100.842,40.8206 101,43.5C 98.2061,48.0923 95.7061,52.759 93.5,57.5C 93.1104,59.9818 94.1104,61.3152 96.5,61.5 Z"/></g>
<g><path style="opacity:1" fill="#ef705a" d="M 139.5,38.5 C 143.161,38.3501 144.161,39.8501 142.5,43C 138.707,43.4866 137.707,41.9866 139.5,38.5 Z"/></g>
<g><path style="opacity:1" fill="#ef715c" d="M 158.5,43.5 C 158.167,43.5 157.833,43.5 157.5,43.5C 156.448,43.6495 155.448,43.4828 154.5,43C 153,40.8333 153.5,39.3333 156,38.5C 158.157,39.385 158.99,41.0516 158.5,43.5 Z"/></g>
<g><path style="opacity:1" fill="#312420" d="M 150.5,40.5 C 152.379,40.3932 152.712,40.8932 151.5,42C 149.833,42.6667 148.167,42.6667 146.5,42C 148.058,41.79 149.391,41.29 150.5,40.5 Z"/></g>
<g><path style="opacity:0.994" fill="#599c8e" d="M 138.5,54.5 C 139.058,55.7899 140.058,56.6232 141.5,57C 144.146,57.4974 146.813,57.6641 149.5,57.5C 147.357,65.8569 150.191,68.1903 158,64.5C 158.891,61.5024 158.391,58.8357 156.5,56.5C 157.71,56.0679 158.71,55.4013 159.5,54.5C 168.971,55.1176 177.971,57.451 186.5,61.5C 186.793,65.4367 186.46,69.27 185.5,73C 186.893,74.1711 187.727,75.6711 188,77.5C 188.236,75.236 188.736,73.0693 189.5,71C 187.679,68.544 187.012,65.7107 187.5,62.5C 190.738,63.7375 193.738,65.4042 196.5,67.5C 194.144,75.8795 189.978,83.2128 184,89.5C 183.51,90.7932 183.343,92.1266 183.5,93.5C 184.054,100.153 184.388,106.82 184.5,113.5C 181.572,113.565 178.905,114.232 176.5,115.5C 175.527,115.013 174.527,114.513 173.5,114C 174.756,109.961 175.423,105.794 175.5,101.5C 176.282,94.412 176.615,87.2453 176.5,80C 175.584,79.6258 174.75,79.1258 174,78.5C 172.274,74.0469 170.274,69.7136 168,65.5C 167.333,66.5 167.333,67.5 168,68.5C 173.381,78.1156 175.547,88.7822 174.5,100.5C 174.355,105.378 173.355,110.045 171.5,114.5C 168.689,115.08 166.023,115.746 163.5,116.5C 161.833,116.5 160.167,116.5 158.5,116.5C 158.561,111.122 158.728,105.788 159,100.5C 157.661,105.736 157.161,111.07 157.5,116.5C 148.708,116.961 140.041,116.295 131.5,114.5C 128.518,114.963 125.518,115.296 122.5,115.5C 122.218,114.222 121.551,113.222 120.5,112.5C 120.167,110.167 118.833,108.833 116.5,108.5C 118.488,103.855 120.488,99.1881 122.5,94.5C 115.937,91.7229 110.27,87.7229 105.5,82.5C 106.833,79.8333 108.167,77.1667 109.5,74.5C 114.119,73.8732 116.119,71.2065 115.5,66.5C 121.89,60.2446 129.557,56.2446 138.5,54.5 Z"/></g>
<g><path style="opacity:0.906" fill="#e48858" d="M 96.5,61.5 C 99.8333,61.5 103.167,61.5 106.5,61.5C 104.497,63.9819 101.831,64.9819 98.5,64.5C 97.0937,64.0269 96.427,63.0269 96.5,61.5 Z"/></g>
<g><path style="opacity:1" fill="#121816" d="M 156.5,56.5 C 158.391,58.8357 158.891,61.5024 158,64.5C 150.191,68.1903 147.357,65.8569 149.5,57.5C 151.903,57.552 154.236,57.2186 156.5,56.5 Z"/></g>
<g><path style="opacity:1" fill="#589b8d" d="M 151.5,58.5 C 156.159,58.0146 157.492,59.848 155.5,64C 150.728,64.8104 149.395,62.9771 151.5,58.5 Z"/></g>
<g><path style="opacity:1" fill="#182522" d="M 115.5,66.5 C 116.119,71.2065 114.119,73.8732 109.5,74.5C 111.025,71.437 113.025,68.7703 115.5,66.5 Z"/></g>
<g><path style="opacity:1" fill="#0d1413" d="M 131.5,63.5 C 137.665,62.8293 140.165,65.496 139,71.5C 135.952,75.4815 132.952,75.4815 130,71.5C 129.109,68.5024 129.609,65.8357 131.5,63.5 Z"/></g>
<g><path style="opacity:1" fill="#539386" d="M 132.5,65.5 C 137.747,65.6398 138.747,67.8064 135.5,72C 134.216,72.6838 133.049,72.5171 132,71.5C 131.322,69.4024 131.489,67.4024 132.5,65.5 Z"/></g>
<g><path style="opacity:1" fill="#1f3631" d="M 186.5,61.5 C 187.167,61.5 187.5,61.8333 187.5,62.5C 187.012,65.7107 187.679,68.544 189.5,71C 188.736,73.0693 188.236,75.236 188,77.5C 187.727,75.6711 186.893,74.1711 185.5,73C 186.46,69.27 186.793,65.4367 186.5,61.5 Z"/></g>
<g><path style="opacity:1" fill="#0c1312" d="M 150.5,78.5 C 155.757,78.688 157.924,81.3547 157,86.5C 153.667,90.5 150.333,90.5 147,86.5C 146.279,82.9463 147.446,80.2796 150.5,78.5 Z"/></g>
<g><path style="opacity:1" fill="#539285" d="M 149.5,81.5 C 154.123,80.4082 155.956,82.0748 155,86.5C 150.079,88.077 148.246,86.4103 149.5,81.5 Z"/></g>
<g><path style="opacity:1" fill="#0d1412" d="M 129.5,84.5 C 135.555,84.0522 137.721,86.7189 136,92.5C 133,96.5 130,96.5 127,92.5C 126.018,89.2253 126.851,86.5586 129.5,84.5 Z"/></g>
<g><path style="opacity:1" fill="#539386" d="M 129.5,86.5 C 134.328,86.3852 135.661,88.5519 133.5,93C 128.791,93.082 127.458,90.9154 129.5,86.5 Z"/></g>
<g><path style="opacity:1" fill="#325951" d="M 175.5,101.5 C 175.5,100.833 175.167,100.5 174.5,100.5C 175.547,88.7822 173.381,78.1156 168,68.5C 167.333,67.5 167.333,66.5 168,65.5C 170.274,69.7136 172.274,74.0469 174,78.5C 174.75,79.1258 175.584,79.6258 176.5,80C 176.615,87.2453 176.282,94.412 175.5,101.5 Z"/></g>
<g><path style="opacity:1" fill="#1d322e" d="M 158.5,116.5 C 158.167,116.5 157.833,116.5 157.5,116.5C 157.161,111.07 157.661,105.736 159,100.5C 158.728,105.788 158.561,111.122 158.5,116.5 Z"/></g>
<g><path style="opacity:0.999" fill="#1a211f" d="M 116.5,108.5 C 118.833,108.833 120.167,110.167 120.5,112.5C 119.833,112.5 119.167,112.5 118.5,112.5C 117.77,111.288 116.77,110.288 115.5,109.5C 115.624,108.893 115.957,108.56 116.5,108.5 Z"/></g>
<g><path style="opacity:1" fill="#0f1715" d="M 140.5,102.5 C 147.519,102.723 149.519,105.89 146.5,112C 140.24,114.412 137.407,112.245 138,105.5C 139.045,104.627 139.878,103.627 140.5,102.5 Z"/></g>
<g><path style="opacity:1" fill="#56978a" d="M 141.5,104.5 C 145.473,105.075 146.473,107.242 144.5,111C 139.382,110.824 138.382,108.658 141.5,104.5 Z"/></g>
<g><path style="opacity:0.964" fill="#060606" d="M 131.5,114.5 C 130.737,115.268 129.737,115.768 128.5,116C 129.849,116.772 130.682,117.939 131,119.5C 131.483,118.552 131.649,117.552 131.5,116.5C 135.452,117.272 139.452,117.605 143.5,117.5C 143.67,118.822 143.337,119.989 142.5,121C 139.986,122.252 137.32,122.752 134.5,122.5C 133.209,122.737 132.209,122.404 131.5,121.5C 131.44,120.957 131.107,120.624 130.5,120.5C 127.838,126.553 128.004,132.553 131,138.5C 131.816,139.823 132.983,140.489 134.5,140.5C 137.018,141.264 139.351,142.264 141.5,143.5C 151.827,146.557 162.494,148.557 173.5,149.5C 175.045,149.489 176.378,149.156 177.5,148.5C 178.492,148.328 179.158,148.662 179.5,149.5C 181.638,150.404 183.971,151.071 186.5,151.5C 187.416,151.457 188.083,151.124 188.5,150.5C 196.983,152.147 202.483,157.147 205,165.5C 207.746,171.654 209.913,177.987 211.5,184.5C 213.259,192.436 215.592,200.102 218.5,207.5C 220.944,213.181 222.611,219.181 223.5,225.5C 221.694,226.024 220.028,226.691 218.5,227.5C 217.153,228.171 215.986,228.171 215,227.5C 211.31,214.739 207.31,202.073 203,189.5C 196.488,203.855 189.988,218.188 183.5,232.5C 182.5,232.5 181.5,232.5 180.5,232.5C 180.167,232.5 179.833,232.5 179.5,232.5C 171.511,226.167 162.844,220.833 153.5,216.5C 152.761,216.631 152.094,216.464 151.5,216C 160.818,197.698 170.151,179.365 179.5,161C 163.832,160.361 148.165,159.694 132.5,159C 119.842,152.746 115.009,142.579 118,128.5C 119.012,123.962 120.512,119.629 122.5,115.5C 125.518,115.296 128.518,114.963 131.5,114.5 Z"/></g>
<g><path style="opacity:1" fill="#626264" d="M 131.5,114.5 C 140.041,116.295 148.708,116.961 157.5,116.5C 157.833,116.5 158.167,116.5 158.5,116.5C 160.167,116.5 161.833,116.5 163.5,116.5C 167.514,116.334 171.514,116.501 175.5,117C 174.234,117.309 173.067,117.809 172,118.5C 167.599,117.533 163.099,117.2 158.5,117.5C 158.674,122.021 158.007,122.355 156.5,118.5C 152.833,117.167 149.167,117.167 145.5,118.5C 143.028,123.274 139.361,124.607 134.5,122.5C 137.32,122.752 139.986,122.252 142.5,121C 143.337,119.989 143.67,118.822 143.5,117.5C 139.452,117.605 135.452,117.272 131.5,116.5C 131.649,117.552 131.483,118.552 131,119.5C 130.682,117.939 129.849,116.772 128.5,116C 129.737,115.768 130.737,115.268 131.5,114.5 Z"/></g>
<g><path style="opacity:0.986" fill="#030303" d="M 174.5,100.5 C 175.167,100.5 175.5,100.833 175.5,101.5C 175.423,105.794 174.756,109.961 173.5,114C 174.527,114.513 175.527,115.013 176.5,115.5C 176.369,116.376 176.702,117.043 177.5,117.5C 187.833,122.667 198.167,127.833 208.5,133C 211.939,135.139 215.106,137.639 218,140.5C 219.426,145.052 220.426,149.719 221,154.5C 231.086,175.674 240.919,197.007 250.5,218.5C 250.573,220.027 249.906,221.027 248.5,221.5C 240.171,222.833 231.837,224.166 223.5,225.5C 222.611,219.181 220.944,213.181 218.5,207.5C 217.145,199.444 214.812,191.777 211.5,184.5C 209.913,177.987 207.746,171.654 205,165.5C 202.483,157.147 196.983,152.147 188.5,150.5C 185.545,149.841 182.545,149.508 179.5,149.5C 179.158,148.662 178.492,148.328 177.5,148.5C 165.418,147.393 153.418,145.726 141.5,143.5C 139.351,142.264 137.018,141.264 134.5,140.5C 129.472,134.71 128.472,128.377 131.5,121.5C 132.209,122.404 133.209,122.737 134.5,122.5C 139.361,124.607 143.028,123.274 145.5,118.5C 149.167,117.167 152.833,117.167 156.5,118.5C 158.007,122.355 158.674,122.021 158.5,117.5C 163.099,117.2 167.599,117.533 172,118.5C 173.067,117.809 174.234,117.309 175.5,117C 171.514,116.501 167.514,116.334 163.5,116.5C 166.023,115.746 168.689,115.08 171.5,114.5C 173.355,110.045 174.355,105.378 174.5,100.5 Z"/></g>
<g><path style="opacity:1" fill="#514e50" d="M 161.5,125.5 C 175.719,127.055 189.719,130.555 203.5,136C 189.656,132.206 175.656,128.706 161.5,125.5 Z"/></g>
<g><path style="opacity:1" fill="#494648" d="M 131.5,121.5 C 128.472,128.377 129.472,134.71 134.5,140.5C 132.983,140.489 131.816,139.823 131,138.5C 128.004,132.553 127.838,126.553 130.5,120.5C 131.107,120.624 131.44,120.957 131.5,121.5 Z"/></g>
<g><path style="opacity:1" fill="#545254" d="M 141.5,143.5 C 153.418,145.726 165.418,147.393 177.5,148.5C 176.378,149.156 175.045,149.489 173.5,149.5C 162.494,148.557 151.827,146.557 141.5,143.5 Z"/></g>
<g><path style="opacity:1" fill="#5a575a" d="M 179.5,149.5 C 182.545,149.508 185.545,149.841 188.5,150.5C 188.083,151.124 187.416,151.457 186.5,151.5C 183.971,151.071 181.638,150.404 179.5,149.5 Z"/></g>
<g><path style="opacity:1" fill="#4f4d4f" d="M 180.5,160.5 C 181.449,159.848 182.615,159.514 184,159.5C 187.175,159.946 190.342,160.446 193.5,161C 191.236,161.236 189.069,161.736 187,162.5C 185,166.5 183,170.5 181,174.5C 182.166,169.808 183.666,165.141 185.5,160.5C 183.833,160.5 182.167,160.5 180.5,160.5 Z"/></g>
<g><path style="opacity:1" fill="#504e50" d="M 196.5,165.5 C 199.438,171.484 201.271,177.818 202,184.5C 199.651,178.289 197.818,171.956 196.5,165.5 Z"/></g>
<g><path style="opacity:1" fill="#4e4b4e" d="M 211.5,184.5 C 214.812,191.777 217.145,199.444 218.5,207.5C 215.592,200.102 213.259,192.436 211.5,184.5 Z"/></g>
<g><path style="opacity:0.97" fill="#f16f59" d="M 153.5,216.5 C 162.844,220.833 171.511,226.167 179.5,232.5C 179.5,232.833 179.5,233.167 179.5,233.5C 178.833,233.5 178.5,233.833 178.5,234.5C 175.964,237.138 176.297,239.471 179.5,241.5C 179.5,242.167 179.833,242.5 180.5,242.5C 184.02,245.075 185.353,248.408 184.5,252.5C 183.833,252.5 183.167,252.5 182.5,252.5C 171.142,246.068 159.642,239.734 148,233.5C 147.333,231.5 147.333,229.5 148,227.5C 149.847,223.807 151.68,220.14 153.5,216.5 Z"/></g>
<g><path style="opacity:0.969" fill="#f06e59" d="M 248.5,221.5 C 248.541,226.208 250.874,228.541 255.5,228.5C 258.421,229.194 261.421,230.027 264.5,231C 265.731,232.183 265.731,233.349 264.5,234.5C 251.784,237.981 238.95,240.981 226,243.5C 224.342,243.325 223.009,242.658 222,241.5C 220.52,236.898 219.354,232.231 218.5,227.5C 220.028,226.691 221.694,226.024 223.5,225.5C 231.837,224.166 240.171,222.833 248.5,221.5 Z"/></g>
<g><path style="opacity:0.435" fill="#b6b0b5" d="M 250.5,218.5 C 253.5,218.167 254.833,219.5 254.5,222.5C 258.485,222.629 259.818,224.463 258.5,228C 257.552,228.483 256.552,228.649 255.5,228.5C 250.874,228.541 248.541,226.208 248.5,221.5C 249.906,221.027 250.573,220.027 250.5,218.5 Z M 251.5,220.5 C 252.465,221.721 252.298,223.054 251,224.5C 250.421,223.072 250.588,221.738 251.5,220.5 Z M 255.5,224.5 C 256.376,224.369 257.043,224.702 257.5,225.5C 255.192,226.873 254.525,226.54 255.5,224.5 Z"/></g>
<g><path style="opacity:0.494" fill="#b9b2b6" d="M 180.5,232.5 C 181.5,232.5 182.5,232.5 183.5,232.5C 184.695,232.866 185.361,233.699 185.5,235C 185.172,237.025 185.006,239.191 185,241.5C 183.644,242.38 182.144,242.714 180.5,242.5C 179.833,242.5 179.5,242.167 179.5,241.5C 176.297,239.471 175.964,237.138 178.5,234.5C 179.167,234.5 179.5,234.167 179.5,233.5C 180.167,233.5 180.5,233.167 180.5,232.5 Z M 180.5,234.5 C 184.243,234.459 184.41,235.126 181,236.5C 180.536,235.906 180.369,235.239 180.5,234.5 Z M 180.5,239.5 C 181.497,238.287 182.497,238.454 183.5,240C 182.423,240.47 181.423,240.303 180.5,239.5 Z"/></g>
</svg>
