<?xml version="1.0" encoding="UTF-8"?>
<!DOCTYPE svg PUBLIC "-//W3C//DTD SVG 1.1//EN" "http://www.w3.org/Graphics/SVG/1.1/DTD/svg11.dtd">
<svg xmlns="http://www.w3.org/2000/svg" version="1.1" width="375px" height="265px" style="shape-rendering:geometricPrecision; text-rendering:geometricPrecision; image-rendering:optimizeQuality; fill-rule:evenodd; clip-rule:evenodd" xmlns:xlink="http://www.w3.org/1999/xlink">
<g><path style="opacity:0.966" fill="#fef4ed" d="M 243.5,30.5 C 245.167,30.5 246.833,30.5 248.5,30.5C 251.711,30.988 254.544,30.3213 257,28.5C 257.632,34.8323 257.465,36.1656 256.5,32.5C 253.5,32.5 250.5,32.5 247.5,32.5C 245.708,32.366 244.042,32.6993 242.5,33.5C 237.36,32.5119 232.026,32.1786 226.5,32.5C 225.852,45.8763 226.519,58.8763 228.5,71.5C 228.443,72.609 228.11,73.609 227.5,74.5C 226.167,74.5 224.833,74.5 223.5,74.5C 223.5,59.8333 223.5,45.1667 223.5,30.5C 225.5,30.5 227.5,30.5 229.5,30.5C 229.5,24.1667 229.5,17.8333 229.5,11.5C 208.833,11.5 188.167,11.5 167.5,11.5C 167.5,13.8333 167.5,16.1667 167.5,18.5C 151.833,18.5 136.167,18.5 120.5,18.5C 120.5,12.5 120.5,6.5 120.5,0.5C 136.167,0.5 151.833,0.5 167.5,0.5C 167.5,3.16667 167.5,5.83333 167.5,8.5C 188.833,8.5 210.167,8.5 231.5,8.5C 231.5,15.8333 231.5,23.1667 231.5,30.5C 235.5,30.5 239.5,30.5 243.5,30.5 Z"/></g>
<g><path style="opacity:0.922" fill="#cdb2ab" d="M 299.5,24.5 C 298.292,25.2341 296.959,25.5674 295.5,25.5C 295.971,21.644 296.638,17.8107 297.5,14C 296.242,7.74832 292.409,4.91498 286,5.5C 281.803,6.64579 277.47,7.31246 273,7.5C 268.344,7.434 264.01,6.434 260,4.5C 255.56,3.61116 252.56,5.27783 251,9.5C 249.591,16.4356 248.758,23.4356 248.5,30.5C 246.833,30.5 245.167,30.5 243.5,30.5C 244.432,22.8066 245.599,15.1399 247,7.5C 248.458,5.04003 250.291,2.87337 252.5,1C 266.889,0.0698554 281.222,0.403189 295.5,2C 297.378,3.5429 298.878,5.37623 300,7.5C 300.469,13.1815 300.302,18.8482 299.5,24.5 Z"/></g>
<g><path style="opacity:1" fill="#f3efee" d="M 299.5,24.5 C 302.585,24.418 304.252,25.918 304.5,29C 303.544,35.1948 302.544,41.3615 301.5,47.5C 293.913,46.3686 286.246,46.2019 278.5,47C 277.594,48.6995 277.261,50.5328 277.5,52.5C 285.352,52.1746 293.018,52.508 300.5,53.5C 301.323,58.3394 299.323,60.6728 294.5,60.5C 292.958,59.6993 291.292,59.366 289.5,59.5C 288.328,69.5347 286.828,79.5347 285,89.5C 283.457,91.3783 281.624,92.8783 279.5,94C 267.151,93.5225 254.818,92.5225 242.5,91C 241.333,90.5 240.5,89.6667 240,88.5C 239.503,86.1902 239.337,83.8568 239.5,81.5C 245.842,81.6662 252.175,81.4995 258.5,81C 261,78.4021 262.333,75.2354 262.5,71.5C 262.471,69.9707 261.804,68.804 260.5,68C 254.084,68.1285 248.084,67.2952 242.5,65.5C 243.892,54.4223 245.558,43.4223 247.5,32.5C 250.5,32.5 253.5,32.5 256.5,32.5C 257.465,36.1656 257.632,34.8323 257,28.5C 254.544,30.3213 251.711,30.988 248.5,30.5C 248.758,23.4356 249.591,16.4356 251,9.5C 252.56,5.27783 255.56,3.61116 260,4.5C 264.01,6.434 268.344,7.434 273,7.5C 277.47,7.31246 281.803,6.64579 286,5.5C 292.409,4.91498 296.242,7.74832 297.5,14C 296.638,17.8107 295.971,21.644 295.5,25.5C 296.959,25.5674 298.292,25.2341 299.5,24.5 Z"/></g>
<g><path style="opacity:0.993" fill="#fef4ed" d="M 157.5,53.5 C 147.219,55.4762 136.552,56.1428 125.5,55.5C 125.5,71.1667 125.5,86.8333 125.5,102.5C 132.022,102.177 138.355,102.51 144.5,103.5C 140.53,108.323 139.696,113.656 142,119.5C 143.356,120.38 144.856,120.714 146.5,120.5C 147.833,121.833 149.167,121.833 150.5,120.5C 151.833,120.5 153.167,120.5 154.5,120.5C 155.139,121.097 155.472,121.93 155.5,123C 155.316,124.376 154.649,125.209 153.5,125.5C 145.728,127.039 139.728,131.039 135.5,137.5C 136.108,139.684 135.441,141.684 133.5,143.5C 133.5,143.833 133.5,144.167 133.5,144.5C 131.588,146.657 129.921,148.991 128.5,151.5C 112.163,151.667 95.8299,151.5 79.5,151C 83.6346,149.569 87.968,149.069 92.5,149.5C 92.5,147.167 92.5,144.833 92.5,142.5C 98.979,141.509 105.646,141.176 112.5,141.5C 112.5,127.833 112.5,114.167 112.5,100.5C 103.833,100.5 95.1667,100.5 86.5,100.5C 84.0903,84.8889 82.0903,69.2223 80.5,53.5C 82.9479,52.5269 85.6146,52.1936 88.5,52.5C 88.1872,48.9581 88.5206,45.6248 89.5,42.5C 106.833,42.5 124.167,42.5 141.5,42.5C 141.5,38.1667 141.5,33.8333 141.5,29.5C 156.5,29.5 171.5,29.5 186.5,29.5C 186.5,26.8333 186.5,24.1667 186.5,21.5C 197.833,21.5 209.167,21.5 220.5,21.5C 220.5,27.1667 220.5,32.8333 220.5,38.5C 209.167,38.5 197.833,38.5 186.5,38.5C 186.5,36.5 186.5,34.5 186.5,32.5C 172.5,32.5 158.5,32.5 144.5,32.5C 144.5,35.8333 144.5,39.1667 144.5,42.5C 148.5,42.5 152.5,42.5 156.5,42.5C 156.942,46.1545 157.276,49.8212 157.5,53.5 Z"/></g>
<g><path style="opacity:0.92" fill="#cdb1aa" d="M 247.5,32.5 C 245.558,43.4223 243.892,54.4223 242.5,65.5C 241.844,66.2778 241.011,66.9444 240,67.5C 239.235,67.4301 238.735,67.0967 238.5,66.5C 240.208,55.5461 241.541,44.5461 242.5,33.5C 244.042,32.6993 245.708,32.366 247.5,32.5 Z"/></g>
<g><path style="opacity:1" fill="#e3d5c6" d="M 261.5,32.5 C 265.5,32.5 269.5,32.5 273.5,32.5C 272.947,37.482 272.613,42.482 272.5,47.5C 268.167,47.5 263.833,47.5 259.5,47.5C 260.058,42.4843 260.725,37.4843 261.5,32.5 Z"/></g>
<g><path style="opacity:0.787" fill="#ccafa9" d="M 89.5,42.5 C 88.5206,45.6248 88.1872,48.9581 88.5,52.5C 85.6146,52.1936 82.9479,52.5269 80.5,53.5C 76.8333,53.5 73.1667,53.5 69.5,53.5C 69.5,46.8333 69.5,40.1667 69.5,33.5C 76.1667,33.5 82.8333,33.5 89.5,33.5C 89.5,36.5 89.5,39.5 89.5,42.5 Z M 86.5,42.5 C 83.8333,42.5 81.1667,42.5 78.5,42.5C 78.8333,45.1667 79.1667,47.8333 79.5,50.5C 77.1667,50.5 74.8333,50.5 72.5,50.5C 72.5,45.8333 72.5,41.1667 72.5,36.5C 77.1667,36.5 81.8333,36.5 86.5,36.5C 86.5,38.5 86.5,40.5 86.5,42.5 Z"/></g>
<g><path style="opacity:0.967" fill="#fcf2eb" d="M 86.5,42.5 C 87.4767,45.2869 87.81,48.2869 87.5,51.5C 84.7212,51.7214 82.0545,51.388 79.5,50.5C 79.1667,47.8333 78.8333,45.1667 78.5,42.5C 81.1667,42.5 83.8333,42.5 86.5,42.5 Z"/></g>
<g><path style="opacity:0.993" fill="#cfb5ae" d="M 301.5,47.5 C 304.189,49.8147 303.855,51.8147 300.5,53.5C 293.018,52.508 285.352,52.1746 277.5,52.5C 277.261,50.5328 277.594,48.6995 278.5,47C 286.246,46.2019 293.913,46.3686 301.5,47.5 Z"/></g>
<g><path style="opacity:0.999" fill="#f3efef" d="M 157.5,53.5 C 162.74,54.4491 168.073,54.7825 173.5,54.5C 173.5,70.8333 173.5,87.1667 173.5,103.5C 170.941,103.198 168.607,103.532 166.5,104.5C 159.436,98.2707 152.103,97.9374 144.5,103.5C 138.355,102.51 132.022,102.177 125.5,102.5C 125.5,86.8333 125.5,71.1667 125.5,55.5C 136.552,56.1428 147.219,55.4762 157.5,53.5 Z"/></g>
<g><path style="opacity:0.919" fill="#ceb3ac" d="M 294.5,60.5 C 292.866,69.7642 291.366,79.0975 290,88.5C 287.353,95.3259 282.353,98.6593 275,98.5C 263.45,97.6888 251.95,96.5221 240.5,95C 236.017,91.3873 234.683,86.8873 236.5,81.5C 237.5,81.5 238.5,81.5 239.5,81.5C 239.337,83.8568 239.503,86.1902 240,88.5C 240.5,89.6667 241.333,90.5 242.5,91C 254.818,92.5225 267.151,93.5225 279.5,94C 281.624,92.8783 283.457,91.3783 285,89.5C 286.828,79.5347 288.328,69.5347 289.5,59.5C 291.292,59.366 292.958,59.6993 294.5,60.5 Z"/></g>
<g><path style="opacity:0.982" fill="#e3d5c7" d="M 242.5,65.5 C 248.084,67.2952 254.084,68.1285 260.5,68C 261.804,68.804 262.471,69.9707 262.5,71.5C 262.333,75.2354 261,78.4021 258.5,81C 252.175,81.4995 245.842,81.6662 239.5,81.5C 238.5,81.5 237.5,81.5 236.5,81.5C 230.11,83.1644 227.11,80.8311 227.5,74.5C 228.11,73.609 228.443,72.609 228.5,71.5C 228.628,69.9102 229.295,68.5769 230.5,67.5C 233.084,66.6072 235.751,66.2739 238.5,66.5C 238.735,67.0967 239.235,67.4301 240,67.5C 241.011,66.9444 241.844,66.2778 242.5,65.5 Z"/></g>
<g><path style="opacity:0.928" fill="#cdb0a9" d="M 54.5,84.5 C 63.5,84.5 72.5,84.5 81.5,84.5C 81.5,89.5 81.5,94.5 81.5,99.5C 79.1579,99.4959 77.1579,98.6625 75.5,97C 68.5079,96.5004 61.5079,96.3337 54.5,96.5C 54.5,92.5 54.5,88.5 54.5,84.5 Z"/></g>
<g><path style="opacity:1" fill="#d4bcb7" d="M 162.5,57.5 C 165.167,57.5 167.833,57.5 170.5,57.5C 170.813,60.2469 170.48,62.9135 169.5,65.5C 168.719,64.2713 168.219,62.938 168,61.5C 156.167,73.3333 144.333,85.1667 132.5,97C 134.044,97.2896 135.377,97.9563 136.5,99C 133.854,99.4974 131.187,99.6641 128.5,99.5C 128.187,96.7531 128.52,94.0865 129.5,91.5C 130.281,92.7287 130.781,94.062 131,95.5C 142.779,83.7208 154.613,71.8874 166.5,60C 164.563,59.8784 163.23,59.045 162.5,57.5 Z"/></g>
<g><path style="opacity:0.958" fill="#12100f" d="M 166.5,104.5 C 168.649,107.185 169.983,110.352 170.5,114C 169.767,115.766 169.433,117.599 169.5,119.5C 168.609,120.11 167.609,120.443 166.5,120.5C 165.438,118.901 165.438,117.234 166.5,115.5C 166.5,114.833 166.5,114.167 166.5,113.5C 168.056,110.725 167.556,108.392 165,106.5C 160.522,107.506 156.022,107.506 151.5,106.5C 151.382,110.788 149.215,113.455 145,114.5C 144.678,116.689 145.178,118.689 146.5,120.5C 144.856,120.714 143.356,120.38 142,119.5C 139.696,113.656 140.53,108.323 144.5,103.5C 152.103,97.9374 159.436,98.2707 166.5,104.5 Z"/></g>
<g><path style="opacity:0.992" fill="#e3d4c5" d="M 86.5,100.5 C 95.1667,100.5 103.833,100.5 112.5,100.5C 112.5,114.167 112.5,127.833 112.5,141.5C 105.646,141.176 98.979,141.509 92.5,142.5C 85.5,142.5 78.5,142.5 71.5,142.5C 71.5,128.5 71.5,114.5 71.5,100.5C 76.5,100.5 81.5,100.5 86.5,100.5 Z"/></g>
<g><path style="opacity:1" fill="#c3887a" d="M 166.5,113.5 C 165.739,112.609 164.739,111.942 163.5,111.5C 161.723,112.603 159.889,112.603 158,111.5C 155.244,111.424 154.077,112.757 154.5,115.5C 155.85,116.151 157.183,116.818 158.5,117.5C 161.808,117.617 162.141,116.95 159.5,115.5C 159.808,114.692 160.308,114.025 161,113.5C 162.815,114.244 164.648,114.911 166.5,115.5C 165.438,117.234 165.438,118.901 166.5,120.5C 164.777,121.807 162.943,121.807 161,120.5C 160.506,122.134 160.34,123.801 160.5,125.5C 162.167,125.5 163.833,125.5 165.5,125.5C 161.53,128.079 157.53,128.079 153.5,125.5C 154.649,125.209 155.316,124.376 155.5,123C 155.472,121.93 155.139,121.097 154.5,120.5C 153.152,119.399 151.652,118.399 150,117.5C 149.53,118.577 149.697,119.577 150.5,120.5C 149.167,121.833 147.833,121.833 146.5,120.5C 145.178,118.689 144.678,116.689 145,114.5C 149.215,113.455 151.382,110.788 151.5,106.5C 156.022,107.506 160.522,107.506 165,106.5C 167.556,108.392 168.056,110.725 166.5,113.5 Z"/></g>
<g><path style="opacity:0.964" fill="#c58e80" d="M 215.5,149.5 C 214.662,149.842 214.328,150.508 214.5,151.5C 214.614,159.054 210.947,162.388 203.5,161.5C 202.5,161.5 201.5,161.5 200.5,161.5C 200.5,160.833 200.167,160.5 199.5,160.5C 198.833,160.5 198.167,160.5 197.5,160.5C 192.644,158.24 188.311,155.24 184.5,151.5C 183.942,150.21 182.942,149.377 181.5,149C 185.151,144.191 188.151,139.025 190.5,133.5C 194.032,134.853 197.199,136.853 200,139.5C 202.141,132.985 203.974,126.319 205.5,119.5C 203.953,117.067 202.953,114.401 202.5,111.5C 202.637,109.04 203.637,107.04 205.5,105.5C 204.638,101.547 204.305,97.5474 204.5,93.5C 206.911,93.1367 208.411,94.1367 209,96.5C 209.687,94.4453 210.854,92.7786 212.5,91.5C 214.193,95.2766 215.36,99.2766 216,103.5C 217.243,102.664 218.41,102.997 219.5,104.5C 224.605,109.322 224.771,114.322 220,119.5C 218.639,129.529 217.139,139.529 215.5,149.5 Z"/></g>
<g><path style="opacity:1" fill="#8b7a76" d="M 166.5,113.5 C 166.5,114.167 166.5,114.833 166.5,115.5C 164.648,114.911 162.815,114.244 161,113.5C 160.308,114.025 159.808,114.692 159.5,115.5C 162.141,116.95 161.808,117.617 158.5,117.5C 157.183,116.818 155.85,116.151 154.5,115.5C 154.077,112.757 155.244,111.424 158,111.5C 159.889,112.603 161.723,112.603 163.5,111.5C 164.739,111.942 165.739,112.609 166.5,113.5 Z"/></g>
<g><path style="opacity:1" fill="#422b26" d="M 154.5,120.5 C 153.167,120.5 151.833,120.5 150.5,120.5C 149.697,119.577 149.53,118.577 150,117.5C 151.652,118.399 153.152,119.399 154.5,120.5 Z"/></g>
<g><path style="opacity:0.987" fill="#fdf0e9" d="M 169.5,119.5 C 169.517,121.565 169.85,123.565 170.5,125.5C 168.833,125.5 167.167,125.5 165.5,125.5C 163.833,125.5 162.167,125.5 160.5,125.5C 160.34,123.801 160.506,122.134 161,120.5C 162.943,121.807 164.777,121.807 166.5,120.5C 167.609,120.443 168.609,120.11 169.5,119.5 Z"/></g>
<g><path style="opacity:0.992" fill="#ebac8c" d="M 153.5,125.5 C 157.53,128.079 161.53,128.079 165.5,125.5C 167.167,125.5 168.833,125.5 170.5,125.5C 177.954,126.424 184.621,129.091 190.5,133.5C 188.151,139.025 185.151,144.191 181.5,149C 182.942,149.377 183.942,150.21 184.5,151.5C 182.155,153.357 181.822,155.69 183.5,158.5C 182.766,159.708 182.433,161.041 182.5,162.5C 173.661,164.73 164.661,165.73 155.5,165.5C 157.488,163.535 158.988,161.202 160,158.5C 160.659,154.074 161.825,149.908 163.5,146C 161.304,144.778 159.804,142.944 159,140.5C 159.135,142.425 159.302,144.425 159.5,146.5C 156.159,147.005 152.826,147.172 149.5,147C 150.289,143.405 151.456,139.905 153,136.5C 156.11,137.673 156.277,137.173 153.5,135C 157.24,131.375 161.574,130.542 166.5,132.5C 161.555,129.533 156.888,130.033 152.5,134C 149.24,134.784 146.073,134.617 143,133.5C 140.843,135.495 138.343,136.828 135.5,137.5C 139.728,131.039 145.728,127.039 153.5,125.5 Z"/></g>
<g><path style="opacity:1" fill="#7f5c4b" d="M 166.5,132.5 C 169.634,133.714 171.634,136.047 172.5,139.5C 171.758,140.287 170.925,140.953 170,141.5C 170.087,137.92 168.92,134.92 166.5,132.5 Z"/></g>
<g><path style="opacity:0.959" fill="#c58d7f" d="M 133.5,144.5 C 136.289,147.066 139.289,149.4 142.5,151.5C 140.604,154.827 139.604,158.16 139.5,161.5C 141.483,160.018 143.316,158.351 145,156.5C 145.167,156.833 145.333,157.167 145.5,157.5C 143.722,159.264 142.389,161.264 141.5,163.5C 134.506,176.486 128.339,189.82 123,203.5C 121.883,202.051 121.216,200.384 121,198.5C 118.273,201.731 115.106,204.397 111.5,206.5C 108.41,205.105 105.743,203.105 103.5,200.5C 102.386,199.277 102.219,197.944 103,196.5C 113.031,182.447 121.531,167.447 128.5,151.5C 129.921,148.991 131.588,146.657 133.5,144.5 Z"/></g>
<g><path style="opacity:0.998" fill="#edac8c" d="M 140.5,146.5 C 142.811,148.068 145.478,148.902 148.5,149C 147.385,153.171 147.718,153.338 149.5,149.5C 153.105,148.461 156.772,147.795 160.5,147.5C 160.787,154.04 158.787,159.707 154.5,164.5C 151.833,164.5 149.167,164.5 146.5,164.5C 144.883,163.962 143.216,163.629 141.5,163.5C 142.389,161.264 143.722,159.264 145.5,157.5C 145.333,157.167 145.167,156.833 145,156.5C 143.316,158.351 141.483,160.018 139.5,161.5C 139.604,158.16 140.604,154.827 142.5,151.5C 139.289,149.4 136.289,147.066 133.5,144.5C 133.5,144.167 133.5,143.833 133.5,143.5C 134.496,143.586 135.329,143.252 136,142.5C 136.748,144.751 138.248,146.084 140.5,146.5 Z"/></g>
<g><path style="opacity:1" fill="#694d3f" d="M 166.5,132.5 C 161.574,130.542 157.24,131.375 153.5,135C 156.277,137.173 156.11,137.673 153,136.5C 151.456,139.905 150.289,143.405 149.5,147C 152.826,147.172 156.159,147.005 159.5,146.5C 159.302,144.425 159.135,142.425 159,140.5C 159.804,142.944 161.304,144.778 163.5,146C 161.825,149.908 160.659,154.074 160,158.5C 158.988,161.202 157.488,163.535 155.5,165.5C 154.833,165.5 154.5,165.167 154.5,164.5C 158.787,159.707 160.787,154.04 160.5,147.5C 156.772,147.795 153.105,148.461 149.5,149.5C 147.718,153.338 147.385,153.171 148.5,149C 145.478,148.902 142.811,148.068 140.5,146.5C 138.248,146.084 136.748,144.751 136,142.5C 135.329,143.252 134.496,143.586 133.5,143.5C 135.441,141.684 136.108,139.684 135.5,137.5C 138.343,136.828 140.843,135.495 143,133.5C 146.073,134.617 149.24,134.784 152.5,134C 156.888,130.033 161.555,129.533 166.5,132.5 Z"/></g>
<g><path style="opacity:1" fill="#edac8c" d="M 140.5,146.5 C 139.315,145.143 138.315,143.643 137.5,142C 140.661,136.168 145.328,134.502 151.5,137C 150.188,140.051 149.188,143.217 148.5,146.5C 145.911,147.205 143.244,147.205 140.5,146.5 Z"/></g>
<g><path style="opacity:0.837" fill="#fef5ed" d="M 215.5,149.5 C 250.173,149.167 284.84,149.5 319.5,150.5C 284.506,151.5 249.506,151.833 214.5,151.5C 214.328,150.508 214.662,149.842 215.5,149.5 Z"/></g>
<g><path style="opacity:0.983" fill="#93bfe8" d="M 183.5,158.5 C 188.097,159.382 192.763,160.049 197.5,160.5C 198.167,160.5 198.833,160.5 199.5,160.5C 200.167,160.5 200.5,160.833 200.5,161.5C 201.5,161.5 202.5,161.5 203.5,161.5C 207.495,162.735 211.161,164.735 214.5,167.5C 215.585,170.773 215.752,174.106 215,177.5C 213.133,185.768 210.466,193.768 207,201.5C 201.918,213.333 196.085,224.667 189.5,235.5C 190.172,232.058 189.172,229.391 186.5,227.5C 182.645,224.965 178.312,223.965 173.5,224.5C 168.995,224.441 165.329,226.108 162.5,229.5C 171.059,214.723 179.893,200.056 189,185.5C 190.009,183.975 190.509,182.308 190.5,180.5C 183.176,179.863 176.009,178.53 169,176.5C 163.749,202.088 158.749,227.754 154,253.5C 153.722,254.416 153.222,255.082 152.5,255.5C 144.231,255.558 136.231,254.224 128.5,251.5C 128.077,250.735 127.743,249.902 127.5,249C 133.266,220.667 139.599,192.5 146.5,164.5C 149.167,164.5 151.833,164.5 154.5,164.5C 154.5,165.167 154.833,165.5 155.5,165.5C 164.661,165.73 173.661,164.73 182.5,162.5C 182.433,161.041 182.766,159.708 183.5,158.5 Z"/></g>
<g><path style="opacity:0.386" fill="#000000" d="M 255.5,173.5 C 256.777,174.694 257.444,176.36 257.5,178.5C 257.167,180.167 256.833,181.833 256.5,183.5C 255.513,180.232 255.18,176.898 255.5,173.5 Z"/></g>
<g><path style="opacity:0.31" fill="#000000" d="M 245.5,176.5 C 248.298,177.706 250.465,179.706 252,182.5C 252.749,183.635 252.583,184.635 251.5,185.5C 248.622,182.979 246.622,179.979 245.5,176.5 Z"/></g>
<g><path style="opacity:0.339" fill="#000000" d="M 240.5,184.5 C 243.901,183.839 246.901,185.005 249.5,188C 246.084,188.127 243.084,186.96 240.5,184.5 Z"/></g>
<g><path style="opacity:0.833" fill="#0a0a0a" d="M 262.5,188.5 C 260.833,188.5 259.167,188.5 257.5,188.5C 258.86,196.187 260.36,203.854 262,211.5C 264.505,209.251 267.172,207.251 270,205.5C 272.828,207.251 275.495,209.251 278,211.5C 279.5,210 281,208.5 282.5,207C 281.748,206.329 281.414,205.496 281.5,204.5C 282.812,205.145 283.812,206.145 284.5,207.5C 283.42,212.511 280.754,216.344 276.5,219C 273.352,217.744 270.352,215.91 267.5,213.5C 264.648,215.91 261.648,217.744 258.5,219C 256.774,211.206 255.108,203.373 253.5,195.5C 254.407,192.943 255.407,190.443 256.5,188C 258.712,187.211 260.712,187.378 262.5,188.5 Z"/></g>
<g><path style="opacity:1" fill="#e3dfdf" d="M 262.5,188.5 C 266.965,189.033 271.298,190.033 275.5,191.5C 277.48,193.105 279.813,194.272 282.5,195C 280.624,197.046 278.624,198.879 276.5,200.5C 277.611,202.552 279.277,203.886 281.5,204.5C 281.414,205.496 281.748,206.329 282.5,207C 281,208.5 279.5,210 278,211.5C 275.495,209.251 272.828,207.251 270,205.5C 267.172,207.251 264.505,209.251 262,211.5C 260.36,203.854 258.86,196.187 257.5,188.5C 259.167,188.5 260.833,188.5 262.5,188.5 Z"/></g>
<g><path style="opacity:0.704" fill="#222121" d="M 275.5,191.5 C 278.994,191.614 281.994,192.78 284.5,195C 282.993,198.021 281.993,201.188 281.5,204.5C 279.277,203.886 277.611,202.552 276.5,200.5C 278.624,198.879 280.624,197.046 282.5,195C 279.813,194.272 277.48,193.105 275.5,191.5 Z"/></g>
<g><path style="opacity:1" fill="#be897d" d="M 173.5,224.5 C 178.312,223.965 182.645,224.965 186.5,227.5C 184.399,230.127 183.066,233.127 182.5,236.5C 176.465,235.476 173.465,231.809 173.5,225.5C 173.5,225.167 173.5,224.833 173.5,224.5 Z"/></g>
<g><path style="opacity:0.961" fill="#3c73ab" d="M 173.5,224.5 C 173.5,224.833 173.5,225.167 173.5,225.5C 168.988,227.347 166.321,230.68 165.5,235.5C 167.167,235.5 168.833,235.5 170.5,235.5C 170.768,237.099 170.434,238.432 169.5,239.5C 164.141,238.076 161.807,234.743 162.5,229.5C 165.329,226.108 168.995,224.441 173.5,224.5 Z"/></g>
<g><path style="opacity:0.926" fill="#030304" d="M 173.5,225.5 C 173.465,231.809 176.465,235.476 182.5,236.5C 181.314,237.961 181.314,239.295 182.5,240.5C 181.622,245.339 180.122,250.005 178,254.5C 174.28,257.215 171.613,256.215 170,251.5C 169.501,247.514 169.334,243.514 169.5,239.5C 170.434,238.432 170.768,237.099 170.5,235.5C 168.833,235.5 167.167,235.5 165.5,235.5C 166.321,230.68 168.988,227.347 173.5,225.5 Z"/></g>
<g><path style="opacity:0.978" fill="#3e70a9" d="M 186.5,227.5 C 189.172,229.391 190.172,232.058 189.5,235.5C 188.167,238.353 185.834,240.019 182.5,240.5C 181.314,239.295 181.314,237.961 182.5,236.5C 183.066,233.127 184.399,230.127 186.5,227.5 Z"/></g>
<g><path style="opacity:0.837" fill="#020202" d="M 128.5,251.5 C 136.231,254.224 144.231,255.558 152.5,255.5C 153.315,256.837 154.482,257.837 156,258.5C 156.678,260.598 156.511,262.598 155.5,264.5C 152.5,264.5 149.5,264.5 146.5,264.5C 141.972,263.231 137.972,260.897 134.5,257.5C 131.396,261.768 129.063,261.435 127.5,256.5C 128.046,254.865 128.38,253.199 128.5,251.5 Z"/></g>
</svg>
