<?xml version="1.0" encoding="UTF-8"?>
<svg xmlns="http://www.w3.org/2000/svg" version="1.1" width="375px" height="264px" style="shape-rendering:geometricPrecision; text-rendering:geometricPrecision; image-rendering:optimizeQuality; fill-rule:evenodd; clip-rule:evenodd" xmlns:xlink="http://www.w3.org/1999/xlink">
<g><path style="opacity:1" fill="#000000" d="M -0.5,-0.5 C 124.5,-0.5 249.5,-0.5 374.5,-0.5C 374.5,87.5 374.5,175.5 374.5,263.5C 249.5,263.5 124.5,263.5 -0.5,263.5C -0.5,175.5 -0.5,87.5 -0.5,-0.5 Z M 150.5,0.5 C 121.253,9.10673 106.919,28.7734 107.5,59.5C 102.358,64.2499 101.192,69.9165 104,76.5C 108.297,86.1331 114.797,93.9664 123.5,100C 120.567,101.271 117.901,102.938 115.5,105C 116.022,105.561 116.355,106.228 116.5,107C 115.144,108.567 114.477,110.4 114.5,112.5C 115.5,112.5 116.5,112.5 117.5,112.5C 117.5,113.5 117.5,114.5 117.5,115.5C 120.417,116.291 123.25,116.291 126,115.5C 126.249,116.624 126.749,117.624 127.5,118.5C 128.298,116.922 128.798,115.256 129,113.5C 129.915,115.98 131.415,116.647 133.5,115.5C 135.81,111.746 137.643,107.746 139,103.5C 140.011,102.663 141.178,102.33 142.5,102.5C 143.391,103.11 144.391,103.443 145.5,103.5C 145.842,104.338 146.508,104.672 147.5,104.5C 154.291,106.757 161.291,108.091 168.5,108.5C 169.167,108.5 169.833,108.5 170.5,108.5C 176.327,109.633 181.993,108.967 187.5,106.5C 188.228,108.735 189.561,110.568 191.5,112C 205.293,120.319 220.293,125.153 236.5,126.5C 238.926,126.596 241.093,125.93 243,124.5C 245.141,120.625 245.641,116.625 244.5,112.5C 242.5,112.5 240.5,112.5 238.5,112.5C 238.67,111.178 238.337,110.011 237.5,109C 231.833,108.667 226.167,108.333 220.5,108C 214.923,104.39 209.59,100.557 204.5,96.5C 220.795,81.1064 226.295,62.4397 221,40.5C 213.29,19.6174 198.79,6.28409 177.5,0.5C 242.833,0.5 308.167,0.5 373.5,0.5C 373.5,87.8333 373.5,175.167 373.5,262.5C 351.5,262.5 329.5,262.5 307.5,262.5C 304.359,261.679 301.025,261.179 297.5,261C 294.181,257.043 295.181,255.543 300.5,256.5C 300.5,255.5 300.5,254.5 300.5,253.5C 295.313,254.524 292.313,252.524 291.5,247.5C 293.355,246.31 295.188,244.977 297,243.5C 297.756,241.191 297.256,239.191 295.5,237.5C 288.555,234.11 281.222,232.11 273.5,231.5C 273.5,229.5 273.5,227.5 273.5,225.5C 276.833,225.5 280.167,225.5 283.5,225.5C 283.667,214.162 283.5,202.828 283,191.5C 281.641,188.978 279.474,187.645 276.5,187.5C 276.833,186.833 277.167,186.167 277.5,185.5C 278.791,185.737 279.791,185.404 280.5,184.5C 287.086,182.085 289.253,177.418 287,170.5C 286.722,169.584 286.222,168.918 285.5,168.5C 285.068,167.29 284.401,166.29 283.5,165.5C 281.817,161.306 279.484,157.473 276.5,154C 270.458,151.617 264.791,148.784 259.5,145.5C 262.171,143.882 265.171,143.215 268.5,143.5C 268.923,141.219 268.256,139.552 266.5,138.5C 266.9,135.032 268.733,132.698 272,131.5C 273.489,127.167 271.989,124.833 267.5,124.5C 265.069,124.437 263.235,125.437 262,127.5C 259.774,127.022 257.608,126.355 255.5,125.5C 252.75,120.684 249.584,120.35 246,124.5C 245.244,126.809 245.744,128.809 247.5,130.5C 246.691,132.071 246.357,133.738 246.5,135.5C 246.338,137.527 246.505,139.527 247,141.5C 248.936,143.254 250.77,144.921 252.5,146.5C 247.741,149.267 242.741,151.767 237.5,154C 234.864,156.773 232.864,159.94 231.5,163.5C 220.162,163.333 208.828,163.5 197.5,164C 196.167,166 194.833,166 193.5,164C 174.5,163.333 155.5,163.333 136.5,164C 134.67,167.786 133.337,171.786 132.5,176C 126.14,179.512 119.806,183.012 113.5,186.5C 109.483,185.839 108.149,187.172 109.5,190.5C 109.045,201.863 108.545,213.196 108,224.5C 111.394,225.456 114.894,225.789 118.5,225.5C 117.942,226.79 116.942,227.623 115.5,228C 112.447,228.179 109.447,228.679 106.5,229.5C 111.799,229.74 112.465,231.24 108.5,234C 105.447,234.179 102.447,234.679 99.5,235.5C 101.078,236.298 102.744,236.798 104.5,237C 104.167,237.333 103.833,237.667 103.5,238C 99.9015,239.014 96.2348,239.847 92.5,240.5C 93.3805,241.971 94.7139,242.804 96.5,243C 95.8333,243.667 95.1667,244.333 94.5,245C 91.5184,245.498 88.5184,245.665 85.5,245.5C 85.5,246.5 85.5,247.5 85.5,248.5C 86.8734,248.343 88.2068,248.51 89.5,249C 88.0158,250.574 86.3492,251.907 84.5,253C 80.9106,253.207 77.4106,253.707 74,254.5C 73.8333,254.833 73.6667,255.167 73.5,255.5C 75.4233,256.308 77.4233,256.808 79.5,257C 76.1911,260.567 72.1911,262.4 67.5,262.5C 45.1667,262.5 22.8333,262.5 0.5,262.5C 0.5,175.167 0.5,87.8333 0.5,0.5C 50.5,0.5 100.5,0.5 150.5,0.5 Z M 260.5,225.5 C 262.5,225.5 264.5,225.5 266.5,225.5C 266.557,226.609 266.89,227.609 267.5,228.5C 264.369,229.092 262.036,228.092 260.5,225.5 Z"/></g>
<g><path style="opacity:0.991" fill="#f3efef" d="M 150.5,0.5 C 159.5,0.5 168.5,0.5 177.5,0.5C 198.79,6.28409 213.29,19.6174 221,40.5C 226.295,62.4397 220.795,81.1064 204.5,96.5C 202.61,96.7035 201.11,96.0368 200,94.5C 196.836,86.1633 192.669,78.4966 187.5,71.5C 185.833,69.1667 183.833,67.1667 181.5,65.5C 181.167,65.5 180.833,65.5 180.5,65.5C 178.211,63.6127 175.545,62.2794 172.5,61.5C 167.805,60.8975 166.472,58.5642 168.5,54.5C 168.5,55.8333 168.5,57.1667 168.5,58.5C 172.696,58.9233 176.863,59.59 181,60.5C 182.167,60.1667 183.333,59.8333 184.5,59.5C 182.395,57.4084 180.728,55.0751 179.5,52.5C 183.295,53.0415 185.295,51.3748 185.5,47.5C 184.782,33.7848 177.448,26.7848 163.5,26.5C 152.517,26.81 146.184,32.4767 144.5,43.5C 139.331,44.3421 137.331,47.3421 138.5,52.5C 146.431,54.2195 154.431,55.5528 162.5,56.5C 162.217,57.2891 161.717,57.9558 161,58.5C 159.301,57.5939 157.467,57.2606 155.5,57.5C 152.904,56.7347 150.237,56.4013 147.5,56.5C 134.185,55.6896 120.852,56.6896 107.5,59.5C 106.919,28.7734 121.253,9.10673 150.5,0.5 Z"/></g>
<g><path style="opacity:1" fill="#3e766a" d="M 163.5,26.5 C 177.448,26.7848 184.782,33.7848 185.5,47.5C 185.295,51.3748 183.295,53.0415 179.5,52.5C 185.931,36.5204 180.597,29.3537 163.5,31C 160.453,31.5158 158.12,33.0158 156.5,35.5C 156.898,38.4034 156.398,41.4034 155,44.5C 153.89,46.0368 152.39,46.7035 150.5,46.5C 147.126,44.1204 146.626,41.1204 149,37.5C 153.472,33.1734 158.305,29.5068 163.5,26.5 Z"/></g>
<g><path style="opacity:1" fill="#96c0e6" d="M 179.5,52.5 C 180.728,55.0751 182.395,57.4084 184.5,59.5C 183.333,59.8333 182.167,60.1667 181,60.5C 176.863,59.59 172.696,58.9233 168.5,58.5C 168.5,57.1667 168.5,55.8333 168.5,54.5C 172.325,52.8122 175.825,50.4789 179,47.5C 179.016,43.5139 177.849,39.8472 175.5,36.5C 170.402,38.9774 165.069,40.6441 159.5,41.5C 159.025,39.2163 158.025,37.2163 156.5,35.5C 158.12,33.0158 160.453,31.5158 163.5,31C 180.597,29.3537 185.931,36.5204 179.5,52.5 Z"/></g>
<g><path style="opacity:1" fill="#97c0e7" d="M 163.5,26.5 C 158.305,29.5068 153.472,33.1734 149,37.5C 146.626,41.1204 147.126,44.1204 150.5,46.5C 151.919,47.4511 153.585,47.7845 155.5,47.5C 159.77,49.0919 162.103,52.0919 162.5,56.5C 154.431,55.5528 146.431,54.2195 138.5,52.5C 137.331,47.3421 139.331,44.3421 144.5,43.5C 146.184,32.4767 152.517,26.81 163.5,26.5 Z"/></g>
<g><path style="opacity:1" fill="#61a096" d="M 156.5,35.5 C 158.025,37.2163 159.025,39.2163 159.5,41.5C 158.559,43.7721 157.226,45.7721 155.5,47.5C 153.585,47.7845 151.919,47.4511 150.5,46.5C 152.39,46.7035 153.89,46.0368 155,44.5C 156.398,41.4034 156.898,38.4034 156.5,35.5 Z"/></g>
<g><path style="opacity:1" fill="#eccbb5" d="M 168.5,54.5 C 166.472,58.5642 167.805,60.8975 172.5,61.5C 170.155,64.075 167.155,65.075 163.5,64.5C 163.167,64.5 162.833,64.5 162.5,64.5C 161.833,64.5 161.167,64.5 160.5,64.5C 159.833,63.1667 158.833,62.1667 157.5,61.5C 156.833,60.1667 156.167,58.8333 155.5,57.5C 157.467,57.2606 159.301,57.5939 161,58.5C 161.717,57.9558 162.217,57.2891 162.5,56.5C 162.103,52.0919 159.77,49.0919 155.5,47.5C 157.226,45.7721 158.559,43.7721 159.5,41.5C 165.069,40.6441 170.402,38.9774 175.5,36.5C 177.849,39.8472 179.016,43.5139 179,47.5C 175.825,50.4789 172.325,52.8122 168.5,54.5 Z"/></g>
<g><path style="opacity:0.978" fill="#f5d2ba" d="M 147.5,56.5 C 144.167,56.5 140.833,56.5 137.5,56.5C 138.079,61.9071 139.079,67.2404 140.5,72.5C 134.429,73.0635 128.429,74.0635 122.5,75.5C 126.812,81.8022 131.812,87.4689 137.5,92.5C 137.488,96.8697 139.155,100.203 142.5,102.5C 141.178,102.33 140.011,102.663 139,103.5C 137.643,107.746 135.81,111.746 133.5,115.5C 131.415,116.647 129.915,115.98 129,113.5C 128.798,115.256 128.298,116.922 127.5,118.5C 126.749,117.624 126.249,116.624 126,115.5C 123.25,116.291 120.417,116.291 117.5,115.5C 117.5,114.5 117.5,113.5 117.5,112.5C 116.5,112.5 115.5,112.5 114.5,112.5C 114.477,110.4 115.144,108.567 116.5,107C 116.355,106.228 116.022,105.561 115.5,105C 117.901,102.938 120.567,101.271 123.5,100C 114.797,93.9664 108.297,86.1331 104,76.5C 101.192,69.9165 102.358,64.2499 107.5,59.5C 120.852,56.6896 134.185,55.6896 147.5,56.5 Z"/></g>
<g><path style="opacity:0.994" fill="#ed6e58" d="M 147.5,56.5 C 150.237,56.4013 152.904,56.7347 155.5,57.5C 156.167,58.8333 156.833,60.1667 157.5,61.5C 157.539,62.5832 157.873,63.5832 158.5,64.5C 157.5,65.3333 156.5,66.1667 155.5,67C 156.449,67.6172 157.282,67.4506 158,66.5C 159.333,68.5 160.667,70.5 162,72.5C 163.849,80.3869 164.849,88.3869 165,96.5C 165.742,90.8009 165.575,85.1343 164.5,79.5C 164.667,78.8333 164.833,78.1667 165,77.5C 165.419,78.6721 166.085,79.6721 167,80.5C 167.115,78.0625 166.115,76.0625 164,74.5C 163.502,71.1832 163.335,67.8499 163.5,64.5C 167.155,65.075 170.155,64.075 172.5,61.5C 175.545,62.2794 178.211,63.6127 180.5,65.5C 179.819,69.1974 179.319,72.8641 179,76.5C 180.622,73.0131 181.455,69.3465 181.5,65.5C 183.833,67.1667 185.833,69.1667 187.5,71.5C 184.963,76.2173 181.796,80.5506 178,84.5C 177.5,92.1594 177.334,99.8261 177.5,107.5C 175.5,107.5 173.5,107.5 171.5,107.5C 172.378,100.764 172.712,94.0975 172.5,87.5C 172.154,86.3044 171.654,86.3044 171,87.5C 169.882,89.7654 169.049,92.0987 168.5,94.5C 165.921,98.5303 165.921,102.53 168.5,106.5C 168.5,107.167 168.5,107.833 168.5,108.5C 161.291,108.091 154.291,106.757 147.5,104.5C 153.184,97.9135 155.017,90.2468 153,81.5C 152.841,86.9162 152.174,92.2496 151,97.5C 149.669,99.9962 147.836,101.996 145.5,103.5C 144.391,103.443 143.391,103.11 142.5,102.5C 139.155,100.203 137.488,96.8697 137.5,92.5C 137.5,91.8333 137.5,91.1667 137.5,90.5C 139.04,88.1617 139.706,85.4951 139.5,82.5C 139.342,79.0977 139.676,75.7644 140.5,72.5C 139.079,67.2404 138.079,61.9071 137.5,56.5C 140.833,56.5 144.167,56.5 147.5,56.5 Z"/></g>
<g><path style="opacity:1" fill="#7f3a2f" d="M 152.5,59.5 C 152.691,62.5601 153.025,65.7268 153.5,69C 152.703,72.7454 152.203,76.5787 152,80.5C 151.81,76.8121 150.976,73.3121 149.5,70C 151.191,66.7214 152.191,63.2214 152.5,59.5 Z"/></g>
<g><path style="opacity:1" fill="#7c392e" d="M 180.5,65.5 C 180.833,65.5 181.167,65.5 181.5,65.5C 181.455,69.3465 180.622,73.0131 179,76.5C 179.319,72.8641 179.819,69.1974 180.5,65.5 Z"/></g>
<g><path style="opacity:1" fill="#f3edec" d="M 140.5,72.5 C 139.676,75.7644 139.342,79.0977 139.5,82.5C 138.232,84.9052 137.565,87.5718 137.5,90.5C 137.5,91.1667 137.5,91.8333 137.5,92.5C 131.812,87.4689 126.812,81.8022 122.5,75.5C 128.429,74.0635 134.429,73.0635 140.5,72.5 Z"/></g>
<g><path style="opacity:0.974" fill="#f6d1ba" d="M 187.5,71.5 C 192.669,78.4966 196.836,86.1633 200,94.5C 201.11,96.0368 202.61,96.7035 204.5,96.5C 209.59,100.557 214.923,104.39 220.5,108C 226.167,108.333 231.833,108.667 237.5,109C 238.337,110.011 238.67,111.178 238.5,112.5C 240.5,112.5 242.5,112.5 244.5,112.5C 245.641,116.625 245.141,120.625 243,124.5C 241.093,125.93 238.926,126.596 236.5,126.5C 220.293,125.153 205.293,120.319 191.5,112C 189.561,110.568 188.228,108.735 187.5,106.5C 184.147,100.455 181.313,94.1219 179,87.5C 178.828,94.346 178.328,101.013 177.5,107.5C 177.334,99.8261 177.5,92.1594 178,84.5C 181.796,80.5506 184.963,76.2173 187.5,71.5 Z"/></g>
<g><path style="opacity:1" fill="#76372c" d="M 157.5,61.5 C 158.833,62.1667 159.833,63.1667 160.5,64.5C 159.957,64.56 159.624,64.8933 159.5,65.5C 161.918,72.1939 162.918,71.8605 162.5,64.5C 162.833,64.5 163.167,64.5 163.5,64.5C 163.335,67.8499 163.502,71.1832 164,74.5C 166.115,76.0625 167.115,78.0625 167,80.5C 166.085,79.6721 165.419,78.6721 165,77.5C 164.833,78.1667 164.667,78.8333 164.5,79.5C 165.575,85.1343 165.742,90.8009 165,96.5C 164.849,88.3869 163.849,80.3869 162,72.5C 160.667,70.5 159.333,68.5 158,66.5C 157.282,67.4506 156.449,67.6172 155.5,67C 156.5,66.1667 157.5,65.3333 158.5,64.5C 157.873,63.5832 157.539,62.5832 157.5,61.5 Z"/></g>
<g><path style="opacity:1" fill="#e66a55" d="M 160.5,64.5 C 161.167,64.5 161.833,64.5 162.5,64.5C 162.918,71.8605 161.918,72.1939 159.5,65.5C 159.624,64.8933 159.957,64.56 160.5,64.5 Z"/></g>
<g><path style="opacity:1" fill="#6f3429" d="M 147.5,104.5 C 146.508,104.672 145.842,104.338 145.5,103.5C 147.836,101.996 149.669,99.9962 151,97.5C 152.174,92.2496 152.841,86.9162 153,81.5C 155.017,90.2468 153.184,97.9135 147.5,104.5 Z"/></g>
<g><path style="opacity:1" fill="#b48077" d="M 139.5,82.5 C 139.706,85.4951 139.04,88.1617 137.5,90.5C 137.565,87.5718 138.232,84.9052 139.5,82.5 Z"/></g>
<g><path style="opacity:0.97" fill="#f4edeb" d="M 187.5,106.5 C 181.993,108.967 176.327,109.633 170.5,108.5C 170.5,107.833 170.833,107.5 171.5,107.5C 173.5,107.5 175.5,107.5 177.5,107.5C 178.328,101.013 178.828,94.346 179,87.5C 181.313,94.1219 184.147,100.455 187.5,106.5 Z"/></g>
<g><path style="opacity:1" fill="#75362c" d="M 171.5,107.5 C 170.833,107.5 170.5,107.833 170.5,108.5C 169.833,108.5 169.167,108.5 168.5,108.5C 168.5,107.833 168.5,107.167 168.5,106.5C 169.693,106.03 170.36,105.03 170.5,103.5C 170.88,101.341 171.213,99.1739 171.5,97C 171.546,95.272 171.046,93.772 170,92.5C 169.722,93.4158 169.222,94.0825 168.5,94.5C 169.049,92.0987 169.882,89.7654 171,87.5C 171.654,86.3044 172.154,86.3044 172.5,87.5C 172.712,94.0975 172.378,100.764 171.5,107.5 Z"/></g>
<g><path style="opacity:1" fill="#e76a55" d="M 168.5,106.5 C 167.167,102.5 167.167,98.5 168.5,94.5C 169.222,94.0825 169.722,93.4158 170,92.5C 171.046,93.772 171.546,95.272 171.5,97C 171.213,99.1739 170.88,101.341 170.5,103.5C 170.36,105.03 169.693,106.03 168.5,106.5 Z"/></g>
<g><path style="opacity:1" fill="#873e32" d="M 168.5,94.5 C 167.167,98.5 167.167,102.5 168.5,106.5C 165.921,102.53 165.921,98.5303 168.5,94.5 Z"/></g>
<g><path style="opacity:0.89" fill="#b9b2b7" d="M 266.5,138.5 C 264.692,138.509 263.025,138.009 261.5,137C 259.65,134.982 257.65,133.149 255.5,131.5C 252.596,133.12 249.596,134.453 246.5,135.5C 246.357,133.738 246.691,132.071 247.5,130.5C 245.744,128.809 245.244,126.809 246,124.5C 249.584,120.35 252.75,120.684 255.5,125.5C 257.608,126.355 259.774,127.022 262,127.5C 263.235,125.437 265.069,124.437 267.5,124.5C 271.989,124.833 273.489,127.167 272,131.5C 268.733,132.698 266.9,135.032 266.5,138.5 Z"/></g>
<g><path style="opacity:0.951" fill="#bf8a7c" d="M 266.5,138.5 C 268.256,139.552 268.923,141.219 268.5,143.5C 265.171,143.215 262.171,143.882 259.5,145.5C 257.283,146.369 254.95,146.702 252.5,146.5C 250.77,144.921 248.936,143.254 247,141.5C 246.505,139.527 246.338,137.527 246.5,135.5C 249.596,134.453 252.596,133.12 255.5,131.5C 257.65,133.149 259.65,134.982 261.5,137C 263.025,138.009 264.692,138.509 266.5,138.5 Z"/></g>
<g><path style="opacity:0.335" fill="#cbafa9" d="M 161.5,137.5 C 163.237,140.008 164.07,143.008 164,146.5C 164.965,144.74 166.132,144.406 167.5,145.5C 167.023,146.478 166.357,147.311 165.5,148C 177.5,149 177.5,150 165.5,151C 167.26,151.965 167.594,153.132 166.5,154.5C 165.522,154.023 164.689,153.357 164,152.5C 163,164.5 162,164.5 161,152.5C 160.035,154.26 158.868,154.594 157.5,153.5C 157.977,152.522 158.643,151.689 159.5,151C 147.698,150.462 147.698,149.462 159.5,148C 157.74,147.035 157.406,145.868 158.5,144.5C 159.478,144.977 160.311,145.643 161,146.5C 161.498,143.518 161.665,140.518 161.5,137.5 Z"/></g>
<g><path style="opacity:0.967" fill="#e7a989" d="M 259.5,145.5 C 264.791,148.784 270.458,151.617 276.5,154C 279.484,157.473 281.817,161.306 283.5,165.5C 280,165.495 278.5,167.162 279,170.5C 282.254,173.36 284.421,172.693 285.5,168.5C 286.222,168.918 286.722,169.584 287,170.5C 289.253,177.418 287.086,182.085 280.5,184.5C 279.791,185.404 278.791,185.737 277.5,185.5C 275.833,185.5 274.167,185.5 272.5,185.5C 272.796,179.629 273.463,173.796 274.5,168C 274.167,167.167 273.833,166.333 273.5,165.5C 269.23,164.91 264.897,164.91 260.5,165.5C 260.241,161.932 258.241,160.599 254.5,161.5C 254.5,162.833 254.5,164.167 254.5,165.5C 248.5,165.5 242.5,165.5 236.5,165.5C 237.011,171.587 238.011,177.587 239.5,183.5C 237.257,184.474 234.924,184.808 232.5,184.5C 230.716,184.107 229.05,183.441 227.5,182.5C 227.335,179.482 227.502,176.482 228,173.5C 229.467,170.242 230.633,166.908 231.5,163.5C 232.864,159.94 234.864,156.773 237.5,154C 242.741,151.767 247.741,149.267 252.5,146.5C 254.95,146.702 257.283,146.369 259.5,145.5 Z"/></g>
<g><path style="opacity:1" fill="#37261d" d="M 254.5,152.5 C 253.402,151.399 253.235,150.066 254,148.5C 255.049,147.483 256.216,147.316 257.5,148C 255.137,148.589 254.137,150.089 254.5,152.5 Z"/></g>
<g><path style="opacity:1" fill="#32241e" d="M 254.5,152.5 C 256.911,152.863 258.411,151.863 259,149.5C 259.684,150.784 259.517,151.951 258.5,153C 256.934,153.765 255.601,153.598 254.5,152.5 Z"/></g>
<g><path style="opacity:1" fill="#443229" d="M 265.5,156.5 C 264.343,153.143 265.676,151.643 269.5,152C 270.576,153.726 270.743,155.559 270,157.5C 267.955,159.043 266.455,158.71 265.5,156.5 Z"/></g>
<g><path style="opacity:1" fill="#db9f81" d="M 265.5,156.5 C 265.694,154.088 267.027,153.088 269.5,153.5C 269.5,154.5 269.5,155.5 269.5,156.5C 268.167,156.5 266.833,156.5 265.5,156.5 Z"/></g>
<g><path style="opacity:1" fill="#48362d" d="M 260.5,165.5 C 258.952,165.179 258.285,164.179 258.5,162.5C 257.5,162.5 256.5,162.5 255.5,162.5C 255.737,163.791 255.404,164.791 254.5,165.5C 254.5,164.167 254.5,162.833 254.5,161.5C 258.241,160.599 260.241,161.932 260.5,165.5 Z"/></g>
<g><path style="opacity:0.985" fill="#77bdaf" d="M 231.5,163.5 C 230.633,166.908 229.467,170.242 228,173.5C 227.502,176.482 227.335,179.482 227.5,182.5C 226.167,182.5 224.833,182.5 223.5,182.5C 220.175,182.169 216.841,181.836 213.5,181.5C 208.516,181.242 204.683,183.242 202,187.5C 200.163,192.857 198.329,198.191 196.5,203.5C 195.669,191.34 195.169,179.007 195,166.5C 194.5,178.829 194.333,191.162 194.5,203.5C 180.5,203.5 166.5,203.5 152.5,203.5C 152.5,202.167 152.5,200.833 152.5,199.5C 152.5,196.167 152.5,192.833 152.5,189.5C 152.759,185.763 151.093,183.43 147.5,182.5C 146.5,181.167 145.5,181.167 144.5,182.5C 139.002,182.952 133.669,183.619 128.5,184.5C 126.973,184.427 125.973,185.094 125.5,186.5C 124.883,186.611 124.383,186.944 124,187.5C 123.501,192.823 123.334,198.156 123.5,203.5C 121.395,204.868 119.061,205.868 116.5,206.5C 118.695,207.769 120.861,207.769 123,206.5C 123.846,211.334 122.013,212.667 117.5,210.5C 117.5,211.5 117.5,212.5 117.5,213.5C 119.861,213.326 122.194,212.993 124.5,212.5C 124.657,213.873 124.49,215.207 124,216.5C 122.373,214.688 120.873,214.521 119.5,216C 120.414,217.406 121.08,218.906 121.5,220.5C 120.508,220.328 119.842,220.662 119.5,221.5C 119.5,222.833 119.5,224.167 119.5,225.5C 119.167,225.5 118.833,225.5 118.5,225.5C 114.894,225.789 111.394,225.456 108,224.5C 108.545,213.196 109.045,201.863 109.5,190.5C 114.158,191.486 117.824,190.152 120.5,186.5C 119.635,185.417 118.635,185.251 117.5,186C 116.093,188.852 114.759,189.018 113.5,186.5C 119.806,183.012 126.14,179.512 132.5,176C 133.337,171.786 134.67,167.786 136.5,164C 155.5,163.333 174.5,163.333 193.5,164C 194.833,166 196.167,166 197.5,164C 208.828,163.5 220.162,163.333 231.5,163.5 Z"/></g>
<g><path style="opacity:1" fill="#bab3b7" d="M 260.5,165.5 C 264.897,164.91 269.23,164.91 273.5,165.5C 273.833,166.333 274.167,167.167 274.5,168C 273.463,173.796 272.796,179.629 272.5,185.5C 271.449,186.222 270.782,187.222 270.5,188.5C 257.866,187.033 245.199,185.7 232.5,184.5C 234.924,184.808 237.257,184.474 239.5,183.5C 238.011,177.587 237.011,171.587 236.5,165.5C 242.5,165.5 248.5,165.5 254.5,165.5C 255.404,164.791 255.737,163.791 255.5,162.5C 256.5,162.5 257.5,162.5 258.5,162.5C 258.285,164.179 258.952,165.179 260.5,165.5 Z"/></g>
<g><path style="opacity:1" fill="#503b30" d="M 283.5,165.5 C 284.401,166.29 285.068,167.29 285.5,168.5C 284.421,172.693 282.254,173.36 279,170.5C 278.5,167.162 280,165.495 283.5,165.5 Z"/></g>
<g><path style="opacity:1" fill="#ecac8b" d="M 280.5,167.5 C 281.5,167.5 282.5,167.5 283.5,167.5C 283.5,168.5 283.5,169.5 283.5,170.5C 282.5,170.5 281.5,170.5 280.5,170.5C 280.5,169.5 280.5,168.5 280.5,167.5 Z"/></g>
<g><path style="opacity:1" fill="#271d18" d="M 280.5,179.5 C 278.027,179.088 276.694,180.088 276.5,182.5C 275.209,181.458 275.209,180.292 276.5,179C 278.066,178.235 279.399,178.402 280.5,179.5 Z"/></g>
<g><path style="opacity:1" fill="#dca082" d="M 280.5,179.5 C 280.5,180.5 280.5,181.5 280.5,182.5C 279.167,182.5 277.833,182.5 276.5,182.5C 276.694,180.088 278.027,179.088 280.5,179.5 Z"/></g>
<g><path style="opacity:1" fill="#396a5a" d="M 147.5,182.5 C 145.614,188.764 144.614,188.764 144.5,182.5C 145.5,181.167 146.5,181.167 147.5,182.5 Z"/></g>
<g><path style="opacity:1" fill="#58988b" d="M 223.5,182.5 C 224.833,182.5 226.167,182.5 227.5,182.5C 229.05,183.441 230.716,184.107 232.5,184.5C 245.199,185.7 257.866,187.033 270.5,188.5C 272.571,196.453 271.238,203.786 266.5,210.5C 265.264,211.246 263.93,211.579 262.5,211.5C 247.833,211.5 233.167,211.5 218.5,211.5C 221.625,210.521 224.958,210.187 228.5,210.5C 226.834,201.168 225.167,191.834 223.5,182.5 Z"/></g>
<g><path style="opacity:0.722" fill="#3d2c25" d="M 280.5,179.5 C 281.72,181.05 281.72,182.716 280.5,184.5C 278.517,184.843 277.183,184.176 276.5,182.5C 277.833,182.5 279.167,182.5 280.5,182.5C 280.5,181.5 280.5,180.5 280.5,179.5 Z"/></g>
<g><path style="opacity:1" fill="#e44f37" d="M 128.5,184.5 C 129.833,184.5 131.167,184.5 132.5,184.5C 132.707,187.127 131.54,188.793 129,189.5C 127.05,189.293 125.884,188.293 125.5,186.5C 125.973,185.094 126.973,184.427 128.5,184.5 Z"/></g>
<g><path style="opacity:1" fill="#eeedec" d="M 272.5,185.5 C 274.167,185.5 275.833,185.5 277.5,185.5C 277.167,186.167 276.833,186.833 276.5,187.5C 275.329,195.451 273.829,203.451 272,211.5C 268.731,212.818 265.565,212.818 262.5,211.5C 263.93,211.579 265.264,211.246 266.5,210.5C 271.238,203.786 272.571,196.453 270.5,188.5C 270.782,187.222 271.449,186.222 272.5,185.5 Z"/></g>
<g><path style="opacity:0.986" fill="#79bfb1" d="M 276.5,187.5 C 279.474,187.645 281.641,188.978 283,191.5C 283.5,202.828 283.667,214.162 283.5,225.5C 280.167,225.5 276.833,225.5 273.5,225.5C 271.167,225.5 268.833,225.5 266.5,225.5C 264.5,225.5 262.5,225.5 260.5,225.5C 244.833,225.5 229.167,225.5 213.5,225.5C 213.348,220.066 215.015,215.399 218.5,211.5C 233.167,211.5 247.833,211.5 262.5,211.5C 265.565,212.818 268.731,212.818 272,211.5C 273.829,203.451 275.329,195.451 276.5,187.5 Z"/></g>
<g><path style="opacity:1" fill="#3f7b6c" d="M 109.5,190.5 C 108.149,187.172 109.483,185.839 113.5,186.5C 114.759,189.018 116.093,188.852 117.5,186C 118.635,185.251 119.635,185.417 120.5,186.5C 117.824,190.152 114.158,191.486 109.5,190.5 Z"/></g>
<g><path style="opacity:1" fill="#416858" d="M 148.5,191.5 C 148.5,191.833 148.5,192.167 148.5,192.5C 147.5,192.5 146.5,192.5 145.5,192.5C 145.147,187.522 146.147,187.188 148.5,191.5 Z"/></g>
<g><path style="opacity:1" fill="#e64c35" d="M 152.5,189.5 C 152.5,192.833 152.5,196.167 152.5,199.5C 148.485,198.522 147.152,196.188 148.5,192.5C 148.5,192.167 148.5,191.833 148.5,191.5C 149.833,190.833 151.167,190.167 152.5,189.5 Z"/></g>
<g><path style="opacity:1" fill="#e26f59" d="M 144.5,182.5 C 144.614,188.764 145.614,188.764 147.5,182.5C 151.093,183.43 152.759,185.763 152.5,189.5C 151.167,190.167 149.833,190.833 148.5,191.5C 146.147,187.188 145.147,187.522 145.5,192.5C 146.5,192.5 147.5,192.5 148.5,192.5C 147.152,196.188 148.485,198.522 152.5,199.5C 152.5,200.833 152.5,202.167 152.5,203.5C 152.5,203.833 152.5,204.167 152.5,204.5C 151.833,205.833 150.833,206.833 149.5,207.5C 145.466,206.466 143.799,203.8 144.5,199.5C 143.325,199.281 142.325,199.614 141.5,200.5C 142.9,203.035 143.9,205.702 144.5,208.5C 143.508,208.672 142.842,208.338 142.5,207.5C 141.962,205.883 141.629,204.216 141.5,202.5C 137.921,202.766 137.587,204.099 140.5,206.5C 139.194,208.931 138.194,208.597 137.5,205.5C 137.167,205.833 136.833,206.167 136.5,206.5C 137.127,207.417 137.461,208.417 137.5,209.5C 137.167,209.5 136.833,209.5 136.5,209.5C 135.167,209.5 133.833,209.5 132.5,209.5C 131.737,208.732 130.737,208.232 129.5,208C 130.126,207.25 130.626,206.416 131,205.5C 131.893,206.711 132.726,206.711 133.5,205.5C 131.163,204.483 129.496,202.816 128.5,200.5C 128.167,200.833 127.833,201.167 127.5,201.5C 129.124,202.869 129.624,204.536 129,206.5C 127.244,205.015 126.077,205.348 125.5,207.5C 124.833,206.167 124.167,204.833 123.5,203.5C 123.334,198.156 123.501,192.823 124,187.5C 124.383,186.944 124.883,186.611 125.5,186.5C 125.884,188.293 127.05,189.293 129,189.5C 131.54,188.793 132.707,187.127 132.5,184.5C 131.167,184.5 129.833,184.5 128.5,184.5C 133.669,183.619 139.002,182.952 144.5,182.5 Z"/></g>
<g><path style="opacity:1" fill="#4c6a59" d="M 137.5,194.5 C 136.262,192.786 135.595,190.786 135.5,188.5C 136.5,188.5 137.5,188.5 138.5,188.5C 138.167,190.5 137.833,192.5 137.5,194.5 Z"/></g>
<g><path style="opacity:1" fill="#436857" d="M 139.5,184.5 C 140.5,184.5 141.5,184.5 142.5,184.5C 141.428,191.092 140.428,191.092 139.5,184.5 Z"/></g>
<g><path style="opacity:1" fill="#466858" d="M 141.5,190.5 C 144.407,191.614 144.907,193.281 143,195.5C 141.731,194.095 141.231,192.429 141.5,190.5 Z"/></g>
<g><path style="opacity:1" fill="#367161" d="M 119.5,192.5 C 121.942,192.354 122.609,193.187 121.5,195C 118.794,196.908 115.794,197.741 112.5,197.5C 112.5,196.5 112.5,195.5 112.5,194.5C 115.622,196.434 117.955,195.767 119.5,192.5 Z"/></g>
<g><path style="opacity:1" fill="#526957" d="M 132.5,191.5 C 133.586,191.62 134.253,192.287 134.5,193.5C 134.167,194.167 133.833,194.833 133.5,195.5C 132.571,194.311 132.238,192.978 132.5,191.5 Z"/></g>
<g><path style="opacity:1" fill="#c58d7f" d="M 223.5,182.5 C 225.167,191.834 226.834,201.168 228.5,210.5C 224.958,210.187 221.625,210.521 218.5,211.5C 215.015,215.399 213.348,220.066 213.5,225.5C 212.336,228.249 212.003,230.916 212.5,233.5C 211.067,234.833 209.733,236.333 208.5,238C 204.611,238.062 201.111,239.229 198,241.5C 196.957,239.167 196.124,236.834 195.5,234.5C 198.009,233.318 199.343,231.318 199.5,228.5C 195.426,227.09 191.26,225.424 187,223.5C 186.5,223.667 186,223.833 185.5,224C 186.672,224.419 187.672,225.085 188.5,226C 185.305,226.181 182.305,226.681 179.5,227.5C 178.662,227.158 178.328,226.492 178.5,225.5C 177.402,224.603 177.402,223.77 178.5,223C 183.206,221.265 187.873,219.431 192.5,217.5C 193.843,213.139 195.177,208.806 196.5,204.5C 196.5,204.167 196.5,203.833 196.5,203.5C 198.329,198.191 200.163,192.857 202,187.5C 204.683,183.242 208.516,181.242 213.5,181.5C 216.841,181.836 220.175,182.169 223.5,182.5 Z"/></g>
<g><path style="opacity:1" fill="#476958" d="M 137.5,194.5 C 141.5,195.5 141.5,196.5 137.5,197.5C 137.5,196.5 137.5,195.5 137.5,194.5 Z"/></g>
<g><path style="opacity:1" fill="#526958" d="M 137.5,197.5 C 137.052,199.465 136.052,199.798 134.5,198.5C 135.325,197.614 136.325,197.281 137.5,197.5 Z"/></g>
<g><path style="opacity:1" fill="#68705e" d="M 129.5,196.5 C 132.032,196.829 133.032,197.995 132.5,200C 134.904,200.508 135.571,201.675 134.5,203.5C 132.09,201.674 130.423,199.34 129.5,196.5 Z"/></g>
<g><path style="opacity:0.999" fill="#569687" d="M 196.5,203.5 C 196.5,203.833 196.5,204.167 196.5,204.5C 181.833,204.5 167.167,204.5 152.5,204.5C 152.5,204.167 152.5,203.833 152.5,203.5C 166.5,203.5 180.5,203.5 194.5,203.5C 194.333,191.162 194.5,178.829 195,166.5C 195.169,179.007 195.669,191.34 196.5,203.5 Z"/></g>
<g><path style="opacity:1" fill="#78bdaf" d="M 152.5,204.5 C 167.167,204.5 181.833,204.5 196.5,204.5C 195.177,208.806 193.843,213.139 192.5,217.5C 187.873,219.431 183.206,221.265 178.5,223C 177.402,223.77 177.402,224.603 178.5,225.5C 166.167,225.5 153.833,225.5 141.5,225.5C 141.5,223.833 141.5,222.167 141.5,220.5C 139.5,220.5 137.5,220.5 135.5,220.5C 136.26,219.107 136.926,217.607 137.5,216C 136.923,213.863 136.59,211.696 136.5,209.5C 136.833,209.5 137.167,209.5 137.5,209.5C 139.514,209.608 141.18,208.942 142.5,207.5C 142.842,208.338 143.508,208.672 144.5,208.5C 146.415,208.784 148.081,208.451 149.5,207.5C 150.833,206.833 151.833,205.833 152.5,204.5 Z"/></g>
<g><path style="opacity:1" fill="#556f5e" d="M 149.5,207.5 C 148.081,208.451 146.415,208.784 144.5,208.5C 143.9,205.702 142.9,203.035 141.5,200.5C 142.325,199.614 143.325,199.281 144.5,199.5C 143.799,203.8 145.466,206.466 149.5,207.5 Z"/></g>
<g><path style="opacity:1" fill="#487e6e" d="M 123.5,203.5 C 124.167,204.833 124.833,206.167 125.5,207.5C 125.833,208.167 126.167,208.833 126.5,209.5C 125.355,210.793 125.689,211.959 127.5,213C 129.107,212.981 130.774,212.815 132.5,212.5C 132.911,215.276 132.078,215.943 130,214.5C 128.72,214.613 127.887,215.28 127.5,216.5C 128.833,217.167 130.167,217.833 131.5,218.5C 131.137,219.183 130.804,219.85 130.5,220.5C 127.5,220.5 124.5,220.5 121.5,220.5C 121.08,218.906 120.414,217.406 119.5,216C 120.873,214.521 122.373,214.688 124,216.5C 124.49,215.207 124.657,213.873 124.5,212.5C 122.194,212.993 119.861,213.326 117.5,213.5C 117.5,212.5 117.5,211.5 117.5,210.5C 122.013,212.667 123.846,211.334 123,206.5C 120.861,207.769 118.695,207.769 116.5,206.5C 119.061,205.868 121.395,204.868 123.5,203.5 Z"/></g>
<g><path style="opacity:1" fill="#76725f" d="M 132.5,209.5 C 130.611,210.742 128.611,210.742 126.5,209.5C 126.167,208.833 125.833,208.167 125.5,207.5C 126.077,205.348 127.244,205.015 129,206.5C 129.624,204.536 129.124,202.869 127.5,201.5C 127.833,201.167 128.167,200.833 128.5,200.5C 129.496,202.816 131.163,204.483 133.5,205.5C 132.726,206.711 131.893,206.711 131,205.5C 130.626,206.416 130.126,207.25 129.5,208C 130.737,208.232 131.737,208.732 132.5,209.5 Z"/></g>
<g><path style="opacity:1" fill="#7c7562" d="M 142.5,207.5 C 141.18,208.942 139.514,209.608 137.5,209.5C 137.461,208.417 137.127,207.417 136.5,206.5C 136.833,206.167 137.167,205.833 137.5,205.5C 138.194,208.597 139.194,208.931 140.5,206.5C 137.587,204.099 137.921,202.766 141.5,202.5C 141.629,204.216 141.962,205.883 142.5,207.5 Z"/></g>
<g><path style="opacity:1" fill="#5d9e8f" d="M 126.5,209.5 C 128.611,210.742 130.611,210.742 132.5,209.5C 133.833,209.5 135.167,209.5 136.5,209.5C 136.59,211.696 136.923,213.863 137.5,216C 136.926,217.607 136.26,219.107 135.5,220.5C 133.833,220.5 132.167,220.5 130.5,220.5C 130.804,219.85 131.137,219.183 131.5,218.5C 130.167,217.833 128.833,217.167 127.5,216.5C 127.887,215.28 128.72,214.613 130,214.5C 132.078,215.943 132.911,215.276 132.5,212.5C 130.774,212.815 129.107,212.981 127.5,213C 125.689,211.959 125.355,210.793 126.5,209.5 Z"/></g>
<g><path style="opacity:1" fill="#d5ad91" d="M 119.5,221.5 C 119.842,220.662 120.508,220.328 121.5,220.5C 124.5,220.5 127.5,220.5 130.5,220.5C 132.167,220.5 133.833,220.5 135.5,220.5C 137.5,220.5 139.5,220.5 141.5,220.5C 141.5,222.167 141.5,223.833 141.5,225.5C 141.795,227.735 141.461,229.735 140.5,231.5C 140.5,230.5 140.5,229.5 140.5,228.5C 139.5,228.5 138.5,228.5 137.5,228.5C 138.172,227.733 139.005,227.066 140,226.5C 140.749,225.365 140.583,224.365 139.5,223.5C 135.305,225.233 130.971,225.733 126.5,225C 131.304,224.632 135.97,223.632 140.5,222C 133.508,221.5 126.508,221.334 119.5,221.5 Z"/></g>
<g><path style="opacity:1" fill="#e58b5c" d="M 119.5,221.5 C 126.508,221.334 133.508,221.5 140.5,222C 135.97,223.632 131.304,224.632 126.5,225C 130.971,225.733 135.305,225.233 139.5,223.5C 140.583,224.365 140.749,225.365 140,226.5C 139.005,227.066 138.172,227.733 137.5,228.5C 131.455,228.697 125.455,228.363 119.5,227.5C 119.5,226.833 119.5,226.167 119.5,225.5C 119.5,224.167 119.5,222.833 119.5,221.5 Z"/></g>
<g><path style="opacity:0.993" fill="#fef3ec" d="M 118.5,225.5 C 118.833,225.5 119.167,225.5 119.5,225.5C 119.5,226.167 119.5,226.833 119.5,227.5C 118.717,231.146 118.55,234.812 119,238.5C 119.671,239.252 120.504,239.586 121.5,239.5C 121.366,241.292 121.699,242.958 122.5,244.5C 122.833,245.5 123.5,246.167 124.5,246.5C 127.524,248.776 130.857,249.109 134.5,247.5C 136.19,247.144 137.19,246.144 137.5,244.5C 138.906,244.027 139.573,243.027 139.5,241.5C 140.404,240.791 140.737,239.791 140.5,238.5C 140.768,236.901 140.434,235.568 139.5,234.5C 139.5,234.167 139.5,233.833 139.5,233.5C 140.338,233.158 140.672,232.492 140.5,231.5C 141.461,229.735 141.795,227.735 141.5,225.5C 153.833,225.5 166.167,225.5 178.5,225.5C 178.328,226.492 178.662,227.158 179.5,227.5C 185.979,228.491 192.646,228.824 199.5,228.5C 199.343,231.318 198.009,233.318 195.5,234.5C 195.5,234.833 195.5,235.167 195.5,235.5C 190.27,238.659 190.603,241.326 196.5,243.5C 197.211,245.201 198.545,246.201 200.5,246.5C 206.566,244.1 210.566,239.767 212.5,233.5C 212.003,230.916 212.336,228.249 213.5,225.5C 229.167,225.5 244.833,225.5 260.5,225.5C 262.036,228.092 264.369,229.092 267.5,228.5C 268.833,229.5 268.833,230.5 267.5,231.5C 266.833,230.167 266.167,230.167 265.5,231.5C 254.613,230.8 243.946,231.967 233.5,235C 230.751,236.123 228.251,237.623 226,239.5C 225.37,241.903 226.203,243.737 228.5,245C 234.168,247.801 240.168,249.468 246.5,250C 258.422,251.014 270.255,250.514 282,248.5C 283.107,248.585 284.107,248.919 285,249.5C 286.754,247.75 288.921,247.083 291.5,247.5C 292.313,252.524 295.313,254.524 300.5,253.5C 300.5,254.5 300.5,255.5 300.5,256.5C 295.181,255.543 294.181,257.043 297.5,261C 301.025,261.179 304.359,261.679 307.5,262.5C 227.5,262.5 147.5,262.5 67.5,262.5C 72.1911,262.4 76.1911,260.567 79.5,257C 77.4233,256.808 75.4233,256.308 73.5,255.5C 73.6667,255.167 73.8333,254.833 74,254.5C 77.4106,253.707 80.9106,253.207 84.5,253C 86.3492,251.907 88.0158,250.574 89.5,249C 88.2068,248.51 86.8734,248.343 85.5,248.5C 85.5,247.5 85.5,246.5 85.5,245.5C 88.5184,245.665 91.5184,245.498 94.5,245C 95.1667,244.333 95.8333,243.667 96.5,243C 94.7139,242.804 93.3805,241.971 92.5,240.5C 96.2348,239.847 99.9015,239.014 103.5,238C 103.833,237.667 104.167,237.333 104.5,237C 102.744,236.798 101.078,236.298 99.5,235.5C 102.447,234.679 105.447,234.179 108.5,234C 112.465,231.24 111.799,229.74 106.5,229.5C 109.447,228.679 112.447,228.179 115.5,228C 116.942,227.623 117.942,226.79 118.5,225.5 Z"/></g>
<g><path style="opacity:0.983" fill="#ceb1aa" d="M 266.5,225.5 C 268.833,225.5 271.167,225.5 273.5,225.5C 273.5,227.5 273.5,229.5 273.5,231.5C 281.222,232.11 288.555,234.11 295.5,237.5C 297.256,239.191 297.756,241.191 297,243.5C 295.188,244.977 293.355,246.31 291.5,247.5C 288.921,247.083 286.754,247.75 285,249.5C 284.107,248.919 283.107,248.585 282,248.5C 270.255,250.514 258.422,251.014 246.5,250C 240.168,249.468 234.168,247.801 228.5,245C 226.203,243.737 225.37,241.903 226,239.5C 228.251,237.623 230.751,236.123 233.5,235C 243.946,231.967 254.613,230.8 265.5,231.5C 266.167,231.5 266.833,231.5 267.5,231.5C 268.833,230.5 268.833,229.5 267.5,228.5C 266.89,227.609 266.557,226.609 266.5,225.5 Z"/></g>
<g><path style="opacity:1" fill="#ef6d58" d="M 199.5,228.5 C 192.646,228.824 185.979,228.491 179.5,227.5C 182.305,226.681 185.305,226.181 188.5,226C 187.672,225.085 186.672,224.419 185.5,224C 186,223.833 186.5,223.667 187,223.5C 191.26,225.424 195.426,227.09 199.5,228.5 Z"/></g>
<g><path style="opacity:1" fill="#e58857" d="M 137.5,228.5 C 138.5,228.5 139.5,228.5 140.5,228.5C 140.5,229.5 140.5,230.5 140.5,231.5C 140.672,232.492 140.338,233.158 139.5,233.5C 133.333,236.136 127.166,236.136 121,233.5C 120.333,231.833 120.333,230.167 121,228.5C 126.615,231.055 132.115,231.055 137.5,228.5 Z"/></g>
<g><path style="opacity:1" fill="#e6b59d" d="M 119.5,227.5 C 125.455,228.363 131.455,228.697 137.5,228.5C 132.115,231.055 126.615,231.055 121,228.5C 120.333,230.167 120.333,231.833 121,233.5C 127.166,236.136 133.333,236.136 139.5,233.5C 139.5,233.833 139.5,234.167 139.5,234.5C 136.644,236.006 133.477,236.672 130,236.5C 127.443,236.445 124.943,236.112 122.5,235.5C 121.571,236.689 121.238,238.022 121.5,239.5C 120.504,239.586 119.671,239.252 119,238.5C 118.55,234.812 118.717,231.146 119.5,227.5 Z"/></g>
<g><path style="opacity:1" fill="#e5d8ce" d="M 260.5,234.5 C 264.846,234.334 269.179,234.501 273.5,235C 276.997,237.583 280.664,239.916 284.5,242C 285.38,243.356 285.714,244.856 285.5,246.5C 280.821,246.666 276.155,246.499 271.5,246C 267.912,243.623 264.412,241.123 261,238.5C 260.51,237.207 260.343,235.873 260.5,234.5 Z"/></g>
<g><path style="opacity:1" fill="#ea745f" d="M 212.5,233.5 C 210.566,239.767 206.566,244.1 200.5,246.5C 206.95,239.701 205.617,238.701 196.5,243.5C 195.735,240.904 195.401,238.237 195.5,235.5C 195.5,235.167 195.5,234.833 195.5,234.5C 196.124,236.834 196.957,239.167 198,241.5C 201.111,239.229 204.611,238.062 208.5,238C 209.733,236.333 211.067,234.833 212.5,233.5 Z"/></g>
<g><path style="opacity:1" fill="#c38d80" d="M 195.5,235.5 C 195.401,238.237 195.735,240.904 196.5,243.5C 190.603,241.326 190.27,238.659 195.5,235.5 Z"/></g>
<g><path style="opacity:1" fill="#ecb89d" d="M 140.5,238.5 C 140.737,239.791 140.404,240.791 139.5,241.5C 134.382,241.473 129.048,241.306 123.5,241C 129.324,240.879 134.99,240.046 140.5,238.5 Z"/></g>
<g><path style="opacity:1" fill="#e58a5b" d="M 139.5,234.5 C 140.434,235.568 140.768,236.901 140.5,238.5C 134.99,240.046 129.324,240.879 123.5,241C 129.048,241.306 134.382,241.473 139.5,241.5C 139.573,243.027 138.906,244.027 137.5,244.5C 132.5,245.833 127.5,245.833 122.5,244.5C 121.699,242.958 121.366,241.292 121.5,239.5C 121.238,238.022 121.571,236.689 122.5,235.5C 124.943,236.112 127.443,236.445 130,236.5C 133.477,236.672 136.644,236.006 139.5,234.5 Z"/></g>
<g><path style="opacity:1" fill="#ca8f80" d="M 200.5,246.5 C 198.545,246.201 197.211,245.201 196.5,243.5C 205.617,238.701 206.95,239.701 200.5,246.5 Z"/></g>
<g><path style="opacity:1" fill="#ee715c" d="M 244.5,238.5 C 248.605,238.496 250.105,240.496 249,244.5C 246.451,247.006 243.951,246.84 241.5,244C 243.689,243.323 244.022,242.156 242.5,240.5C 243.243,239.818 243.909,239.151 244.5,238.5 Z"/></g>
<g><path style="opacity:1" fill="#edbca4" d="M 122.5,244.5 C 127.5,245.833 132.5,245.833 137.5,244.5C 137.19,246.144 136.19,247.144 134.5,247.5C 131.375,246.521 128.042,246.187 124.5,246.5C 123.5,246.167 122.833,245.5 122.5,244.5 Z"/></g>
<g><path style="opacity:1" fill="#e69062" d="M 124.5,246.5 C 128.042,246.187 131.375,246.521 134.5,247.5C 130.857,249.109 127.524,248.776 124.5,246.5 Z"/></g>
</svg>
