<?xml version="1.0" encoding="UTF-8"?>
<svg xmlns="http://www.w3.org/2000/svg" version="1.1" width="141px" height="131px" style="shape-rendering:geometricPrecision; text-rendering:geometricPrecision; image-rendering:optimizeQuality; fill-rule:evenodd; clip-rule:evenodd" xmlns:xlink="http://www.w3.org/1999/xlink">
<g><path style="opacity:0.971" fill="#e48857" d="M 69.5,-0.5 C 71.5,-0.5 73.5,-0.5 75.5,-0.5C 78.0601,0.220313 79.8935,1.88698 81,4.5C 81.7666,8.55752 81.5999,12.5575 80.5,16.5C 86.0389,17.8587 90.5389,20.8587 94,25.5C 95.1488,28.3926 95.6488,31.3926 95.5,34.5C 84.9984,35.1656 76.8318,31.1656 71,22.5C 69.9605,24.7463 68.7938,26.913 67.5,29C 61.8483,32.2658 56.1816,35.4325 50.5,38.5C 47.3599,39.1289 44.8599,40.7956 43,43.5C 41.131,48.3058 40.131,53.3058 40,58.5C 35.5288,68.6538 28.0288,72.1538 17.5,69C 13.2929,65.9304 12.4595,62.097 15,57.5C 18.0823,54.3413 20.4157,50.6747 22,46.5C 22.3556,42.0988 21.8556,37.7655 20.5,33.5C 21.3698,27.7972 24.3698,23.6306 29.5,21C 34.7848,19.974 40.1181,19.3073 45.5,19C 47.9494,18.2754 50.2827,17.2754 52.5,16C 56.4078,11.5149 60.0745,6.84819 63.5,2C 65.6115,1.15532 67.6115,0.321983 69.5,-0.5 Z"/></g>
<g><path style="opacity:1" fill="#221710" d="M 72.5,14.5 C 74.6648,14.1159 76.3315,14.7826 77.5,16.5C 75.5,17.8333 73.5,17.8333 71.5,16.5C 71.8627,15.8165 72.1961,15.1499 72.5,14.5 Z"/></g>
<g><path style="opacity:0.963" fill="#c58d7f" d="M 95.5,34.5 C 100.012,34.8689 101.512,37.2022 100,41.5C 97.9251,43.6483 95.5918,43.9817 93,42.5C 90.0781,47.048 85.9114,49.7146 80.5,50.5C 80.5,53.5 80.5,56.5 80.5,59.5C 84.5,59.5 88.5,59.5 92.5,59.5C 90.5106,62.1658 87.844,63.8325 84.5,64.5C 83.8333,64.5 83.1667,64.5 82.5,64.5C 78.4862,64.6655 74.4862,64.4988 70.5,64C 68.3395,63.0041 66.6728,61.5041 65.5,59.5C 67.5,59.5 69.5,59.5 71.5,59.5C 71.5,56.5 71.5,53.5 71.5,50.5C 66.7989,49.6491 62.7989,47.4824 59.5,44C 57.1093,43.7132 54.7759,43.2132 52.5,42.5C 51.2949,41.4231 50.6282,40.0898 50.5,38.5C 56.1816,35.4325 61.8483,32.2658 67.5,29C 68.7938,26.913 69.9605,24.7463 71,22.5C 76.8318,31.1656 84.9984,35.1656 95.5,34.5 Z"/></g>
<g><path style="opacity:1" fill="#573e38" d="M 74.5,35.5 C 76.3084,35.4914 77.9751,35.9914 79.5,37C 77.1214,37.6139 74.788,37.9472 72.5,38C 73.3805,37.2917 74.0472,36.4584 74.5,35.5 Z"/></g>
<g><path style="opacity:1" fill="#4d3732" d="M 87.5,35.5 C 89.4286,35.2308 91.0953,35.7308 92.5,37C 91.451,37.4922 90.451,37.3256 89.5,36.5C 85.7505,39.3034 85.0838,38.9701 87.5,35.5 Z"/></g>
<g><path style="opacity:1" fill="#e8543c" d="M 75.5,41.5 C 79.5,41.5 83.5,41.5 87.5,41.5C 87.701,45.7933 85.701,47.7933 81.5,47.5C 77.1577,47.8243 75.1577,45.8243 75.5,41.5 Z"/></g>
<g><path style="opacity:0.937" fill="#4a4849" d="M 47.5,64.5 C 47.5123,67.142 46.179,68.4754 43.5,68.5C 44.5,66.8333 45.8333,65.5 47.5,64.5 Z"/></g>
<g><path style="opacity:0.999" fill="#aea8ac" d="M 65.5,59.5 C 66.6728,61.5041 68.3395,63.0041 70.5,64C 74.4862,64.4988 78.4862,64.6655 82.5,64.5C 82.9528,65.4584 83.6195,66.2917 84.5,67C 87.8891,66.8127 91.2224,66.9794 94.5,67.5C 92.9909,69.902 92.6576,72.2353 93.5,74.5C 94.2946,71.4496 95.2946,68.4496 96.5,65.5C 93.3791,64.9446 90.2124,65.2779 87,66.5C 85.699,66.3613 84.8656,65.6946 84.5,64.5C 87.844,63.8325 90.5106,62.1658 92.5,59.5C 98.5223,60.1764 104.189,61.843 109.5,64.5C 108.957,64.56 108.624,64.8933 108.5,65.5C 110.337,70.5065 112.67,75.1732 115.5,79.5C 113.833,74.8333 112.167,70.1667 110.5,65.5C 119.11,71.3775 124.777,79.3775 127.5,89.5C 125.116,91.8847 122.45,93.8847 119.5,95.5C 118.194,83.5936 117.527,83.5936 117.5,95.5C 114.918,97.7132 111.918,99.3799 108.5,100.5C 107.227,101.257 107.227,101.923 108.5,102.5C 108.5,105.5 108.5,108.5 108.5,111.5C 105.833,112.833 103.167,112.833 100.5,111.5C 101.135,108.127 101.635,104.794 102,101.5C 100.451,104.312 99.6178,107.312 99.5,110.5C 98.7321,111.263 98.2321,112.263 98,113.5C 98.2886,109.793 98.122,106.126 97.5,102.5C 95.5,102.167 93.5,101.833 91.5,101.5C 89.4705,102.172 87.4705,102.838 85.5,103.5C 78.1667,103.5 70.8333,103.5 63.5,103.5C 63.5,105.833 63.5,108.167 63.5,110.5C 63.5,111.833 62.8333,112.5 61.5,112.5C 61.7135,110.856 61.3802,109.356 60.5,108C 57.8428,107.825 55.1761,107.992 52.5,108.5C 52.5674,107.041 52.2341,105.708 51.5,104.5C 51.6107,103.883 51.944,103.383 52.5,103C 49.6181,102.728 46.9514,101.894 44.5,100.5C 43.9862,98.4884 43.8195,96.4884 44,94.5C 51.3025,90.4056 50.4692,88.0722 41.5,87.5C 41.5275,84.0836 42.5275,81.0836 44.5,78.5C 45.404,77.791 45.7373,76.791 45.5,75.5C 42.4824,75.7038 39.4824,76.0371 36.5,76.5C 38.0941,73.2358 40.4275,70.5691 43.5,68.5C 46.179,68.4754 47.5123,67.142 47.5,64.5C 53.1281,61.5923 59.1281,59.9256 65.5,59.5 Z"/></g>
<g><path style="opacity:1" fill="#5b9b8e" d="M 92.5,86.5 C 90.8428,89.0088 91.1762,91.1755 93.5,93C 91.0038,94.331 89.0038,96.1644 87.5,98.5C 86.1154,99.5736 84.9487,100.907 84,102.5C 83.5078,101.451 83.6744,100.451 84.5,99.5C 83.675,98.6143 82.675,98.281 81.5,98.5C 81.6495,99.552 81.4828,100.552 81,101.5C 76.7843,93.7664 76.451,85.7664 80,77.5C 83.3742,71.8872 87.3742,71.2205 92,75.5C 92.4986,79.1516 92.6653,82.8183 92.5,86.5 Z"/></g>
<g><path style="opacity:1" fill="#5b9c8f" d="M 61.5,92.5 C 61.1667,92.5 60.8333,92.5 60.5,92.5C 57.3744,87.9131 55.041,82.9131 53.5,77.5C 55.5248,71.3486 59.5248,69.8486 65.5,73C 73.315,79.0818 75.815,86.9151 73,96.5C 71.0257,96.3744 68.859,96.2078 66.5,96C 64.6769,95.0027 63.0103,93.8361 61.5,92.5 Z"/></g>
<g><path style="opacity:1" fill="#545153" d="M 77.5,65.5 C 78.4614,67.2646 78.7947,69.2646 78.5,71.5C 75.8127,71.3359 73.146,71.5026 70.5,72C 71.4506,72.7175 71.6172,73.5509 71,74.5C 69.8118,73.4366 69.3118,72.1033 69.5,70.5C 72.1667,70.5 74.8333,70.5 77.5,70.5C 77.5,68.8333 77.5,67.1667 77.5,65.5 Z"/></g>
<g><path style="opacity:1" fill="#676365" d="M 82.5,64.5 C 83.1667,64.5 83.8333,64.5 84.5,64.5C 84.8656,65.6946 85.699,66.3613 87,66.5C 90.2124,65.2779 93.3791,64.9446 96.5,65.5C 95.2946,68.4496 94.2946,71.4496 93.5,74.5C 92.6576,72.2353 92.9909,69.902 94.5,67.5C 91.2224,66.9794 87.8891,66.8127 84.5,67C 83.6195,66.2917 82.9528,65.4584 82.5,64.5 Z"/></g>
<g><path style="opacity:0.977" fill="#b7b1b6" d="M 44.5,78.5 C 42.5275,81.0836 41.5275,84.0836 41.5,87.5C 50.4692,88.0722 51.3025,90.4056 44,94.5C 43.8195,96.4884 43.9862,98.4884 44.5,100.5C 39.3459,98.0901 34.3459,95.4234 29.5,92.5C 28.5222,92.189 27.8555,91.5223 27.5,90.5C 29.9412,85.9355 32.6079,81.6021 35.5,77.5C 38.0661,77.6556 40.5661,77.3223 43,76.5C 44.0299,76.8361 44.5299,77.5028 44.5,78.5 Z"/></g>
<g><path style="opacity:1" fill="#484648" d="M 44.5,78.5 C 44.5299,77.5028 44.0299,76.8361 43,76.5C 40.5661,77.3223 38.0661,77.6556 35.5,77.5C 35.5,76.8333 35.8333,76.5 36.5,76.5C 39.4824,76.0371 42.4824,75.7038 45.5,75.5C 45.7373,76.791 45.404,77.791 44.5,78.5 Z"/></g>
<g><path style="opacity:1" fill="#585658" d="M 93.5,74.5 C 96.0974,74.6432 98.4308,75.4766 100.5,77C 100,77.5 99.5,78 99,78.5C 97.3152,76.8953 95.4818,75.562 93.5,74.5 Z"/></g>
<g><path style="opacity:1" fill="#4f4c4e" d="M 109.5,64.5 C 110.167,64.5 110.5,64.8333 110.5,65.5C 112.167,70.1667 113.833,74.8333 115.5,79.5C 112.67,75.1732 110.337,70.5065 108.5,65.5C 108.624,64.8933 108.957,64.56 109.5,64.5 Z"/></g>
<g><path style="opacity:1" fill="#336b5b" d="M 113.5,85.5 C 113.5,86.1667 113.5,86.8333 113.5,87.5C 111.18,92.1828 107.846,95.1828 103.5,96.5C 98.2712,99.3016 92.9379,99.9682 87.5,98.5C 89.0038,96.1644 91.0038,94.331 93.5,93C 91.1762,91.1755 90.8428,89.0088 92.5,86.5C 98.03,83.0441 104.03,81.5441 110.5,82C 111.636,83.1451 112.636,84.3117 113.5,85.5 Z"/></g>
<g><path style="opacity:1" fill="#454344" d="M 115.5,79.5 C 116.158,80.3984 116.824,81.3984 117.5,82.5C 118.451,81.6744 119.451,81.5078 120.5,82C 118.291,84.0478 115.958,85.8811 113.5,87.5C 113.5,86.8333 113.5,86.1667 113.5,85.5C 115.28,84.0101 115.946,82.0101 115.5,79.5 Z"/></g>
<g><path style="opacity:0.979" fill="#c48d7f" d="M 127.5,89.5 C 132.612,96.0661 136.946,103.066 140.5,110.5C 140.5,115.833 140.5,121.167 140.5,126.5C 139.118,127.801 137.452,128.634 135.5,129C 127.333,129.167 119.167,129.333 111,129.5C 84.2263,127.505 57.3929,126.005 30.5,125C 27.3022,124.152 24.4689,122.652 22,120.5C 20.4448,110.052 22.9448,100.719 29.5,92.5C 34.3459,95.4234 39.3459,98.0901 44.5,100.5C 46.9514,101.894 49.6181,102.728 52.5,103C 51.944,103.383 51.6107,103.883 51.5,104.5C 44.8115,108.408 45.1449,110.408 52.5,110.5C 52.5,111.167 52.8333,111.5 53.5,111.5C 55.6074,112.468 57.9407,112.802 60.5,112.5C 60.8333,112.5 61.1667,112.5 61.5,112.5C 62.8333,112.5 63.5,111.833 63.5,110.5C 64.2613,111.391 65.2613,112.058 66.5,112.5C 70.1271,109.069 73.9604,108.736 78,111.5C 81.3409,109.658 83.8409,106.991 85.5,103.5C 87.4705,102.838 89.4705,102.172 91.5,101.5C 93.5,101.833 95.5,102.167 97.5,102.5C 98.122,106.126 98.2886,109.793 98,113.5C 98.2321,112.263 98.7321,111.263 99.5,110.5C 99.5,111.167 99.8333,111.5 100.5,111.5C 103.167,112.833 105.833,112.833 108.5,111.5C 111.166,111.067 113.832,110.567 116.5,110C 113.964,107.295 111.297,104.795 108.5,102.5C 107.227,101.923 107.227,101.257 108.5,100.5C 111.918,99.3799 114.918,97.7132 117.5,95.5C 118.167,95.5 118.833,95.5 119.5,95.5C 122.45,93.8847 125.116,91.8847 127.5,89.5 Z M 108.5,102.5 C 111.297,104.795 113.964,107.295 116.5,110C 113.832,110.567 111.166,111.067 108.5,111.5C 108.5,108.5 108.5,105.5 108.5,102.5 Z M 51.5,104.5 C 52.2341,105.708 52.5674,107.041 52.5,108.5C 52.5,108.833 52.5,109.167 52.5,109.5C 52.5,109.833 52.5,110.167 52.5,110.5C 45.1449,110.408 44.8115,108.408 51.5,104.5 Z"/></g>
<g><path style="opacity:1" fill="#575457" d="M 119.5,95.5 C 118.833,95.5 118.167,95.5 117.5,95.5C 117.527,83.5936 118.194,83.5936 119.5,95.5 Z"/></g>
<g><path style="opacity:1" fill="#444244" d="M 60.5,92.5 C 60.8333,92.5 61.1667,92.5 61.5,92.5C 61.5,93.8333 61.5,95.1667 61.5,96.5C 58.2234,96.2161 55.0567,96.5495 52,97.5C 51.8333,97.1667 51.6667,96.8333 51.5,96.5C 54.4281,95.5159 57.4281,95.1826 60.5,95.5C 60.5,94.5 60.5,93.5 60.5,92.5 Z"/></g>
<g><path style="opacity:1" fill="#e38859" d="M 85.5,103.5 C 83.8409,106.991 81.3409,109.658 78,111.5C 73.9604,108.736 70.1271,109.069 66.5,112.5C 65.2613,112.058 64.2613,111.391 63.5,110.5C 63.5,108.167 63.5,105.833 63.5,103.5C 70.8333,103.5 78.1667,103.5 85.5,103.5 Z"/></g>
<g><path style="opacity:1" fill="#444243" d="M 100.5,111.5 C 99.8333,111.5 99.5,111.167 99.5,110.5C 99.6178,107.312 100.451,104.312 102,101.5C 101.635,104.794 101.135,108.127 100.5,111.5 Z"/></g>
<g><path style="opacity:1" fill="#6d6a6d" d="M 61.5,112.5 C 61.1667,112.5 60.8333,112.5 60.5,112.5C 60.5858,111.504 60.2524,110.671 59.5,110C 57.1902,109.503 54.8568,109.337 52.5,109.5C 52.5,109.167 52.5,108.833 52.5,108.5C 55.1761,107.992 57.8428,107.825 60.5,108C 61.3802,109.356 61.7135,110.856 61.5,112.5 Z"/></g>
<g><path style="opacity:0.943" fill="#b8adb0" d="M 52.5,110.5 C 52.5,110.167 52.5,109.833 52.5,109.5C 54.8568,109.337 57.1902,109.503 59.5,110C 60.2524,110.671 60.5858,111.504 60.5,112.5C 57.9407,112.802 55.6074,112.468 53.5,111.5C 52.8333,111.5 52.5,111.167 52.5,110.5 Z"/></g>
</svg>
