<?xml version="1.0" encoding="UTF-8"?>
<svg xmlns="http://www.w3.org/2000/svg" version="1.1" width="375px" height="264px" style="shape-rendering:geometricPrecision; text-rendering:geometricPrecision; image-rendering:optimizeQuality; fill-rule:evenodd; clip-rule:evenodd" xmlns:xlink="http://www.w3.org/1999/xlink">
<g><path style="opacity:0.981" fill="#2f6758" d="M 156.5,-0.5 C 162.833,-0.5 169.167,-0.5 175.5,-0.5C 180.037,1.19766 183.537,4.19766 186,8.5C 187.006,13.1785 185.172,15.5118 180.5,15.5C 175.167,15.5 169.833,15.5 164.5,15.5C 162.621,14.6586 160.621,14.3253 158.5,14.5C 153.763,13.365 149.097,12.0316 144.5,10.5C 142.478,8.58072 142.144,6.41405 143.5,4C 147.846,2.16398 152.179,0.663976 156.5,-0.5 Z"/></g>
<g><path style="opacity:0.929" fill="#040303" d="M 144.5,10.5 C 149.097,12.0316 153.763,13.365 158.5,14.5C 154.294,19.134 148.961,21.4673 142.5,21.5C 142.691,17.7379 143.358,14.0712 144.5,10.5 Z"/></g>
<g><path style="opacity:0.991" fill="#b88578" d="M 158.5,14.5 C 160.621,14.3253 162.621,14.6586 164.5,15.5C 169.657,20.7374 175.99,23.2374 183.5,23C 184.76,24.8138 184.76,26.6471 183.5,28.5C 179.495,28.6532 176.162,30.1532 173.5,33C 170.95,34.4416 168.284,35.6083 165.5,36.5C 164.614,37.325 164.281,38.325 164.5,39.5C 162.167,39.5 159.833,39.5 157.5,39.5C 157.5,38.5 157.5,37.5 157.5,36.5C 152.799,35.6491 148.799,33.4824 145.5,30C 144.207,29.51 142.873,29.3433 141.5,29.5C 136.247,28.1694 135.58,25.6694 139.5,22C 140.448,21.5172 141.448,21.3505 142.5,21.5C 148.961,21.4673 154.294,19.134 158.5,14.5 Z"/></g>
<g><path style="opacity:0.941" fill="#080605" d="M 164.5,15.5 C 169.833,15.5 175.167,15.5 180.5,15.5C 183.406,18.9654 187.073,21.4654 191.5,23C 193.359,24.5578 194.859,26.3911 196,28.5C 197.666,36.4725 197.999,44.4725 197,52.5C 198.693,54.6035 200.86,56.1035 203.5,57C 208.088,61.1887 209.588,66.3553 208,72.5C 207.392,74.0664 206.558,75.3998 205.5,76.5C 204.599,75.7095 203.932,74.7095 203.5,73.5C 201.952,69.4023 200.119,65.4023 198,61.5C 196.346,61.7937 194.846,61.127 193.5,59.5C 195.028,59.4827 195.528,58.816 195,57.5C 193.644,56.6198 192.144,56.2865 190.5,56.5C 190.548,53.7081 189.215,51.8747 186.5,51C 181.069,48.523 175.403,46.8563 169.5,46C 168.406,43.2735 166.74,41.1068 164.5,39.5C 164.281,38.325 164.614,37.325 165.5,36.5C 168.284,35.6083 170.95,34.4416 173.5,33C 176.162,30.1532 179.495,28.6532 183.5,28.5C 184.76,26.6471 184.76,24.8138 183.5,23C 175.99,23.2374 169.657,20.7374 164.5,15.5 Z"/></g>
<g><path style="opacity:1" fill="#3c2d29" d="M 151.5,24.5 C 153.628,23.3709 155.961,23.2042 158.5,24C 159.791,25.2917 159.791,26.4583 158.5,27.5C 158.586,26.5041 158.252,25.6708 157.5,25C 155.527,24.5045 153.527,24.3379 151.5,24.5 Z"/></g>
<g><path style="opacity:1" fill="#e5e0e0" d="M 166.5,24.5 C 167.278,25.1556 167.944,25.9889 168.5,27C 168.167,27.5 167.833,28 167.5,28.5C 165.591,27.6518 163.591,27.3184 161.5,27.5C 161.5,26.5 161.5,25.5 161.5,24.5C 163.167,24.5 164.833,24.5 166.5,24.5 Z"/></g>
<g><path style="opacity:1" fill="#d5d0d0" d="M 151.5,24.5 C 153.527,24.3379 155.527,24.5045 157.5,25C 158.252,25.6708 158.586,26.5041 158.5,27.5C 155.833,27.8333 153.167,28.1667 150.5,28.5C 150.433,27.0413 150.766,25.7079 151.5,24.5 Z"/></g>
<g><path style="opacity:1" fill="#504441" d="M 166.5,24.5 C 170.82,24.9592 171.487,26.7925 168.5,30C 165.974,29.7381 163.64,28.9048 161.5,27.5C 163.591,27.3184 165.591,27.6518 167.5,28.5C 167.833,28 168.167,27.5 168.5,27C 167.944,25.9889 167.278,25.1556 166.5,24.5 Z"/></g>
<g><path style="opacity:0.942" fill="#060404" d="M 141.5,29.5 C 142.873,29.3433 144.207,29.51 145.5,30C 148.799,33.4824 152.799,35.6491 157.5,36.5C 157.5,37.5 157.5,38.5 157.5,39.5C 151.741,38.2926 147.741,40.2926 145.5,45.5C 143.892,46.3184 142.225,46.9851 140.5,47.5C 139.893,47.3764 139.56,47.0431 139.5,46.5C 140.006,40.812 140.672,35.1453 141.5,29.5 Z"/></g>
<g><path style="opacity:1" fill="#5f443d" d="M 152.5,30.5 C 155.829,30.2637 158.829,31.097 161.5,33C 158.231,32.8435 154.898,32.5101 151.5,32C 152.056,31.6174 152.389,31.1174 152.5,30.5 Z"/></g>
<g><path style="opacity:0.989" fill="#eead8d" d="M 157.5,39.5 C 159.833,39.5 162.167,39.5 164.5,39.5C 166.74,41.1068 168.406,43.2735 169.5,46C 175.403,46.8563 181.069,48.523 186.5,51C 189.215,51.8747 190.548,53.7081 190.5,56.5C 192.144,56.2865 193.644,56.6198 195,57.5C 195.528,58.816 195.028,59.4827 193.5,59.5C 191.053,60.225 188.553,60.8917 186,61.5C 184.269,60.259 182.436,59.259 180.5,58.5C 181.29,59.7942 182.29,60.9609 183.5,62C 187.148,62.0621 190.815,61.8954 194.5,61.5C 194.145,64.0667 193.479,66.5667 192.5,69C 193.477,70.497 194.477,71.997 195.5,73.5C 195.457,74.4164 195.124,75.0831 194.5,75.5C 184.554,73.5247 174.221,72.8581 163.5,73.5C 164.181,68.845 162.181,66.1783 157.5,65.5C 153.409,66.6007 151.742,69.2674 152.5,73.5C 148.5,73.5 144.5,73.5 140.5,73.5C 139.866,72.0532 138.699,71.3866 137,71.5C 135.301,71.3866 134.134,72.0532 133.5,73.5C 131.5,73.5 129.5,73.5 127.5,73.5C 128.5,85.5022 129.5,97.5022 130.5,109.5C 125.5,109.502 120.833,108.502 116.5,106.5C 106.971,102.784 103.137,95.7841 105,85.5C 105.424,82.9746 106.59,80.9746 108.5,79.5C 111.422,86.5291 115.256,87.1958 120,81.5C 119.998,75.3624 116.831,73.0291 110.5,74.5C 114.837,66.3232 120.171,58.8232 126.5,52C 130.658,49.672 134.992,47.8387 139.5,46.5C 139.56,47.0431 139.893,47.3764 140.5,47.5C 142.225,46.9851 143.892,46.3184 145.5,45.5C 147.741,40.2926 151.741,38.2926 157.5,39.5 Z"/></g>
<g><path style="opacity:1" fill="#241b17" d="M 157.5,41.5 C 164.57,42.4067 166.237,45.9067 162.5,52C 156.662,53.4798 153.829,51.3132 154,45.5C 155.102,44.051 156.269,42.7177 157.5,41.5 Z"/></g>
<g><path style="opacity:1" fill="#eead8c" d="M 157.5,44.5 C 162.159,44.0146 163.492,45.848 161.5,50C 156.728,50.8104 155.395,48.9771 157.5,44.5 Z"/></g>
<g><path style="opacity:1" fill="#1d1713" d="M 137.5,49.5 C 144.57,50.4067 146.237,53.9067 142.5,60C 136.662,61.4798 133.829,59.3132 134,53.5C 134.69,51.6498 135.856,50.3164 137.5,49.5 Z"/></g>
<g><path style="opacity:1" fill="#dfa284" d="M 137.5,51.5 C 142.328,51.3852 143.661,53.5519 141.5,58C 136.57,58.427 135.237,56.2604 137.5,51.5 Z"/></g>
<g><path style="opacity:1" fill="#c58f74" d="M 180.5,58.5 C 182.436,59.259 184.269,60.259 186,61.5C 188.553,60.8917 191.053,60.225 193.5,59.5C 194.846,61.127 196.346,61.7937 198,61.5C 200.119,65.4023 201.952,69.4023 203.5,73.5C 200.569,75.0908 197.902,77.0908 195.5,79.5C 196.407,82.0567 197.407,84.5567 198.5,87C 196.455,87.4901 194.455,87.3235 192.5,86.5C 193.349,82.8987 194.016,79.232 194.5,75.5C 195.124,75.0831 195.457,74.4164 195.5,73.5C 194.477,71.997 193.477,70.497 192.5,69C 193.479,66.5667 194.145,64.0667 194.5,61.5C 190.815,61.8954 187.148,62.0621 183.5,62C 182.29,60.9609 181.29,59.7942 180.5,58.5 Z"/></g>
<g><path style="opacity:1" fill="#1e1815" d="M 163.5,73.5 C 162.833,73.5 162.167,73.5 161.5,73.5C 161.527,67.9841 159.36,66.6508 155,69.5C 154.51,70.7932 154.343,72.1266 154.5,73.5C 153.833,73.5 153.167,73.5 152.5,73.5C 151.742,69.2674 153.409,66.6007 157.5,65.5C 162.181,66.1783 164.181,68.845 163.5,73.5 Z"/></g>
<g><path style="opacity:1" fill="#705242" d="M 180.5,58.5 C 178.983,58.4894 177.816,57.8228 177,56.5C 176.824,59.8818 176.324,63.2152 175.5,66.5C 172.342,66.8258 169.508,67.8258 167,69.5C 166.517,68.552 166.351,67.552 166.5,66.5C 169.518,66.2962 172.518,65.9629 175.5,65.5C 175.335,61.8183 175.501,58.1516 176,54.5C 177.992,55.3281 179.492,56.6614 180.5,58.5 Z"/></g>
<g><path style="opacity:1" fill="#dfa487" d="M 161.5,73.5 C 159.167,73.5 156.833,73.5 154.5,73.5C 154.343,72.1266 154.51,70.7932 155,69.5C 159.36,66.6508 161.527,67.9841 161.5,73.5 Z"/></g>
<g><path style="opacity:1" fill="#312a28" d="M 140.5,73.5 C 138.167,73.5 135.833,73.5 133.5,73.5C 134.134,72.0532 135.301,71.3866 137,71.5C 138.699,71.3866 139.866,72.0532 140.5,73.5 Z"/></g>
<g><path style="opacity:0.997" fill="#bab4b9" d="M 133.5,73.5 C 135.833,73.5 138.167,73.5 140.5,73.5C 144.5,73.5 148.5,73.5 152.5,73.5C 153.167,73.5 153.833,73.5 154.5,73.5C 156.833,73.5 159.167,73.5 161.5,73.5C 162.167,73.5 162.833,73.5 163.5,73.5C 174.221,72.8581 184.554,73.5247 194.5,75.5C 194.016,79.232 193.349,82.8987 192.5,86.5C 192.483,88.5648 192.15,90.5648 191.5,92.5C 191.5,93.1667 191.5,93.8333 191.5,94.5C 191.007,96.8056 190.674,99.139 190.5,101.5C 190.5,101.833 190.5,102.167 190.5,102.5C 189.659,104.379 189.325,106.379 189.5,108.5C 189.5,109.167 189.5,109.833 189.5,110.5C 185.5,110.5 181.5,110.5 177.5,110.5C 176.833,110.5 176.167,110.5 175.5,110.5C 171.167,110.5 166.833,110.5 162.5,110.5C 162.167,110.5 161.833,110.5 161.5,110.5C 156.833,110.5 152.167,110.5 147.5,110.5C 147.167,110.5 146.833,110.5 146.5,110.5C 142.731,110.244 139.064,110.577 135.5,111.5C 133.219,111.923 131.552,111.256 130.5,109.5C 129.5,97.5022 128.5,85.5022 127.5,73.5C 129.5,73.5 131.5,73.5 133.5,73.5 Z"/></g>
<g><path style="opacity:1" fill="#251c18" d="M 110.5,74.5 C 116.831,73.0291 119.998,75.3624 120,81.5C 115.256,87.1958 111.422,86.5291 108.5,79.5C 108.893,77.7162 109.559,76.0495 110.5,74.5 Z"/></g>
<g><path style="opacity:1" fill="#dea283" d="M 112.5,76.5 C 117.328,76.3852 118.661,78.5519 116.5,83C 111.57,83.427 110.237,81.2604 112.5,76.5 Z"/></g>
<g><path style="opacity:1" fill="#815e4c" d="M 210.5,90.5 C 210.5,91.1667 210.5,91.8333 210.5,92.5C 207.111,92.6321 203.777,92.7988 200.5,93C 201.622,90.8762 203.122,89.0429 205,87.5C 205.507,88.9961 205.007,90.1627 203.5,91C 205.929,91.7033 208.262,91.5366 210.5,90.5 Z"/></g>
<g><path style="opacity:0.962" fill="#eead8c" d="M 203.5,73.5 C 203.932,74.7095 204.599,75.7095 205.5,76.5C 207.559,81.0099 209.226,85.6766 210.5,90.5C 208.262,91.5366 205.929,91.7033 203.5,91C 205.007,90.1627 205.507,88.9961 205,87.5C 203.122,89.0429 201.622,90.8762 200.5,93C 203.777,92.7988 207.111,92.6321 210.5,92.5C 213.423,101.46 210.09,106.627 200.5,108C 196.848,108.499 193.182,108.665 189.5,108.5C 189.325,106.379 189.659,104.379 190.5,102.5C 193.099,102.549 195.266,103.549 197,105.5C 197.048,103.456 196.548,101.456 195.5,99.5C 195.863,98.8165 196.196,98.1499 196.5,97.5C 198.196,97.3146 199.529,96.4813 200.5,95C 197.48,94.0989 194.48,93.2655 191.5,92.5C 192.15,90.5648 192.483,88.5648 192.5,86.5C 194.455,87.3235 196.455,87.4901 198.5,87C 197.407,84.5567 196.407,82.0567 195.5,79.5C 197.902,77.0908 200.569,75.0908 203.5,73.5 Z"/></g>
<g><path style="opacity:1" fill="#886351" d="M 191.5,92.5 C 194.48,93.2655 197.48,94.0989 200.5,95C 199.529,96.4813 198.196,97.3146 196.5,97.5C 196.611,96.8826 196.944,96.3826 197.5,96C 195.655,94.872 193.655,94.372 191.5,94.5C 191.5,93.8333 191.5,93.1667 191.5,92.5 Z"/></g>
<g><path style="opacity:1" fill="#ecac8d" d="M 191.5,94.5 C 193.655,94.372 195.655,94.872 197.5,96C 196.944,96.3826 196.611,96.8826 196.5,97.5C 195.057,98.3351 194.057,99.6684 193.5,101.5C 192.473,100.209 191.473,100.209 190.5,101.5C 190.674,99.139 191.007,96.8056 191.5,94.5 Z"/></g>
<g><path style="opacity:1" fill="#1a1411" d="M 116.5,106.5 C 114.788,104.104 114.288,101.438 115,98.5C 119.692,94.2146 123.192,95.048 125.5,101C 124.706,106.047 121.706,107.88 116.5,106.5 Z"/></g>
<g><path style="opacity:1" fill="#d99e80" d="M 118.5,97.5 C 122.976,97.8003 124.31,99.9669 122.5,104C 116.339,104.878 115.006,102.711 118.5,97.5 Z"/></g>
<g><path style="opacity:1" fill="#805d4c" d="M 196.5,97.5 C 196.196,98.1499 195.863,98.8165 195.5,99.5C 196.548,101.456 197.048,103.456 197,105.5C 195.266,103.549 193.099,102.549 190.5,102.5C 190.5,102.167 190.5,101.833 190.5,101.5C 191.473,100.209 192.473,100.209 193.5,101.5C 194.057,99.6684 195.057,98.3351 196.5,97.5 Z"/></g>
<g><path style="opacity:1" fill="#e64c35" d="M 146.5,110.5 C 146.5,112.5 146.5,114.5 146.5,116.5C 142.5,116.5 138.5,116.5 134.5,116.5C 135.038,114.883 135.371,113.216 135.5,111.5C 139.064,110.577 142.731,110.244 146.5,110.5 Z"/></g>
<g><path style="opacity:1" fill="#e54c35" d="M 162.5,110.5 C 166.833,110.5 171.167,110.5 175.5,110.5C 175.5,112.5 175.5,114.5 175.5,116.5C 171.167,116.5 166.833,116.5 162.5,116.5C 162.5,114.5 162.5,112.5 162.5,110.5 Z"/></g>
<g><path style="opacity:0.992" fill="#e54c34" d="M 177.5,110.5 C 181.5,110.5 185.5,110.5 189.5,110.5C 190.363,112.421 191.029,114.421 191.5,116.5C 186.833,116.5 182.167,116.5 177.5,116.5C 177.5,114.5 177.5,112.5 177.5,110.5 Z"/></g>
<g><path style="opacity:1" fill="#571d15" d="M 175.5,110.5 C 176.167,110.5 176.833,110.5 177.5,110.5C 177.5,112.5 177.5,114.5 177.5,116.5C 182.167,116.5 186.833,116.5 191.5,116.5C 192.338,116.842 192.672,117.508 192.5,118.5C 191.518,121.962 191.185,125.629 191.5,129.5C 191.167,129.5 190.833,129.5 190.5,129.5C 190.5,125.5 190.5,121.5 190.5,117.5C 186.167,117.5 181.833,117.5 177.5,117.5C 177.5,121.5 177.5,125.5 177.5,129.5C 176.833,129.5 176.167,129.5 175.5,129.5C 175.5,125.5 175.5,121.5 175.5,117.5C 171.167,117.5 166.833,117.5 162.5,117.5C 162.5,117.167 162.5,116.833 162.5,116.5C 166.833,116.5 171.167,116.5 175.5,116.5C 175.5,114.5 175.5,112.5 175.5,110.5 Z"/></g>
<g><path style="opacity:0.992" fill="#e24931" d="M 134.5,117.5 C 138.5,117.5 142.5,117.5 146.5,117.5C 146.5,121.5 146.5,125.5 146.5,129.5C 142.167,129.5 137.833,129.5 133.5,129.5C 133.802,126.941 133.468,124.607 132.5,122.5C 132.796,120.597 133.463,118.93 134.5,117.5 Z"/></g>
<g><path style="opacity:1" fill="#e24932" d="M 162.5,117.5 C 166.833,117.5 171.167,117.5 175.5,117.5C 175.5,121.5 175.5,125.5 175.5,129.5C 171.167,129.5 166.833,129.5 162.5,129.5C 162.5,125.5 162.5,121.5 162.5,117.5 Z"/></g>
<g><path style="opacity:1" fill="#e14931" d="M 190.5,129.5 C 186.167,129.5 181.833,129.5 177.5,129.5C 177.5,125.5 177.5,121.5 177.5,117.5C 181.833,117.5 186.167,117.5 190.5,117.5C 190.5,121.5 190.5,125.5 190.5,129.5 Z"/></g>
<g><path style="opacity:0.964" fill="#d7452f" d="M 192.5,118.5 C 194.229,122.021 195.562,125.687 196.5,129.5C 194.833,129.5 193.167,129.5 191.5,129.5C 191.185,125.629 191.518,121.962 192.5,118.5 Z"/></g>
<g><path style="opacity:0.999" fill="#852c1f" d="M 132.5,122.5 C 133.468,124.607 133.802,126.941 133.5,129.5C 132.167,129.5 130.833,129.5 129.5,129.5C 130.305,127.085 131.305,124.751 132.5,122.5 Z"/></g>
<g><path style="opacity:0.972" fill="#da462f" d="M 129.5,130.5 C 130.5,130.5 131.5,130.5 132.5,130.5C 132.5,134.5 132.5,138.5 132.5,142.5C 129.287,142.81 126.287,142.477 123.5,141.5C 125.25,137.665 127.25,133.999 129.5,130.5 Z"/></g>
<g><path style="opacity:1" fill="#de4831" d="M 147.5,130.5 C 152.167,130.5 156.833,130.5 161.5,130.5C 161.5,134.5 161.5,138.5 161.5,142.5C 156.833,142.5 152.167,142.5 147.5,142.5C 147.5,138.5 147.5,134.5 147.5,130.5 Z"/></g>
<g><path style="opacity:1" fill="#2d0f0a" d="M 146.5,110.5 C 146.833,110.5 147.167,110.5 147.5,110.5C 147.5,112.5 147.5,114.5 147.5,116.5C 152.167,116.5 156.833,116.5 161.5,116.5C 161.5,114.5 161.5,112.5 161.5,110.5C 161.833,110.5 162.167,110.5 162.5,110.5C 162.5,112.5 162.5,114.5 162.5,116.5C 162.5,116.833 162.5,117.167 162.5,117.5C 162.5,121.5 162.5,125.5 162.5,129.5C 166.833,129.5 171.167,129.5 175.5,129.5C 176.167,129.5 176.833,129.5 177.5,129.5C 181.833,129.5 186.167,129.5 190.5,129.5C 190.833,129.5 191.167,129.5 191.5,129.5C 193.167,129.5 194.833,129.5 196.5,129.5C 195.081,130.451 193.415,130.784 191.5,130.5C 191.167,130.5 190.833,130.5 190.5,130.5C 186.167,130.5 181.833,130.5 177.5,130.5C 177.167,130.5 176.833,130.5 176.5,130.5C 176.167,130.5 175.833,130.5 175.5,130.5C 171.167,130.5 166.833,130.5 162.5,130.5C 162.5,134.167 162.5,137.833 162.5,141.5C 162.5,141.833 162.5,142.167 162.5,142.5C 162.5,142.833 162.5,143.167 162.5,143.5C 162.5,147.167 162.5,150.833 162.5,154.5C 162.5,155.167 162.5,155.833 162.5,156.5C 162.5,157.833 162.5,159.167 162.5,160.5C 162.167,160.5 161.833,160.5 161.5,160.5C 161.5,159.167 161.5,157.833 161.5,156.5C 161.5,155.833 161.5,155.167 161.5,154.5C 161.5,150.833 161.5,147.167 161.5,143.5C 161.5,143.167 161.5,142.833 161.5,142.5C 161.5,138.5 161.5,134.5 161.5,130.5C 156.833,130.5 152.167,130.5 147.5,130.5C 147.167,130.5 146.833,130.5 146.5,130.5C 142.167,130.5 137.833,130.5 133.5,130.5C 133.167,130.5 132.833,130.5 132.5,130.5C 131.5,130.5 130.5,130.5 129.5,130.5C 129.5,130.167 129.5,129.833 129.5,129.5C 130.833,129.5 132.167,129.5 133.5,129.5C 137.833,129.5 142.167,129.5 146.5,129.5C 146.5,125.5 146.5,121.5 146.5,117.5C 142.5,117.5 138.5,117.5 134.5,117.5C 134.5,117.167 134.5,116.833 134.5,116.5C 138.5,116.5 142.5,116.5 146.5,116.5C 146.5,114.5 146.5,112.5 146.5,110.5 Z"/></g>
<g><path style="opacity:1" fill="#dd4730" d="M 147.5,117.5 C 152.167,117.5 156.833,117.5 161.5,117.5C 161.5,121.5 161.5,125.5 161.5,129.5C 156.833,129.5 152.167,129.5 147.5,129.5C 147.5,125.5 147.5,121.5 147.5,117.5 Z"/></g>
<g><path style="opacity:1" fill="#e24b34" d="M 147.5,110.5 C 152.167,110.5 156.833,110.5 161.5,110.5C 161.5,112.5 161.5,114.5 161.5,116.5C 156.833,116.5 152.167,116.5 147.5,116.5C 147.5,114.5 147.5,112.5 147.5,110.5 Z"/></g>
<g><path style="opacity:1" fill="#e54a32" d="M 175.5,130.5 C 175.5,134.167 175.5,137.833 175.5,141.5C 171.167,141.5 166.833,141.5 162.5,141.5C 162.5,137.833 162.5,134.167 162.5,130.5C 166.833,130.5 171.167,130.5 175.5,130.5 Z"/></g>
<g><path style="opacity:0.992" fill="#dc4730" d="M 196.5,129.5 C 198.402,133.655 200.069,137.989 201.5,142.5C 198.167,142.5 194.833,142.5 191.5,142.5C 191.5,138.5 191.5,134.5 191.5,130.5C 193.415,130.784 195.081,130.451 196.5,129.5 Z"/></g>
<g><path style="opacity:1" fill="#a63625" d="M 175.5,130.5 C 175.833,130.5 176.167,130.5 176.5,130.5C 176.5,134.5 176.5,138.5 176.5,142.5C 171.833,142.5 167.167,142.5 162.5,142.5C 162.5,142.167 162.5,141.833 162.5,141.5C 166.833,141.5 171.167,141.5 175.5,141.5C 175.5,137.833 175.5,134.167 175.5,130.5 Z"/></g>
<g><path style="opacity:1" fill="#531b13" d="M 132.5,130.5 C 132.833,130.5 133.167,130.5 133.5,130.5C 133.5,134.5 133.5,138.5 133.5,142.5C 137.833,142.5 142.167,142.5 146.5,142.5C 146.5,138.5 146.5,134.5 146.5,130.5C 146.833,130.5 147.167,130.5 147.5,130.5C 147.5,134.5 147.5,138.5 147.5,142.5C 152.167,142.5 156.833,142.5 161.5,142.5C 161.5,142.833 161.5,143.167 161.5,143.5C 156.833,143.5 152.167,143.5 147.5,143.5C 147.5,147.167 147.5,150.833 147.5,154.5C 152.167,154.5 156.833,154.5 161.5,154.5C 161.5,155.167 161.5,155.833 161.5,156.5C 156.833,156.5 152.167,156.5 147.5,156.5C 147.5,158.5 147.5,160.5 147.5,162.5C 147.167,162.5 146.833,162.5 146.5,162.5C 146.5,160.5 146.5,158.5 146.5,156.5C 146.5,155.833 146.5,155.167 146.5,154.5C 146.5,150.833 146.5,147.167 146.5,143.5C 142.167,143.5 137.833,143.5 133.5,143.5C 132.833,143.5 132.167,143.5 131.5,143.5C 128.5,143.5 125.5,143.5 122.5,143.5C 122.328,142.508 122.662,141.842 123.5,141.5C 126.287,142.477 129.287,142.81 132.5,142.5C 132.5,138.5 132.5,134.5 132.5,130.5 Z"/></g>
<g><path style="opacity:1" fill="#e24932" d="M 133.5,130.5 C 137.833,130.5 142.167,130.5 146.5,130.5C 146.5,134.5 146.5,138.5 146.5,142.5C 142.167,142.5 137.833,142.5 133.5,142.5C 133.5,138.5 133.5,134.5 133.5,130.5 Z"/></g>
<g><path style="opacity:1" fill="#4b1811" d="M 176.5,130.5 C 176.833,130.5 177.167,130.5 177.5,130.5C 177.5,134.5 177.5,138.5 177.5,142.5C 181.833,142.5 186.167,142.5 190.5,142.5C 190.5,138.5 190.5,134.5 190.5,130.5C 190.833,130.5 191.167,130.5 191.5,130.5C 191.5,134.5 191.5,138.5 191.5,142.5C 194.833,142.5 198.167,142.5 201.5,142.5C 198.375,143.479 195.042,143.813 191.5,143.5C 191.5,146.167 191.5,148.833 191.5,151.5C 191.167,151.5 190.833,151.5 190.5,151.5C 190.5,148.833 190.5,146.167 190.5,143.5C 186.167,143.5 181.833,143.5 177.5,143.5C 176.833,143.5 176.167,143.5 175.5,143.5C 171.167,143.5 166.833,143.5 162.5,143.5C 162.5,143.167 162.5,142.833 162.5,142.5C 167.167,142.5 171.833,142.5 176.5,142.5C 176.5,138.5 176.5,134.5 176.5,130.5 Z"/></g>
<g><path style="opacity:1" fill="#e24932" d="M 177.5,130.5 C 181.833,130.5 186.167,130.5 190.5,130.5C 190.5,134.5 190.5,138.5 190.5,142.5C 186.167,142.5 181.833,142.5 177.5,142.5C 177.5,138.5 177.5,134.5 177.5,130.5 Z"/></g>
<g><path style="opacity:0.986" fill="#e64a32" d="M 122.5,143.5 C 125.5,143.5 128.5,143.5 131.5,143.5C 131.5,147.167 131.5,150.833 131.5,154.5C 130.209,154.263 129.209,154.596 128.5,155.5C 125.001,152.834 122.001,149.667 119.5,146C 120.373,144.955 121.373,144.122 122.5,143.5 Z"/></g>
<g><path style="opacity:1" fill="#e64b32" d="M 133.5,143.5 C 137.833,143.5 142.167,143.5 146.5,143.5C 146.5,147.167 146.5,150.833 146.5,154.5C 142.167,154.5 137.833,154.5 133.5,154.5C 133.5,150.833 133.5,147.167 133.5,143.5 Z"/></g>
<g><path style="opacity:1" fill="#e14931" d="M 161.5,143.5 C 161.5,147.167 161.5,150.833 161.5,154.5C 156.833,154.5 152.167,154.5 147.5,154.5C 147.5,150.833 147.5,147.167 147.5,143.5C 152.167,143.5 156.833,143.5 161.5,143.5 Z"/></g>
<g><path style="opacity:1" fill="#e54a32" d="M 162.5,143.5 C 166.833,143.5 171.167,143.5 175.5,143.5C 175.5,147.167 175.5,150.833 175.5,154.5C 171.167,154.5 166.833,154.5 162.5,154.5C 162.5,150.833 162.5,147.167 162.5,143.5 Z"/></g>
<g><path style="opacity:1" fill="#e64c34" d="M 177.5,143.5 C 181.833,143.5 186.167,143.5 190.5,143.5C 190.5,146.167 190.5,148.833 190.5,151.5C 186.887,152.486 183.221,153.319 179.5,154C 178.944,154.383 178.611,154.883 178.5,155.5C 178.167,155.5 177.833,155.5 177.5,155.5C 177.5,151.5 177.5,147.5 177.5,143.5 Z"/></g>
<g><path style="opacity:0.989" fill="#e34a33" d="M 201.5,142.5 C 202.727,144.632 203.727,146.966 204.5,149.5C 204.253,150.713 203.586,151.38 202.5,151.5C 198.935,150.213 195.268,150.213 191.5,151.5C 191.5,148.833 191.5,146.167 191.5,143.5C 195.042,143.813 198.375,143.479 201.5,142.5 Z"/></g>
<g><path style="opacity:0.971" fill="#c58d7f" d="M 202.5,151.5 C 215.673,178.514 229.339,205.181 243.5,231.5C 243.5,231.833 243.5,232.167 243.5,232.5C 241.363,234.171 239.363,235.838 237.5,237.5C 233.5,237.5 229.5,237.5 225.5,237.5C 209.849,210.202 194.182,182.869 178.5,155.5C 178.611,154.883 178.944,154.383 179.5,154C 183.221,153.319 186.887,152.486 190.5,151.5C 190.833,151.5 191.167,151.5 191.5,151.5C 195.268,150.213 198.935,150.213 202.5,151.5 Z"/></g>
<g><path style="opacity:1" fill="#76261a" d="M 131.5,143.5 C 132.167,143.5 132.833,143.5 133.5,143.5C 133.5,147.167 133.5,150.833 133.5,154.5C 137.833,154.5 142.167,154.5 146.5,154.5C 146.5,155.167 146.5,155.833 146.5,156.5C 141.52,155.985 136.854,156.652 132.5,158.5C 130.596,158.262 129.262,157.262 128.5,155.5C 129.209,154.596 130.209,154.263 131.5,154.5C 131.5,150.833 131.5,147.167 131.5,143.5 Z"/></g>
<g><path style="opacity:1" fill="#70251a" d="M 175.5,143.5 C 176.167,143.5 176.833,143.5 177.5,143.5C 177.5,147.5 177.5,151.5 177.5,155.5C 176.292,156.234 174.959,156.567 173.5,156.5C 169.833,156.5 166.167,156.5 162.5,156.5C 162.5,155.833 162.5,155.167 162.5,154.5C 166.833,154.5 171.167,154.5 175.5,154.5C 175.5,150.833 175.5,147.167 175.5,143.5 Z"/></g>
<g><path style="opacity:0.998" fill="#e64d35" d="M 146.5,156.5 C 146.5,158.5 146.5,160.5 146.5,162.5C 142.279,162.314 138.279,161.314 134.5,159.5C 133.508,159.672 132.842,159.338 132.5,158.5C 136.854,156.652 141.52,155.985 146.5,156.5 Z"/></g>
<g><path style="opacity:0.976" fill="#e04a33" d="M 161.5,156.5 C 161.5,157.833 161.5,159.167 161.5,160.5C 159.579,161.363 157.579,162.029 155.5,162.5C 152.833,162.5 150.167,162.5 147.5,162.5C 147.5,160.5 147.5,158.5 147.5,156.5C 152.167,156.5 156.833,156.5 161.5,156.5 Z"/></g>
<g><path style="opacity:0.935" fill="#e75230" d="M 162.5,156.5 C 166.167,156.5 169.833,156.5 173.5,156.5C 169.974,157.974 166.307,159.307 162.5,160.5C 162.5,159.167 162.5,157.833 162.5,156.5 Z"/></g>
<g><path style="opacity:0.972" fill="#c68e80" d="M 134.5,159.5 C 138.279,161.314 142.279,162.314 146.5,162.5C 146.833,162.5 147.167,162.5 147.5,162.5C 150.167,162.5 152.833,162.5 155.5,162.5C 155.329,186.503 154.996,210.503 154.5,234.5C 149.051,235.97 143.551,237.303 138,238.5C 135.528,237.678 133.028,237.011 130.5,236.5C 130.5,235.833 130.5,235.167 130.5,234.5C 131.867,209.501 133.2,184.501 134.5,159.5 Z"/></g>
<g><path style="opacity:0.305" fill="#070606" d="M 246.5,236.5 C 245.833,236.5 245.167,236.5 244.5,236.5C 244.833,235.833 245.167,235.167 245.5,234.5C 246.476,233.185 247.476,231.852 248.5,230.5C 246.655,229.605 245.322,230.272 244.5,232.5C 244.167,232.5 243.833,232.5 243.5,232.5C 243.5,232.167 243.5,231.833 243.5,231.5C 244.615,228.192 246.782,227.192 250,228.5C 250.667,229.833 250.667,231.167 250,232.5C 248.624,233.705 247.458,235.038 246.5,236.5 Z"/></g>
<g><path style="opacity:0.325" fill="#020202" d="M 130.5,234.5 C 130.5,235.167 130.5,235.833 130.5,236.5C 131.031,239.888 129.697,241.888 126.5,242.5C 125.833,242.5 125.5,242.833 125.5,243.5C 124.5,243.5 123.5,243.5 122.5,243.5C 118.247,243.434 117.58,241.934 120.5,239C 122.167,238.667 123.833,238.333 125.5,238C 124.62,236.644 124.286,235.144 124.5,233.5C 126.621,233.325 128.621,233.659 130.5,234.5 Z M 126.5,234.5 C 127.627,235.122 128.627,235.955 129.5,237C 127.511,237.519 126.511,236.686 126.5,234.5 Z M 124.5,239.5 C 125.043,239.56 125.376,239.893 125.5,240.5C 124.277,241.614 122.944,241.781 121.5,241C 122.737,240.768 123.737,240.268 124.5,239.5 Z"/></g>
<g><path style="opacity:0.999" fill="#f1ecec" d="M 154.5,234.5 C 154.5,238.5 154.5,242.5 154.5,246.5C 153.566,247.568 153.232,248.901 153.5,250.5C 141.5,250.5 129.5,250.5 117.5,250.5C 117.392,248.486 118.058,246.82 119.5,245.5C 120.71,245.068 121.71,244.401 122.5,243.5C 123.5,243.5 124.5,243.5 125.5,243.5C 126.167,243.5 126.5,243.167 126.5,242.5C 129.697,241.888 131.031,239.888 130.5,236.5C 133.028,237.011 135.528,237.678 138,238.5C 143.551,237.303 149.051,235.97 154.5,234.5 Z"/></g>
<g><path style="opacity:1" fill="#a09b9b" d="M 243.5,232.5 C 243.833,232.5 244.167,232.5 244.5,232.5C 244.328,233.492 244.662,234.158 245.5,234.5C 245.167,235.167 244.833,235.833 244.5,236.5C 242.428,239.734 240.095,240.067 237.5,237.5C 239.363,235.838 241.363,234.171 243.5,232.5 Z"/></g>
<g><path style="opacity:1" fill="#f1ecec" d="M 244.5,236.5 C 245.167,236.5 245.833,236.5 246.5,236.5C 251.328,240.081 256.328,243.415 261.5,246.5C 261.822,248.722 261.155,250.556 259.5,252C 254.618,253.555 249.618,253.888 244.5,253C 239.7,251.011 235.034,248.845 230.5,246.5C 228.06,243.957 226.394,240.957 225.5,237.5C 229.5,237.5 233.5,237.5 237.5,237.5C 240.095,240.067 242.428,239.734 244.5,236.5 Z"/></g>
<g><path style="opacity:0.947" fill="#326959" d="M 119.5,245.5 C 118.058,246.82 117.392,248.486 117.5,250.5C 129.5,250.5 141.5,250.5 153.5,250.5C 153.232,248.901 153.566,247.568 154.5,246.5C 179.833,246.5 205.167,246.5 230.5,246.5C 235.034,248.845 239.7,251.011 244.5,253C 249.618,253.888 254.618,253.555 259.5,252C 261.155,250.556 261.822,248.722 261.5,246.5C 270.178,245.004 273.344,248.338 271,256.5C 270.25,257.126 269.416,257.626 268.5,258C 263.845,258.499 259.179,258.666 254.5,258.5C 253.432,257.566 252.099,257.232 250.5,257.5C 248.833,257.5 247.167,257.5 245.5,257.5C 243.901,257.232 242.568,257.566 241.5,258.5C 204.5,258.5 167.5,258.5 130.5,258.5C 129.295,257.314 127.961,257.314 126.5,258.5C 125.081,257.549 123.415,257.216 121.5,257.5C 120.167,257.5 118.833,257.5 117.5,257.5C 114.15,257.665 110.817,257.498 107.5,257C 101.864,253.797 101.198,249.797 105.5,245C 110.174,244.667 114.84,244.833 119.5,245.5 Z"/></g>
<g><path style="opacity:0.775" fill="#040404" d="M 117.5,257.5 C 118.833,257.5 120.167,257.5 121.5,257.5C 122.577,260.972 124.244,261.305 126.5,258.5C 127.961,257.314 129.295,257.314 130.5,258.5C 129.925,260.411 128.925,262.078 127.5,263.5C 125.167,263.5 122.833,263.5 120.5,263.5C 118.975,261.784 117.975,259.784 117.5,257.5 Z"/></g>
<g><path style="opacity:1" fill="#ada8ad" d="M 121.5,257.5 C 123.415,257.216 125.081,257.549 126.5,258.5C 124.244,261.305 122.577,260.972 121.5,257.5 Z"/></g>
<g><path style="opacity:0.743" fill="#080b0a" d="M 245.5,257.5 C 245.418,259.252 246.251,260.252 248,260.5C 249.749,260.252 250.582,259.252 250.5,257.5C 252.099,257.232 253.432,257.566 254.5,258.5C 253.752,260.332 252.752,261.999 251.5,263.5C 248.833,263.5 246.167,263.5 243.5,263.5C 242.559,261.95 241.893,260.284 241.5,258.5C 242.568,257.566 243.901,257.232 245.5,257.5 Z"/></g>
<g><path style="opacity:1" fill="#a7a5a8" d="M 245.5,257.5 C 247.167,257.5 248.833,257.5 250.5,257.5C 250.582,259.252 249.749,260.252 248,260.5C 246.251,260.252 245.418,259.252 245.5,257.5 Z"/></g>
</svg>
